<?xml version="1.0" encoding="UTF-8"?>
<svg version="1.1" xmlns="http://www.w3.org/2000/svg" width="512" height="512">
<path d="M0 0 C1.17618393 -0.00990463 2.35236786 -0.01980927 3.56419373 -0.03001404 C4.84589447 -0.02551239 6.12759521 -0.02101074 7.44813538 -0.01637268 C8.81843624 -0.02207808 10.18873236 -0.02904301 11.559021 -0.03717041 C15.27395399 -0.05509859 18.98865074 -0.05393412 22.703614 -0.04822803 C25.80749158 -0.04513559 28.91132382 -0.05122925 32.01519495 -0.05726677 C39.33890884 -0.07130933 46.66250607 -0.06975305 53.98622131 -0.05836487 C61.53612313 -0.04688423 69.08566969 -0.06095879 76.63552469 -0.08776134 C83.12316446 -0.10992872 89.6106928 -0.11655339 96.09836775 -0.11068493 C99.97072422 -0.10731656 103.84285299 -0.10972222 107.71517754 -0.12693596 C111.35722695 -0.14241973 114.99875074 -0.13843431 118.6407795 -0.11963081 C120.61006109 -0.11419652 122.57936635 -0.12844823 124.54859924 -0.14332581 C135.30095444 -0.0536398 135.30095444 -0.0536398 140.12416077 4.38768005 C143.71685956 8.16946825 144.45240821 11.25392868 144.68666077 16.32518005 C144.51830967 21.17128663 143.73355752 24.20833744 140.70619202 27.9853363 C136.40785568 31.79546654 133.08464574 32.73540045 127.37416077 32.88768005 C117.00987532 33.44992934 117.00987532 33.44992934 108.62416077 38.95018005 C105.65513792 43.77484219 105.50349779 47.7758523 106.12416077 53.38768005 C108.31263385 57.84568078 110.59698775 60.33967321 115.12416077 62.38768005 C119.70578263 63.3534956 124.17486607 63.53307249 128.83851624 63.52952576 C129.96172272 63.5347374 129.96172272 63.5347374 131.10762024 63.54005432 C132.72483971 63.54737416 134.34206898 63.55273951 135.95930099 63.55634499 C138.52443685 63.5635543 141.08938623 63.57925308 143.65446472 63.59768677 C150.9446307 63.64995243 158.23469025 63.69812112 165.52503967 63.71360779 C169.99310756 63.72371863 174.46069846 63.75311552 178.92857742 63.7949276 C180.62449147 63.80719228 182.32047298 63.81236718 184.0164299 63.81012917 C201.88018835 63.79235231 201.88018835 63.79235231 209.36634827 70.3525238 C210.17459045 71.32898865 210.17459045 71.32898865 210.99916077 72.32518005 C211.55345764 72.97357849 212.10775452 73.62197693 212.67884827 74.2900238 C217.13712816 80.76055435 216.94213293 87.78981495 216.12416077 95.38768005 C214.06746311 101.57542707 210.45096878 105.7654506 205.12416077 109.38768005 C200.2315206 111.80735507 196.49238729 112.76312878 191.04652405 112.77244568 C190.37720856 112.77781845 189.70789307 112.78319122 189.01829529 112.78872681 C187.57736709 112.79844494 186.13638077 112.80146715 184.69542313 112.79837036 C182.40697512 112.79385608 180.11928581 112.80799358 177.83091736 112.82676697 C172.97034385 112.86339757 168.10985191 112.87722876 163.24916077 112.88768005 C157.61866933 112.89980572 151.98855124 112.92156681 146.35822678 112.96768188 C144.11762606 112.98114081 141.87751108 112.97710182 139.6368866 112.97227478 C129.03297512 112.96576117 129.03297512 112.96576117 119.12416077 116.38768005 C114.53267188 121.09395616 113.76916896 124.4568273 113.84291077 130.8447113 C114.25597321 134.57948424 115.63290409 136.62709833 118.12416077 139.38768005 C124.50129896 144.25444342 132.186716 143.53356748 139.83607483 143.52952576 C141.43726418 143.5347374 141.43726418 143.5347374 143.07080078 143.54005432 C145.38374056 143.54739237 147.6966873 143.55274812 150.00963593 143.55634499 C153.67585912 143.56353202 157.34195015 143.57921551 161.00813293 143.59768677 C171.43041678 143.65005097 181.85262708 143.69812057 192.27503967 143.71360779 C198.65578777 143.72370969 205.03620109 143.75308875 211.41681671 143.7949276 C213.84235345 143.80720859 216.26793753 143.81236419 218.69350433 143.81012917 C222.0942538 143.80776655 225.49404852 143.83001653 228.89466858 143.85765076 C229.88722153 143.85104935 230.87977448 143.84444794 231.90240479 143.83764648 C240.94216211 143.95766664 248.89315832 146.42723909 255.59291077 152.68455505 C262.88533178 160.79551313 264.88158223 169.50362459 264.56556702 180.2665863 C263.93462651 188.81296222 259.24746212 196.32437927 252.97181702 201.9931488 C247.50662838 206.11803748 241.75502058 207.96678152 235.12416077 209.38768005 C235.57146545 210.01674255 236.01877014 210.64580505 236.47962952 211.29393005 C240.20252345 216.56472232 243.75927048 221.88149596 247.12416077 227.38768005 C248.67103577 226.21205505 248.67103577 226.21205505 250.24916077 225.01268005 C250.99552795 224.45967224 251.74189514 223.90666443 252.51087952 223.3368988 C254.32161006 221.98629411 256.11491242 220.61212693 257.89369202 219.2197113 C265.58018 213.40982581 273.64195624 208.78016394 282.18666077 204.32518005 C283.28163879 203.75275574 284.37661682 203.18033142 285.504776 202.59056091 C294.15849669 198.16558354 294.15849669 198.16558354 299.12416077 197.38768005 C303.36639778 207.32806974 306.85102205 217.27545822 309.49916077 227.76268005 C309.87451965 229.22157654 309.87451965 229.22157654 310.25746155 230.70994568 C311.92896333 237.58180427 312.72152197 244.33139627 313.12416077 251.38768005 C314.56082092 251.17111755 314.56082092 251.17111755 316.02650452 250.95018005 C326.11846373 249.51468586 335.93983589 249.16080153 346.12416077 249.38768005 C346.97935286 277.10223867 342.60314186 306.65351316 328.00697327 330.7509613 C326.96591876 332.37112038 326.96591876 332.37112038 327.12416077 334.38768005 C328.3706842 334.78857849 329.61720764 335.18947693 330.90150452 335.6025238 C342.664205 339.4928524 353.37058746 344.24477095 364.12416077 350.38768005 C362.96832278 355.64626528 359.74375082 358.52775504 356.12416077 362.38768005 C355.33332092 363.25779724 355.33332092 363.25779724 354.52650452 364.14549255 C345.54200616 373.6377144 334.50104776 380.21117483 323.12416077 386.38768005 C326.20778989 390.67439176 329.38648483 394.71975515 332.99916077 398.57518005 C338.29892169 404.43657268 344.76269411 412.46816272 346.12416077 420.38768005 C321.55320061 434.2971029 293.42405203 443.78730865 265.06166077 436.51268005 C260.97356641 435.35445815 257.04168976 434.03170923 253.12416077 432.38768005 C252.97720764 433.4034613 252.83025452 434.41924255 252.67884827 435.46580505 C249.26305797 457.19903602 237.14765018 471.2977312 220.12416077 484.38768005 C219.10966858 485.17014099 218.09517639 485.95260193 217.04994202 486.7587738 C214.12416077 488.38768005 214.12416077 488.38768005 211.56947327 488.3525238 C196.36892189 482.35486216 181.78352542 466.04790679 175.18666077 451.45018005 C172.8072128 445.25541034 171.83456428 438.96156335 171.12416077 432.38768005 C170.11095764 432.73701599 169.09775452 433.08635193 168.05384827 433.4462738 C166.70236847 433.90615234 165.35080129 434.36577414 163.99916077 434.82518005 C163.00142639 435.17032654 163.00142639 435.17032654 161.98353577 435.52244568 C138.22595315 443.55809862 111.35114065 436.97007943 89.55433655 426.23240662 C86.39550608 424.64627047 83.25769803 423.02323365 80.12416077 421.38768005 C79.46416077 421.05768005 78.80416077 420.72768005 78.12416077 420.38768005 C81.53231234 408.91469455 89.91218502 400.02808284 97.68275452 391.22361755 C100.08838793 388.66307747 100.08838793 388.66307747 101.12416077 386.38768005 C100.45771545 386.04736755 99.79127014 385.70705505 99.10462952 385.35643005 C88.23731249 379.64158921 79.0532481 372.55468833 70.04603577 364.29393005 C69.5571991 363.84604126 69.06836243 363.39815247 68.56471252 362.93669128 C67.12416077 361.38768005 67.12416077 361.38768005 65.97169495 359.38407898 C64.25522611 356.68205736 62.80938731 355.16811084 60.12416077 353.38768005 C53.83376467 352.21576407 47.61090417 352.41353819 41.23353577 352.52830505 C39.36417269 352.53094651 37.4947997 352.52947577 35.6254425 352.52409363 C30.71035157 352.51832394 25.79670371 352.55670295 20.88191223 352.60795593 C13.03158764 352.68553681 5.18137823 352.70940514 -2.66928864 352.70786285 C-5.39656924 352.71564136 -8.12252461 352.75040832 -10.84953308 352.78813171 C-24.33671195 352.88930322 -34.75697533 351.04746507 -44.87583923 341.38768005 C-52.41763183 333.48746563 -57.00341504 323.43209981 -56.87583923 312.38768005 C-56.07632741 300.17386117 -51.43071108 289.75025139 -42.45005798 281.36424255 C-35.43726161 275.97960679 -27.68221364 272.30951499 -18.80699158 272.21409607 C-17.79849152 272.20060623 -16.78999146 272.18711639 -15.75093079 272.17321777 C-14.66550995 272.16277939 -13.58008911 272.152341 -12.46177673 272.1415863 C-10.15057524 272.10863299 -7.83937742 272.07542161 -5.52818298 272.04197693 C-1.89458361 271.99470143 1.7390025 271.95029025 5.37269592 271.91087341 C8.88636499 271.87089639 12.39972687 271.81940095 15.91322327 271.7665863 C16.98649872 271.75817215 18.05977417 271.749758 19.16557312 271.74108887 C29.91631603 271.56694873 39.50900282 270.62384457 47.62416077 262.97361755 C53.77821648 256.12356744 54.75334548 249.86051993 54.53431702 240.8993988 C53.72403948 233.96187974 50.86431763 228.67275151 45.74916077 223.95018005 C37.38701563 217.54282209 28.3151207 217.23992518 18.21669006 217.24583435 C17.24662018 217.24235992 16.27655029 217.2388855 15.27708435 217.23530579 C13.17970026 217.22797985 11.08230857 217.22261771 8.98491478 217.21901512 C5.6588561 217.21181322 2.33294184 217.19611933 -0.99307251 217.17767334 C-10.44673195 217.1253754 -19.90030966 217.07723977 -29.35411072 217.06175232 C-35.14599641 217.05164411 -40.93751388 217.02225174 -46.72925377 216.98043251 C-48.92870989 216.96816292 -51.12821808 216.96299382 -53.32770729 216.96523094 C-56.41226346 216.96759667 -59.49577105 216.94532184 -62.58018494 216.91770935 C-63.47765945 216.92431076 -64.37513397 216.93091217 -65.29980469 216.93771362 C-75.72387682 216.78543503 -83.23010042 212.87797431 -90.67662048 205.7587738 C-99.02818795 196.75450834 -100.46476608 187.68260051 -100.17662048 175.80955505 C-99.637282 165.2536133 -94.48804107 158.44809131 -86.87583923 151.38768005 C-78.54473857 144.93145504 -70.80769677 144.09394927 -60.49571228 144.11643982 C-58.62876709 144.1085997 -58.62876709 144.1085997 -56.72410583 144.1006012 C-54.02474113 144.0903696 -51.32563061 144.08364422 -48.6262722 144.0827198 C-44.35121973 144.08077183 -40.07632777 144.0626782 -35.80133057 144.04196167 C-25.18212802 143.99286978 -14.56288198 143.96192664 -3.94358826 143.94065857 C4.30972972 143.92410333 12.5629095 143.90119808 20.81613511 143.85763782 C25.0587091 143.8359534 29.30101996 143.82779497 33.5436455 143.83003056 C36.81443679 143.82796067 40.08511539 143.80657781 43.35585022 143.78831482 C44.52031174 143.792892 45.68477325 143.79746918 46.88452148 143.80218506 C53.33050251 143.74508454 59.28232959 143.34306027 65.12416077 140.38768005 C69.71564965 135.68140395 70.47915257 132.31853281 70.40541077 125.9306488 C69.99234832 122.19587587 68.61541744 120.14826178 66.12416077 117.38768005 C60.9072599 113.40636097 55.25351015 113.26668213 48.8785553 113.24583435 C47.6635434 113.2387999 46.44853149 113.23176544 45.19670105 113.22451782 C43.2465358 113.21827141 43.2465358 113.21827141 41.25697327 113.2118988 C39.89465064 113.20145946 38.53233524 113.19003438 37.17002869 113.17767334 C31.40916602 113.12551062 25.64843826 113.0772565 19.88734436 113.06175232 C16.35289433 113.05162127 12.81904407 113.02217666 9.284832 112.98043251 C7.2998042 112.96229026 5.3146221 112.96475886 3.32951355 112.96768188 C-4.97908964 112.85549419 -10.69265116 112.05343545 -17.11802673 106.4228363 C-17.65685486 105.77185974 -18.19568298 105.12088318 -18.75083923 104.45018005 C-19.30513611 103.80178162 -19.85943298 103.15338318 -20.43052673 102.4853363 C-24.88880663 96.01480576 -24.69381139 88.98554516 -23.87583923 81.38768005 C-21.42574962 74.01638039 -16.76747579 69.89643947 -10.39146423 65.78611755 C-5.45012114 63.82056108 -0.83555581 63.93496451 4.43666077 63.88768005 C11.69078 63.82186173 18.49430266 63.65814657 25.12416077 60.38768005 C29.71564965 55.68140395 30.47915257 52.31853281 30.40541077 45.9306488 C29.99234832 42.19587587 28.61541744 40.14826178 26.12416077 37.38768005 C21.22621744 33.64977593 16.14777462 33.36929778 10.15541077 33.2118988 C9.25435608 33.18805115 8.35330139 33.16420349 7.42494202 33.13963318 C5.55798731 33.09666979 3.69072635 33.0654161 1.82337952 33.04588318 C-5.32683147 32.82595537 -9.22376484 31.17933731 -14.25083923 25.88768005 C-16.65404799 20.71153813 -16.74795051 15.99625772 -15.87583923 10.38768005 C-12.90792302 3.45443317 -7.50440624 0.01787726 0 0 Z " fill="#FEB5BE" transform="translate(115.87583923339844,15.612319946289063)"/>
<path d="M0 0 C1.17618393 -0.00990463 2.35236786 -0.01980927 3.56419373 -0.03001404 C4.84589447 -0.02551239 6.12759521 -0.02101074 7.44813538 -0.01637268 C8.81843624 -0.02207808 10.18873236 -0.02904301 11.559021 -0.03717041 C15.27395399 -0.05509859 18.98865074 -0.05393412 22.703614 -0.04822803 C25.80749158 -0.04513559 28.91132382 -0.05122925 32.01519495 -0.05726677 C39.33890884 -0.07130933 46.66250607 -0.06975305 53.98622131 -0.05836487 C61.53612313 -0.04688423 69.08566969 -0.06095879 76.63552469 -0.08776134 C83.12316446 -0.10992872 89.6106928 -0.11655339 96.09836775 -0.11068493 C99.97072422 -0.10731656 103.84285299 -0.10972222 107.71517754 -0.12693596 C111.35722695 -0.14241973 114.99875074 -0.13843431 118.6407795 -0.11963081 C120.61006109 -0.11419652 122.57936635 -0.12844823 124.54859924 -0.14332581 C135.30095444 -0.0536398 135.30095444 -0.0536398 140.12416077 4.38768005 C143.71685956 8.16946825 144.45240821 11.25392868 144.68666077 16.32518005 C144.51830967 21.17128663 143.73355752 24.20833744 140.70619202 27.9853363 C136.40785568 31.79546654 133.08464574 32.73540045 127.37416077 32.88768005 C117.00987532 33.44992934 117.00987532 33.44992934 108.62416077 38.95018005 C105.65513792 43.77484219 105.50349779 47.7758523 106.12416077 53.38768005 C108.31263385 57.84568078 110.59698775 60.33967321 115.12416077 62.38768005 C119.70578263 63.3534956 124.17486607 63.53307249 128.83851624 63.52952576 C129.96172272 63.5347374 129.96172272 63.5347374 131.10762024 63.54005432 C132.72483971 63.54737416 134.34206898 63.55273951 135.95930099 63.55634499 C138.52443685 63.5635543 141.08938623 63.57925308 143.65446472 63.59768677 C150.9446307 63.64995243 158.23469025 63.69812112 165.52503967 63.71360779 C169.99310756 63.72371863 174.46069846 63.75311552 178.92857742 63.7949276 C180.62449147 63.80719228 182.32047298 63.81236718 184.0164299 63.81012917 C201.88018835 63.79235231 201.88018835 63.79235231 209.36634827 70.3525238 C210.17459045 71.32898865 210.17459045 71.32898865 210.99916077 72.32518005 C211.55345764 72.97357849 212.10775452 73.62197693 212.67884827 74.2900238 C217.13712816 80.76055435 216.94213293 87.78981495 216.12416077 95.38768005 C214.06746311 101.57542707 210.45096878 105.7654506 205.12416077 109.38768005 C200.2315206 111.80735507 196.49238729 112.76312878 191.04652405 112.77244568 C190.37720856 112.77781845 189.70789307 112.78319122 189.01829529 112.78872681 C187.57736709 112.79844494 186.13638077 112.80146715 184.69542313 112.79837036 C182.40697512 112.79385608 180.11928581 112.80799358 177.83091736 112.82676697 C172.97034385 112.86339757 168.10985191 112.87722876 163.24916077 112.88768005 C157.61866933 112.89980572 151.98855124 112.92156681 146.35822678 112.96768188 C144.11762606 112.98114081 141.87751108 112.97710182 139.6368866 112.97227478 C129.03297512 112.96576117 129.03297512 112.96576117 119.12416077 116.38768005 C114.53267188 121.09395616 113.76916896 124.4568273 113.84291077 130.8447113 C114.25597321 134.57948424 115.63290409 136.62709833 118.12416077 139.38768005 C124.50129896 144.25444342 132.186716 143.53356748 139.83607483 143.52952576 C141.43726418 143.5347374 141.43726418 143.5347374 143.07080078 143.54005432 C145.38374056 143.54739237 147.6966873 143.55274812 150.00963593 143.55634499 C153.67585912 143.56353202 157.34195015 143.57921551 161.00813293 143.59768677 C171.43041678 143.65005097 181.85262708 143.69812057 192.27503967 143.71360779 C198.65578777 143.72370969 205.03620109 143.75308875 211.41681671 143.7949276 C213.84235345 143.80720859 216.26793753 143.81236419 218.69350433 143.81012917 C222.0942538 143.80776655 225.49404852 143.83001653 228.89466858 143.85765076 C229.88722153 143.85104935 230.87977448 143.84444794 231.90240479 143.83764648 C240.94216211 143.95766664 248.89315832 146.42723909 255.59291077 152.68455505 C262.88533178 160.79551313 264.88158223 169.50362459 264.56556702 180.2665863 C263.93538458 188.80269385 259.25548553 196.34480663 252.96400452 201.98924255 C249.83018911 204.3712084 246.83495786 206.06768689 243.12416077 207.38768005 C242.36232483 207.7022113 241.60048889 208.01674255 240.81556702 208.34080505 C237.7545579 209.18319476 236.19071138 209.30676151 233.12416077 208.38768005 C228.91807659 204.9963003 225.74948983 200.49318494 222.51966858 196.2040863 C220.59216173 193.69522504 218.49894015 191.35519302 216.37416077 189.01268005 C215.73994202 188.30369568 215.10572327 187.5947113 214.45228577 186.86424255 C213.79486389 186.13334412 213.79486389 186.13334412 213.12416077 185.38768005 C197.71144774 191.68648287 186.13241317 215.7810022 178.12416077 229.38768005 C174.79012481 227.79817754 172.39551372 225.96910653 169.62416077 223.51268005 C159.64954017 215.2449464 139.61718583 199.38768005 126.12416077 199.38768005 C118.65789364 216.38535202 114.22535965 234.12506439 111.12416077 252.38768005 C100.56416077 251.72768005 90.00416077 251.06768005 79.12416077 250.38768005 C79.46917788 265.91345005 80.26423608 280.3487385 84.12416077 295.38768005 C84.33701721 296.22669861 84.54987366 297.06571716 84.7691803 297.93016052 C87.56983006 308.68669245 91.22448759 318.50303738 96.48744202 328.2978363 C98.12416077 331.38768005 98.12416077 331.38768005 99.12416077 334.38768005 C97.7699941 334.92934672 96.41582743 335.47101339 95.06166077 336.01268005 C94.14771545 336.38135193 93.23377014 336.7500238 92.29212952 337.12986755 C90.07392277 338.01058589 87.8464179 338.86807726 85.61244202 339.70799255 C84.99441711 339.94437439 84.37639221 340.18075623 83.73963928 340.42430115 C81.9693867 341.10126464 80.19530849 341.76819923 78.42103577 342.43455505 C75.79337984 343.49754232 73.68509048 344.68757294 71.3302002 346.29600525 C61.12054373 353.06682482 52.57235449 353.51626555 40.54994202 353.30955505 C38.69058751 353.30477203 36.83122317 353.30297854 34.97186279 353.30400085 C31.09939408 353.29778797 27.22842905 353.26499579 23.3563385 353.21092224 C18.42052021 353.1428223 13.48634028 353.12767177 8.550107 353.13070297 C4.7192961 353.12960993 0.88883536 353.1075885 -2.94185829 353.0786972 C-4.76090164 353.06607288 -6.57998413 353.05810992 -8.39906883 353.05512238 C-22.6499663 353.00605138 -34.09781045 351.67672454 -44.87583923 341.38768005 C-52.41763183 333.48746563 -57.00341504 323.43209981 -56.87583923 312.38768005 C-56.07632741 300.17386117 -51.43071108 289.75025139 -42.45005798 281.36424255 C-35.43726161 275.97960679 -27.68221364 272.30951499 -18.80699158 272.21409607 C-17.79849152 272.20060623 -16.78999146 272.18711639 -15.75093079 272.17321777 C-14.66550995 272.16277939 -13.58008911 272.152341 -12.46177673 272.1415863 C-10.15057524 272.10863299 -7.83937742 272.07542161 -5.52818298 272.04197693 C-1.89458361 271.99470143 1.7390025 271.95029025 5.37269592 271.91087341 C8.88636499 271.87089639 12.39972687 271.81940095 15.91322327 271.7665863 C16.98649872 271.75817215 18.05977417 271.749758 19.16557312 271.74108887 C29.91631603 271.56694873 39.50900282 270.62384457 47.62416077 262.97361755 C53.77821648 256.12356744 54.75334548 249.86051993 54.53431702 240.8993988 C53.72403948 233.96187974 50.86431763 228.67275151 45.74916077 223.95018005 C37.38701563 217.54282209 28.3151207 217.23992518 18.21669006 217.24583435 C17.24662018 217.24235992 16.27655029 217.2388855 15.27708435 217.23530579 C13.17970026 217.22797985 11.08230857 217.22261771 8.98491478 217.21901512 C5.6588561 217.21181322 2.33294184 217.19611933 -0.99307251 217.17767334 C-10.44673195 217.1253754 -19.90030966 217.07723977 -29.35411072 217.06175232 C-35.14599641 217.05164411 -40.93751388 217.02225174 -46.72925377 216.98043251 C-48.92870989 216.96816292 -51.12821808 216.96299382 -53.32770729 216.96523094 C-56.41226346 216.96759667 -59.49577105 216.94532184 -62.58018494 216.91770935 C-63.47765945 216.92431076 -64.37513397 216.93091217 -65.29980469 216.93771362 C-75.72387682 216.78543503 -83.23010042 212.87797431 -90.67662048 205.7587738 C-99.02818795 196.75450834 -100.46476608 187.68260051 -100.17662048 175.80955505 C-99.637282 165.2536133 -94.48804107 158.44809131 -86.87583923 151.38768005 C-78.54473857 144.93145504 -70.80769677 144.09394927 -60.49571228 144.11643982 C-58.62876709 144.1085997 -58.62876709 144.1085997 -56.72410583 144.1006012 C-54.02474113 144.0903696 -51.32563061 144.08364422 -48.6262722 144.0827198 C-44.35121973 144.08077183 -40.07632777 144.0626782 -35.80133057 144.04196167 C-25.18212802 143.99286978 -14.56288198 143.96192664 -3.94358826 143.94065857 C4.30972972 143.92410333 12.5629095 143.90119808 20.81613511 143.85763782 C25.0587091 143.8359534 29.30101996 143.82779497 33.5436455 143.83003056 C36.81443679 143.82796067 40.08511539 143.80657781 43.35585022 143.78831482 C44.52031174 143.792892 45.68477325 143.79746918 46.88452148 143.80218506 C53.33050251 143.74508454 59.28232959 143.34306027 65.12416077 140.38768005 C69.71564965 135.68140395 70.47915257 132.31853281 70.40541077 125.9306488 C69.99234832 122.19587587 68.61541744 120.14826178 66.12416077 117.38768005 C60.9072599 113.40636097 55.25351015 113.26668213 48.8785553 113.24583435 C47.6635434 113.2387999 46.44853149 113.23176544 45.19670105 113.22451782 C43.2465358 113.21827141 43.2465358 113.21827141 41.25697327 113.2118988 C39.89465064 113.20145946 38.53233524 113.19003438 37.17002869 113.17767334 C31.40916602 113.12551062 25.64843826 113.0772565 19.88734436 113.06175232 C16.35289433 113.05162127 12.81904407 113.02217666 9.284832 112.98043251 C7.2998042 112.96229026 5.3146221 112.96475886 3.32951355 112.96768188 C-4.97908964 112.85549419 -10.69265116 112.05343545 -17.11802673 106.4228363 C-17.65685486 105.77185974 -18.19568298 105.12088318 -18.75083923 104.45018005 C-19.30513611 103.80178162 -19.85943298 103.15338318 -20.43052673 102.4853363 C-24.88880663 96.01480576 -24.69381139 88.98554516 -23.87583923 81.38768005 C-21.42574962 74.01638039 -16.76747579 69.89643947 -10.39146423 65.78611755 C-5.45012114 63.82056108 -0.83555581 63.93496451 4.43666077 63.88768005 C11.69078 63.82186173 18.49430266 63.65814657 25.12416077 60.38768005 C29.71564965 55.68140395 30.47915257 52.31853281 30.40541077 45.9306488 C29.99234832 42.19587587 28.61541744 40.14826178 26.12416077 37.38768005 C21.22621744 33.64977593 16.14777462 33.36929778 10.15541077 33.2118988 C9.25435608 33.18805115 8.35330139 33.16420349 7.42494202 33.13963318 C5.55798731 33.09666979 3.69072635 33.0654161 1.82337952 33.04588318 C-5.32683147 32.82595537 -9.22376484 31.17933731 -14.25083923 25.88768005 C-16.65404799 20.71153813 -16.74795051 15.99625772 -15.87583923 10.38768005 C-12.90792302 3.45443317 -7.50440624 0.01787726 0 0 Z " fill="#C5DDFE" transform="translate(115.87583923339844,15.612319946289063)"/>
<path d="M0 0 C4.24223701 9.94038968 7.72686128 19.88777817 10.375 30.375 C10.62523926 31.34759766 10.87547852 32.32019531 11.13330078 33.32226562 C12.80480256 40.19412422 13.5973612 46.94371622 14 54 C14.95777344 53.855625 15.91554688 53.71125 16.90234375 53.5625 C26.99430296 52.1270058 36.81567513 51.77312148 47 52 C47.85519209 79.71455861 43.47898109 109.26583311 28.8828125 133.36328125 C27.84175799 134.98344033 27.84175799 134.98344033 28 137 C29.24652344 137.40089844 30.49304688 137.80179688 31.77734375 138.21484375 C43.54004423 142.10517234 54.2464267 146.8570909 65 153 C63.84416201 158.25858522 60.61959006 161.14007499 57 165 C56.20916016 165.87011719 56.20916016 165.87011719 55.40234375 166.7578125 C48.19139591 174.37625863 39.49560322 180.31644854 30.5 185.625 C29.91275146 185.98005615 29.32550293 186.3351123 28.72045898 186.70092773 C26.38267234 188.03386144 24.59695204 189.01858642 21.8671875 188.93359375 C19.45857667 187.72928834 17.655879 186.20845421 15.625 184.4375 C8.29371092 178.37550873 -2.18681763 170.31754847 -12 171 C-15.02306437 172.08096217 -15.02306437 172.08096217 -18.125 173.625 C-39.87993005 183.4687662 -62.29848405 186.68078822 -86 186 C-83.14846766 182.66304802 -80.29206945 179.33235489 -77.39453125 176.03515625 C-53.20694947 148.18833365 -35.75990452 114.72031749 -38 77 C-39.88057178 62.04427167 -44.56102873 47.88580915 -51.7421875 34.6953125 C-52.36480469 33.36113281 -52.36480469 33.36113281 -53 32 C-51.5359647 29.0719294 -49.2026107 27.78303486 -46.578125 25.87890625 C-44.77365779 24.56383242 -42.99404864 23.2142781 -41.234375 21.83984375 C-12.39867886 0 -12.39867886 0 0 0 Z " fill="#F9A0AD" transform="translate(415,213)"/>
<path d="M0 0 C6.11485311 1.85662862 11.69691338 4.14410835 17.3125 7.1875 C18.04670166 7.58187256 18.78090332 7.97624512 19.53735352 8.38256836 C30.81209185 14.52895645 42.04795276 21.70474329 51 31 C49.6863016 35.20383487 48.06895403 39.05165815 46.125 43 C34.06083484 68.86439312 34.36789079 96.51328495 44 123 C52.09398835 144.73217123 65.42336963 163.28906231 81.29272461 180.00317383 C85 183.90884421 85 183.90884421 85 185 C59.01159748 185.54712426 34.48082614 181.74041307 11 170 C0.49989295 169.07395926 -8.9529685 177.34881 -16.68579102 183.71044922 C-21.84075037 187.90484188 -21.84075037 187.90484188 -25 188 C-39.05511961 182.55563438 -57.9763627 168.13522092 -66 155 C-65 152 -65 152 -62 150.203125 C-60.67258715 149.54009548 -59.33872104 148.88988984 -58 148.25 C-57.29391602 147.90437012 -56.58783203 147.55874023 -55.86035156 147.20263672 C-49.20705137 143.99599776 -42.40451473 141.18114291 -35.546875 138.4453125 C-32.95222677 137.38802192 -30.47024203 136.31152025 -28 135 C-28.50789063 134.05382812 -29.01578125 133.10765625 -29.5390625 132.1328125 C-40.63301376 110.99993094 -47.49297091 87.7247201 -47.125 63.75 C-47.11597656 62.61175781 -47.10695312 61.47351563 -47.09765625 60.30078125 C-47.0744028 57.53362119 -47.04172868 54.7669324 -47 52 C-24.19872014 51.58722095 -24.19872014 51.58722095 -15 54 C-14.99742187 53.40058594 -14.99484375 52.80117188 -14.9921875 52.18359375 C-14.28512292 35.61471373 -9.31055368 13.96583052 0 0 Z " fill="#F8A0AD" transform="translate(242,214)"/>
<path d="M0 0 C6.6767769 5.3840676 10.39138086 11.9903971 11.8125 20.375 C11.8125 21.695 11.8125 23.015 11.8125 24.375 C12.8025 23.88 12.8025 23.88 13.8125 23.375 C24.67849738 22.56433735 32.59078447 23.3756576 41.0625 30.4375 C48.06263256 37.11103228 51.41233031 44.4724971 52.0625 54.0625 C51.89901882 62.74335073 48.79453626 70.12590855 42.8125 76.375 C36.04326923 82.375 36.04326923 82.375 31.8125 82.375 C32.10125 82.99503906 32.39 83.61507812 32.6875 84.25390625 C36.65979943 93.72949551 37.71086682 103.95116771 34.3125 113.8125 C30.69348797 121.49810506 24.34950659 126.75143914 16.8125 130.375 C9.72336826 132.71172939 -0.2908909 132.62060932 -7.1875 129.75 C-11.34076082 127.55909581 -14.81957421 124.62380301 -18.1875 121.375 C-21.90441161 123.09303914 -24.82495417 125.3729386 -27.9921875 127.9375 C-35.41950587 132.80093979 -45.09088571 132.28701385 -53.58984375 131.015625 C-61.40014011 128.65177252 -68.22727512 121.66364201 -72.3125 114.8125 C-76.11600091 106.12265094 -75.33755809 95.62516136 -72.1875 86.875 C-71.54733513 85.36349962 -70.89127386 83.85795206 -70.1875 82.375 C-70.9196875 82.28089844 -71.651875 82.18679687 -72.40625 82.08984375 C-78.23649422 80.59133997 -82.66085899 75.75137516 -85.84375 70.796875 C-90.17502854 62.38613643 -91.48256208 54.44818632 -88.9375 45.25 C-86.01960301 36.34632366 -80.25127656 30.0519904 -72.1875 25.375 C-65.7468016 22.74614351 -59.06929172 22.96113001 -52.1875 23.375 C-51.5275 23.705 -50.8675 24.035 -50.1875 24.375 C-50.14882813 23.5396875 -50.14882813 23.5396875 -50.109375 22.6875 C-49.46341752 13.99643567 -46.31368456 7.64041603 -40.1875 1.375 C-28.19061922 -7.7618649 -12.53868658 -8.53294361 0 0 Z " fill="#FE1E32" transform="translate(451.1875,20.625)"/>
<path d="M0 0 C4.67708908 4.22928268 8.81537048 8.63261632 10 15 C10 16.32 10 17.64 10 19 C11.299375 18.773125 12.59875 18.54625 13.9375 18.3125 C20.20730954 17.65407173 25.05070958 18.95659983 30.23828125 22.55078125 C35.30645781 26.72947892 38.56611998 30.63058938 39.43359375 37.3671875 C39.44274259 45.58284266 39.18544713 51.75862262 33.24609375 57.77734375 C30.93947905 59.82392256 28.76293082 61.61853459 26 63 C26.495 64.36125 26.495 64.36125 27 65.75 C28.8450246 72.34128353 29.29710031 79.95095327 26.5 86.3125 C23.3421627 91.67634421 18.65471525 95.67264238 13.125 98.4375 C4.93272034 99.91211034 -1.78233364 99.41325612 -9 95 C-10.75390625 93.36328125 -10.75390625 93.36328125 -12 92 C-14.59229942 93.24430372 -17.07965579 94.61592763 -19.5625 96.0625 C-25.63286651 99.4839793 -31.37284359 99.90064294 -38.1875 98.57421875 C-44.98734321 96.40942491 -49.29776992 91.80044303 -52.9375 85.8125 C-55.07215247 78.15286468 -54.71040502 70.4536138 -52 63 C-52.886875 62.46375 -53.77375 61.9275 -54.6875 61.375 C-59.62007881 58.07495318 -63.34435943 53.79474199 -65 48 C-66.43697472 40.69537848 -65.85235993 35.37394129 -62.25 28.8125 C-57.47088189 22.83860236 -52.58856958 19.35155896 -45 18 C-41.87787968 18.05203534 -39.09232448 18.46007033 -36 19 C-35.9175 17.80375 -35.835 16.6075 -35.75 15.375 C-34.86857961 8.60950293 -30.92326588 4.41371578 -25.77734375 0.2578125 C-18.64706689 -4.78822958 -7.34901364 -4.67397267 0 0 Z " fill="#FE1E32" transform="translate(85,389)"/>
<path d="M0 0 C3.69581822 1.03629643 5.62952383 2.50428014 8.5234375 5.0078125 C9.47605469 5.82636719 10.42867188 6.64492188 11.41015625 7.48828125 C12.76560547 8.67357422 12.76560547 8.67357422 14.1484375 9.8828125 C14.87675781 10.47707031 15.60507812 11.07132812 16.35546875 11.68359375 C27.5824495 20.96190723 37.24513763 34.44496915 39.484375 49.078125 C39.79253413 64.30118614 31.56564705 76.67233129 21.63647461 87.45092773 C15.53622994 93.79430939 8.45496676 99.01179299 1.1484375 103.8828125 C-8.96864582 103.19832336 -19.1426924 91.7306237 -25.8515625 84.8828125 C-34.68735932 74.75731863 -41.35235616 63.14957875 -41.125 49.39453125 C-39.42553257 33.78370899 -27.89439703 19.4405592 -16.203125 9.8203125 C-3.74458005 -0.15388685 -3.74458005 -0.15388685 0 0 Z " fill="#F9A0AD" transform="translate(328.8515625,400.1171875)"/>
<path d="M0 0 C11.39563792 -0.53696723 21.03968524 0.37174875 29.9921875 7.9765625 C37.05205906 15.09137469 40.00465746 22.39889789 40.375 32.375 C40.26344736 38.46159069 39.16066852 42.82083601 36 48 C35.57589844 48.69867188 35.15179688 49.39734375 34.71484375 50.1171875 C29.91551305 57.20255037 23.26397444 61.81428398 15 64 C11.29895883 64.27686557 7.60833552 64.25324301 3.8984375 64.23828125 C1.69400431 64.25370779 -0.51042288 64.27001192 -2.71484375 64.28710938 C-6.16403525 64.30350613 -9.61278473 64.31252516 -13.06201172 64.30541992 C-34.98737038 64.08326406 -34.98737038 64.08326406 -53.3203125 75.1171875 C-56.05073972 78.17780592 -58.13175904 81.3555148 -60 85 C-60.3196875 85.59167969 -60.639375 86.18335938 -60.96875 86.79296875 C-64.4256953 94.29902127 -64.16342609 102.92587786 -61.93359375 110.734375 C-57.18192109 122.80129304 -50.69277303 128.86949755 -39 134 C-37.66304856 134.65938081 -36.32842274 135.32360127 -35 136 C-48.806902 136.546808 -59.86300078 136.30047251 -70.93359375 126.97265625 C-79.08821558 119.18799836 -84.23624502 109.76712308 -85.02734375 98.3671875 C-84.88983101 86.46251324 -80.98636356 75.91353729 -72.875 67.125 C-65.72581975 60.44919501 -56.76844681 55.93217832 -46.93115234 55.82641602 C-45.92265228 55.81292618 -44.91415222 55.79943634 -43.87509155 55.78553772 C-42.78967072 55.77509933 -41.70424988 55.76466095 -40.5859375 55.75390625 C-38.27473601 55.72095294 -35.96353818 55.68774155 -33.65234375 55.65429688 C-30.01874438 55.60702138 -26.38515826 55.56261019 -22.75146484 55.52319336 C-19.23779578 55.48321634 -15.72443389 55.4317209 -12.2109375 55.37890625 C-11.13766205 55.3704921 -10.0643866 55.36207794 -8.95858765 55.35340881 C1.79215526 55.17926868 11.38484206 54.23616452 19.5 46.5859375 C25.65405572 39.73588739 26.62918472 33.47283988 26.41015625 24.51171875 C25.59987872 17.57419969 22.74015686 12.28507146 17.625 7.5625 C12.21573128 3.41773565 6.74683601 1.68845265 0 1 C0 0.67 0 0.34 0 0 Z " fill="#D5E6FF" transform="translate(144,232)"/>
<path d="M0 0 C7.4260193 17.40061326 13.62361216 35.92900097 14 55 C13.351521 55.15033691 12.70304199 55.30067383 12.03491211 55.45556641 C-4.30441251 59.28326476 -19.3259177 63.38730628 -33.92578125 71.8984375 C-36 73 -36 73 -38 73 C-38.36351562 71.71029297 -38.36351562 71.71029297 -38.734375 70.39453125 C-39.62984095 67.23629172 -40.53682571 64.08173269 -41.44873047 60.92822266 C-41.94896886 59.178496 -42.43063073 57.42348494 -42.91015625 55.66796875 C-45.04721528 48.16513381 -48.01908488 41.63678905 -51.70703125 34.80078125 C-52.13371094 33.87652344 -52.56039063 32.95226562 -53 32 C-51.5359647 29.0719294 -49.2026107 27.78303486 -46.578125 25.87890625 C-44.77365779 24.56383242 -42.99404864 23.2142781 -41.234375 21.83984375 C-12.39867886 0 -12.39867886 0 0 0 Z " fill="#F98F9E" transform="translate(415,213)"/>
<path d="M0 0 C6.11485311 1.85662862 11.69691338 4.14410835 17.3125 7.1875 C18.04670166 7.58187256 18.78090332 7.97624512 19.53735352 8.38256836 C30.81209185 14.52895645 42.04795276 21.70474329 51 31 C49.6863016 35.20383487 48.06895403 39.05165815 46.125 43 C42.92885171 49.82104819 40.85480558 56.7145377 39 64 C38.773125 64.87785156 38.54625 65.75570312 38.3125 66.66015625 C37.86131801 68.43668535 37.42775555 70.21768521 37 72 C33.01471913 70.48037888 29.25672617 68.64467756 25.4375 66.75 C12.68939425 60.63708001 -1.2680054 57.18180363 -15 54 C-14.92691043 37.00667544 -9.51991632 14.27987448 0 0 Z " fill="#F88F9E" transform="translate(242,214)"/>
<path d="M0 0 C16.24380293 -0.82131588 16.24380293 -0.82131588 22 4 C27.00833254 9.47064016 29.38672035 14.06152278 29.27734375 21.5234375 C28.64804283 27.14282884 26.3546949 32.14190536 22.125 35.9375 C15.23103627 40.48751606 8.81361557 40.28405043 0.8034668 40.25537109 C-0.42165619 40.25899155 -1.64677917 40.262612 -2.9090271 40.26634216 C-5.56583348 40.2732285 -8.22238597 40.27662893 -10.87917519 40.27439499 C-15.08701515 40.27155111 -19.29468868 40.28595442 -23.50248718 40.30337524 C-35.46509304 40.35029789 -47.42768701 40.3743337 -59.39038086 40.38085938 C-66.0036907 40.38461912 -72.61681145 40.40272067 -79.23004025 40.43595374 C-83.40579463 40.4560838 -87.58105852 40.45857974 -91.7568413 40.44767356 C-94.97639675 40.44443621 -98.19579149 40.46719587 -101.4152832 40.48583984 C-102.56104324 40.47766739 -103.70680328 40.46949493 -104.88728333 40.46107483 C-115.04377083 40.56547653 -123.68938276 43.75309184 -131 51 C-137.21645673 59.86963429 -138.37594984 69.39530375 -137 80 C-134.55578208 88.01811708 -130.13856251 94.51967843 -123 99 C-119.73212682 100.56391074 -116.43920404 101.86534457 -113 103 C-113 103.33 -113 103.66 -113 104 C-125.20942748 104.58605252 -133.73110404 103.90827685 -143.3125 95.75 C-150.01026943 89.34663802 -154.83448023 82.33116884 -155.3359375 72.828125 C-155.60343862 59.51379878 -153.85515432 51.11932808 -144.37109375 41.19921875 C-135.62545649 33.08753213 -127.26406148 31.70336366 -115.61987305 31.72875977 C-114.37524292 31.72353302 -113.13061279 31.71830627 -111.8482666 31.71292114 C-109.1489019 31.70268955 -106.44979137 31.69596417 -103.75043297 31.69503975 C-99.4753805 31.69309178 -95.20048854 31.67499814 -90.92549133 31.65428162 C-80.30628878 31.60518973 -69.68704275 31.57424658 -59.06774902 31.55297852 C-50.81443105 31.53642328 -42.56125126 31.51351802 -34.30802566 31.46995777 C-30.06545167 31.44827335 -25.8231408 31.44011492 -21.58051527 31.44235051 C-18.30972398 31.44028061 -15.03904538 31.41889775 -11.76831055 31.40063477 C-10.02161827 31.40750053 -10.02161827 31.40750053 -8.23963928 31.414505 C-1.79365826 31.35740449 4.15816882 30.95538022 10 28 C14.59148889 23.29372389 15.35499181 19.93085276 15.28125 13.54296875 C14.86818756 9.80819582 13.49125668 7.76058172 11 5 C7.46329835 2.30093822 4.39113287 1.51059685 0 1 C0 0.67 0 0.34 0 0 Z " fill="#D5E6FF" transform="translate(171,128)"/>
<path d="M0 0 C6.89958312 1.136466 13.03917182 2.94721304 19.4375 5.75 C20.25645752 6.10126953 21.07541504 6.45253906 21.91918945 6.81445312 C28.15457705 9.52961548 34.14687348 12.52758337 40 16 C39.09383636 21.23948465 35.5250099 24.24093512 32 28 C31.47277344 28.58007812 30.94554687 29.16015625 30.40234375 29.7578125 C23.19139591 37.37625863 14.49560322 43.31644854 5.5 48.625 C4.6191272 49.15758423 4.6191272 49.15758423 3.72045898 49.70092773 C1.38267234 51.03386144 -0.40304796 52.01858642 -3.1328125 51.93359375 C-5.54142333 50.72928834 -7.344121 49.20845421 -9.375 47.4375 C-16.54173174 41.51854745 -24.66101126 37.06679747 -33 33 C-33 32.34 -33 31.68 -33 31 C-31.41775101 29.91408387 -29.78079588 28.9075854 -28.125 27.9375 C-17.07325046 21.07974772 -6.4518621 11.407054 0 0 Z " fill="#F98F9E" transform="translate(440,350)"/>
<path d="M0 0 C2.203125 2.0546875 2.203125 2.0546875 4.25 4.875 C11.31976929 14.05040773 18.58447937 21.21669912 28.5300293 27.13330078 C30.04832377 28.04322383 31.52851173 29.01618075 33 30 C33 30.66 33 31.32 33 32 C32.06800781 32.46148437 31.13601562 32.92296875 30.17578125 33.3984375 C22.60973836 37.23886064 15.76118229 41.3391717 9.21411133 46.76123047 C4.16452314 50.89873526 4.16452314 50.89873526 1 51 C-13.05511961 45.55563438 -31.9763627 31.13522092 -40 18 C-39 15 -39 15 -36 13.203125 C-34.67279011 12.5396893 -33.33890126 11.88951266 -32 11.25 C-31.29246582 10.90582031 -30.58493164 10.56164062 -29.85595703 10.20703125 C-24.58471661 7.67850301 -19.25611734 5.2848395 -13.875 3 C-13.17761719 2.69739258 -12.48023438 2.39478516 -11.76171875 2.08300781 C-7.71848851 0.4152731 -4.35882465 -0.7735379 0 0 Z " fill="#F88F9E" transform="translate(216,351)"/>
<path d="M0 0 C0 0.66 0 1.32 0 2 C-0.56847656 2.27972656 -1.13695312 2.55945312 -1.72265625 2.84765625 C-9.56989057 6.92192983 -16.03008715 11.82903345 -19.33203125 20.29296875 C-21.73038992 30.01263285 -20.72778118 38.80257248 -15.77734375 47.46875 C-11.85195421 53.05919488 -7.24266953 56.25931582 -1 59 C-1.61966636 61.74337729 -2.39509875 63.88502121 -3.5625 66.5 C-6.24693855 73.64964327 -5.9749971 81.20168458 -3.3125 88.3125 C0.59246879 96.78682463 5.01959273 101.17289972 13 106 C13.99 106.66 14.98 107.32 16 108 C4.66125831 108.39862764 -3.15145919 108.43661892 -12.1875 100.9375 C-18.66412558 94.71035922 -22.0899733 89.29031298 -22.53271484 80.14868164 C-22.64168878 72.51604007 -21.28635535 65.92482021 -18 59 C-18.7321875 58.90589844 -19.464375 58.81179687 -20.21875 58.71484375 C-26.04899422 57.21633997 -30.47335899 52.37637516 -33.65625 47.421875 C-37.98752854 39.01113643 -39.29506208 31.07318632 -36.75 21.875 C-33.83210301 12.97132366 -28.06377656 6.6769904 -20 2 C-13.49250411 -0.65612077 -6.94334441 -0.18794015 0 0 Z " fill="#FF4F63" transform="translate(399,44)"/>
<path d="M0 0 C-0.51949219 0.3403125 -1.03898437 0.680625 -1.57421875 1.03125 C-7.21271771 4.95005889 -11.78444193 9.20126704 -13.5234375 16.06640625 C-13.86624444 18.17025736 -13.86624444 18.17025736 -14 21 C-14.845625 20.95359375 -15.69125 20.9071875 -16.5625 20.859375 C-23.60377573 20.63533441 -29.28751031 20.54972329 -35 25 C-40.24358851 29.95032293 -43.01624734 34.47404759 -43.375 41.75 C-43.2170403 47.99405402 -41.56928936 53.22049605 -37.28125 57.859375 C-34.54791857 60.2915767 -32.50132066 61.83289311 -29 63 C-29.49309807 65.21894132 -30.04144683 67.08289367 -31.0625 69.125 C-33.10978573 75.40334292 -32.70464058 81.20951998 -30.0625 87.25 C-27.19489759 92.50450846 -23.19199039 95.21736463 -18 98 C-22.70069851 101.13379901 -27.73736138 100.64087544 -33.1875 99.5703125 C-39.98871143 97.4183667 -44.30067368 92.79566589 -47.9375 86.8125 C-50.07215247 79.15286468 -49.71040502 71.4536138 -47 64 C-47.886875 63.46375 -48.77375 62.9275 -49.6875 62.375 C-54.62007881 59.07495318 -58.34435943 54.79474199 -60 49 C-61.43697472 41.69537848 -60.85235993 36.37394129 -57.25 29.8125 C-52.47088189 23.83860236 -47.58856958 20.35155896 -40 19 C-36.87787968 19.05203534 -34.09232448 19.46007033 -31 20 C-30.9175 18.80375 -30.835 17.6075 -30.75 16.375 C-29.86857961 9.60950293 -25.92326588 5.41371578 -20.77734375 1.2578125 C-14.97992393 -2.84497691 -5.99458847 -3.99639232 0 0 Z " fill="#FF4F63" transform="translate(80,388)"/>
<path d="M0 0 C1.17618393 -0.00990463 2.35236786 -0.01980927 3.56419373 -0.03001404 C4.84589447 -0.02551239 6.12759521 -0.02101074 7.44813538 -0.01637268 C8.81843624 -0.02207808 10.18873236 -0.02904301 11.559021 -0.03717041 C15.27395399 -0.05509859 18.98865074 -0.05393412 22.703614 -0.04822803 C25.80749158 -0.04513559 28.91132382 -0.05122925 32.01519495 -0.05726677 C39.33890884 -0.07130933 46.66250607 -0.06975305 53.98622131 -0.05836487 C61.53612313 -0.04688423 69.08566969 -0.06095879 76.63552469 -0.08776134 C83.12316446 -0.10992872 89.6106928 -0.11655339 96.09836775 -0.11068493 C99.97072422 -0.10731656 103.84285299 -0.10972222 107.71517754 -0.12693596 C111.35722695 -0.14241973 114.99875074 -0.13843431 118.6407795 -0.11963081 C120.61006109 -0.11419652 122.57936635 -0.12844823 124.54859924 -0.14332581 C135.30095444 -0.0536398 135.30095444 -0.0536398 140.12416077 4.38768005 C143.93049266 8.39434521 144.36158242 11.41688285 144.37416077 16.76268005 C144.31026616 18.63844308 144.23330686 20.51400544 144.12416077 22.38768005 C143.79416077 22.38768005 143.46416077 22.38768005 143.12416077 22.38768005 C143.01459045 21.77279724 142.90502014 21.15791443 142.79212952 20.5243988 C142.63357483 19.71615662 142.47502014 18.90791443 142.31166077 18.07518005 C142.0854303 16.87441833 142.0854303 16.87441833 141.85462952 15.6493988 C141.03037244 13.09728731 140.21690436 12.03451218 138.12416077 10.38768005 C135.1211911 9.38669017 133.11398917 9.2549725 129.97563171 9.24050903 C128.91013596 9.23335373 127.8446402 9.22619843 126.74685669 9.21882629 C124.99350258 9.21479294 124.99350258 9.21479294 123.20472717 9.2106781 C121.9736171 9.2041069 120.74250702 9.19753571 119.47409058 9.19076538 C115.39129901 9.17101898 111.30854671 9.15936685 107.22572327 9.1493988 C105.81951757 9.14535067 104.41331207 9.14123373 103.00710678 9.13704872 C96.40178845 9.11800414 89.79648127 9.10377029 83.19114077 9.09543675 C75.5678217 9.08565974 67.94479263 9.05932538 60.32157576 9.01893586 C54.42764051 8.98878027 48.53378844 8.97396852 42.63977754 8.97065574 C39.12005323 8.96830503 35.600639 8.95934219 32.08099747 8.93419456 C28.15469815 8.90659349 24.22878108 8.91074331 20.30238342 8.91770935 C19.13752914 8.90489929 17.97267487 8.89208923 16.77252197 8.87889099 C10.54940509 8.8707008 10.54940509 8.8707008 4.9450531 11.29986572 C2.28495858 14.34989968 1.27560483 16.22660887 0.74916077 20.26268005 C1.23228865 24.28874571 2.52707339 26.29925182 5.12416077 29.38768005 C7.7285331 30.7995857 7.7285331 30.7995857 10.12416077 31.38768005 C10.12416077 31.71768005 10.12416077 32.04768005 10.12416077 32.38768005 C7.58132842 32.49639973 5.04320989 32.57530407 2.49916077 32.63768005 C1.7863092 32.67119568 1.07345764 32.7047113 0.33900452 32.73924255 C-4.88964618 32.8351811 -7.70180348 31.79150683 -11.87583923 28.38768005 C-15.46853802 24.60589185 -16.20408667 21.52143143 -16.43833923 16.45018005 C-16.26998814 11.60407347 -15.48523599 8.56702267 -12.45787048 4.7900238 C-8.48552777 1.26886075 -5.29520217 0.01261442 0 0 Z " fill="#D5E7FF" transform="translate(115.87583923339844,15.612319946289063)"/>
<path d="M0 0 C16.24380293 -0.82131588 16.24380293 -0.82131588 22 4 C27.00833254 9.47064016 29.38672035 14.06152278 29.27734375 21.5234375 C28.64804283 27.14282884 26.3546949 32.14190536 22.125 35.9375 C15.0377518 40.61508381 8.07773758 40.34401854 -0.125 40.390625 C-6.89670915 40.56626011 -12.59170415 41.72809775 -17.61669922 46.55200195 C-21.75421361 51.28375825 -22.29845383 56.89925259 -22 63 C-20.90257994 68.68925664 -18.43826011 72.22747891 -14 76 C-11.08235 77.9451 -9.37462715 78.45276317 -6 79 C-6 79.33 -6 79.66 -6 80 C-24.26640108 80.79804665 -24.26640108 80.79804665 -30 76 C-35.03509743 71.18600466 -38.55753947 66.85639283 -39.37109375 59.765625 C-39.53649946 51.00885226 -38.64895345 44.94808182 -32.54296875 38.44921875 C-25.67454717 32.30569654 -19.5144357 31.57916534 -10.6875 31.5 C-3.43338077 31.43418168 3.37014189 31.27046652 10 28 C14.59148889 23.29372389 15.35499181 19.93085276 15.28125 13.54296875 C14.86818756 9.80819582 13.49125668 7.76058172 11 5 C7.46329835 2.30093822 4.39113287 1.51059685 0 1 C0 0.67 0 0.34 0 0 Z " fill="#D5E6FF" transform="translate(131,48)"/>
<path d="M0 0 C5.67476113 1.96434039 9.31400331 5.62800662 12 11 C12.85895445 16.91451492 12.08033922 21.3682911 8.6171875 26.26953125 C4.92992877 30.21507622 0.78131305 31.6761249 -4.4375 32.625 C-10.64701716 31.53561102 -15.35116262 28.2484146 -19.0625 23.1875 C-20.72560404 17.53294627 -21.02508474 13.01220339 -18.3125 7.6875 C-12.67021809 1.13025345 -8.44204537 -0.77005144 0 0 Z " fill="#FEC401" transform="translate(436,72)"/>
<path d="M0 0 C0.495 6.435 0.495 6.435 1 13 C-0.55847656 13.36351562 -2.11695313 13.72703125 -3.72265625 14.1015625 C-19.13650251 17.77334722 -33.14741341 21.86620512 -46.92578125 29.8984375 C-49 31 -49 31 -51 31 C-53.59973667 21.9773845 -53.59973667 21.9773845 -52 18 C-49.63780028 16.40366972 -47.56252133 15.23801247 -45 14.0625 C-44.28376465 13.72186523 -43.5675293 13.38123047 -42.82958984 13.03027344 C-30.29729454 7.21005185 -14.04521632 0 0 0 Z " fill="#F47F95" transform="translate(428,255)"/>
<path d="M0 0 C14.09819059 1.3571534 26.638342 4.96233349 39.625 10.5625 C40.275896 10.84311279 40.92679199 11.12372559 41.59741211 11.4128418 C45.72211193 13.25896248 49.32009873 15.41274634 53 18 C52.85904936 19.6254308 52.71207913 21.25034051 52.5625 22.875 C52.48128906 23.77992188 52.40007812 24.68484375 52.31640625 25.6171875 C52 28 52 28 51 30 C47.01471913 28.48037888 43.25672617 26.64467756 39.4375 24.75 C26.66761502 18.62663652 12.73349611 15.25267013 -1 12 C-0.67 8.04 -0.34 4.08 0 0 Z " fill="#F38095" transform="translate(228,256)"/>
<path d="M0 0 C1.6256807 0.30893932 3.25052748 0.6222695 4.875 0.9375 C5.77992188 1.11152344 6.68484375 1.28554688 7.6171875 1.46484375 C10 2 10 2 12 3 C7.05343893 16.73224417 -7.03943336 31.45915329 -20 38 C-23.509068 37.76892814 -26.22400463 36.56026875 -29.3125 34.9375 C-30.00988281 34.57527344 -30.70726562 34.21304688 -31.42578125 33.83984375 C-31.94527344 33.56269531 -32.46476562 33.28554688 -33 33 C-33 32.34 -33 31.68 -33 31 C-31.41775101 29.91408387 -29.78079588 28.9075854 -28.125 27.9375 C-17.07325046 21.07974772 -6.4518621 11.407054 0 0 Z " fill="#F47F95" transform="translate(440,350)"/>
<path d="M0 0 C2.203125 2.0546875 2.203125 2.0546875 4.25 4.875 C11.31976929 14.05040773 18.58447937 21.21669912 28.5300293 27.13330078 C30.04832377 28.04322383 31.52851173 29.01618075 33 30 C33 30.66 33 31.32 33 32 C31.42466914 32.86883706 29.83935491 33.71959068 28.25 34.5625 C27.36828125 35.03816406 26.4865625 35.51382813 25.578125 36.00390625 C23 37 23 37 21.0234375 36.8984375 C6.75181571 30.56161701 -3.75720932 16.7026581 -12 4 C-11 2 -11 2 -8.8125 0.875 C-5.57359452 -0.13265948 -3.37774293 -0.39286011 0 0 Z " fill="#F47F95" transform="translate(216,351)"/>
<path d="M0 0 C-0.56847656 0.15855469 -1.13695312 0.31710938 -1.72265625 0.48046875 C-10.90391472 3.25477223 -15.96057663 6.83865899 -20.7109375 15.28515625 C-22.67645774 19.424661 -23.85961901 23.56518506 -25 28 C-30.28 28 -35.56 28 -41 28 C-40.40780139 18.52482223 -37.73483579 11.88790024 -31 5 C-22.71051799 -1.31329748 -9.68506233 -5.82490622 0 0 Z " fill="#FF4F63" transform="translate(442,17)"/>
<path d="M0 0 C3.3258409 2.062783 6.23502468 4.47004936 8 8 C8.37838031 13.01353911 8.13135639 16.00482115 5 20 C2.03139103 23.13824377 0.43209585 23.93030712 -3.875 24.625 C-8.19954173 24.41985096 -10.55101375 22.46660462 -13.65234375 19.60546875 C-15.71006082 17.15410146 -16.0156376 14.88383497 -16.4375 11.75 C-15.8560227 6.76590888 -13.62718402 4.32648483 -10 1 C-6.7374887 -0.63125565 -3.5120384 -0.68851113 0 0 Z " fill="#FEC200" transform="translate(76,428)"/>
<path d="M0 0 C3 2.0625 3 2.0625 5 5 C5.1526226 9.3497442 4.71471806 11.2257221 1.75 14.4375 C-1.32552706 16.18495855 -2.55894843 16.86026289 -6 16 C-8.35737558 13.8988609 -9.65374095 12.72825949 -11 10 C-11 6.42896064 -10.66890244 4.15199865 -8.875 1.0625 C-5.76581435 -0.69937187 -3.49155423 -0.48159369 0 0 Z " fill="#FFD746" transform="translate(435,80)"/>
<path d="M0 0 C4.55555556 0.55555556 4.55555556 0.55555556 6 2 C6.08713831 3.70772358 6.10700007 5.41898649 6.09765625 7.12890625 C6.09443359 8.16337891 6.09121094 9.19785156 6.08789062 10.26367188 C6.07951172 11.35228516 6.07113281 12.44089844 6.0625 13.5625 C6.05798828 14.65498047 6.05347656 15.74746094 6.04882812 16.87304688 C6.03699826 19.58208495 6.02051543 22.29101599 6 25 C3.36 25 0.72 25 -2 25 C-2.05786668 21.20839703 -2.09355054 17.41690689 -2.125 13.625 C-2.14175781 12.54476562 -2.15851563 11.46453125 -2.17578125 10.3515625 C-2.18222656 9.3203125 -2.18867188 8.2890625 -2.1953125 7.2265625 C-2.20578613 6.27346191 -2.21625977 5.32036133 -2.22705078 4.33837891 C-2 2 -2 2 0 0 Z " fill="#E10100" transform="translate(430,47)"/>
<path d="M0 0 C0.33 1.65 0.66 3.3 1 5 C-2.61285943 8.21667119 -6.52331762 9.33514233 -11.0625 10.6875 C-11.78244141 10.91244141 -12.50238281 11.13738281 -13.24414062 11.36914062 C-16.25930869 12.29020868 -18.83011728 13 -22 13 C-22.66 10.69 -23.32 8.38 -24 6 C-5.05221519 -1.79272152 -5.05221519 -1.79272152 0 0 Z " fill="#E20102" transform="translate(470,73)"/>
<path d="M0 0 C3.465 1.98 3.465 1.98 7 4 C4.53234751 8.7207265 1.65797666 13.10549588 -1.4375 17.4375 C-2.17871094 18.48808594 -2.91992188 19.53867188 -3.68359375 20.62109375 C-6 23 -6 23 -8.72265625 23.41015625 C-11 23 -11 23 -12 22 C-11.81191374 15.58053434 -9.33048909 12.01500422 -5.4375 7.0625 C-4.91736328 6.37865234 -4.39722656 5.69480469 -3.86132812 4.99023438 C-2.58632575 3.31752484 -1.29480135 1.65743105 0 0 Z " fill="#E20201" transform="translate(419,98)"/>
<path d="M0 0 C2.27859817 0.78539344 4.54720834 1.59465381 6.81396484 2.41357422 C7.60222656 2.69523437 8.39048828 2.97689453 9.20263672 3.26708984 C11.13668773 3.9586596 13.06922972 4.654447 15.00146484 5.35107422 C14.34146484 7.66107422 13.68146484 9.97107422 13.00146484 12.35107422 C5.88551788 11.68912566 -3.17499872 10.30312699 -8.90087891 5.88232422 C-9.99853516 4.35107422 -9.99853516 4.35107422 -9.81103516 1.72607422 C-8.08306027 -3.3249293 -4.13282841 -1.34193231 0 0 Z " fill="#E20101" transform="translate(402.99853515625,73.64892578125)"/>
<path d="M0 0 C3.37756835 3.16840701 6.09903127 6.65965368 8.75 10.4375 C9.16121094 10.99759766 9.57242187 11.55769531 9.99609375 12.13476562 C12.37289914 15.51835735 13.63451199 17.83790351 13 22 C12 23 12 23 9.62988281 23.2746582 C7 23 7 23 5.34667969 21.57885742 C4.64140137 20.60203003 4.64140137 20.60203003 3.921875 19.60546875 C3.40109375 18.89712891 2.8803125 18.18878906 2.34375 17.45898438 C1.8178125 16.70939453 1.291875 15.95980469 0.75 15.1875 C0.20859375 14.44951172 -0.3328125 13.71152344 -0.890625 12.95117188 C-4.8300555 7.50983349 -4.8300555 7.50983349 -6 4 C-4.02 2.68 -2.04 1.36 0 0 Z " fill="#E10101" transform="translate(444,98)"/>
<path d="M0 0 C4.1381654 3.89474391 8.18956844 8.02152123 11 13 C10.875 16 10.875 16 10 18 C8.35 18.33 6.7 18.66 5 19 C3.70069021 17.44384991 2.41085862 15.8797832 1.125 14.3125 C0.40570313 13.44238281 -0.31359375 12.57226562 -1.0546875 11.67578125 C-2.88932376 9.1522354 -3.99467229 6.93661514 -5 4 C-3.35 2.68 -1.7 1.36 0 0 Z " fill="#E20201" transform="translate(81,447)"/>
<path d="M0 0 C1.98 1.32 3.96 2.64 6 4 C4.59601721 8.10110762 2.62912962 10.98089159 -0.125 14.3125 C-0.84945312 15.19550781 -1.57390625 16.07851563 -2.3203125 16.98828125 C-2.87460937 17.65214844 -3.42890625 18.31601562 -4 19 C-5.65 18.67 -7.3 18.34 -9 18 C-9.7734375 15.890625 -9.7734375 15.890625 -10 13 C-8.61898565 10.68459722 -7.31765209 8.80536326 -5.625 6.75 C-5.19960938 6.20859375 -4.77421875 5.6671875 -4.3359375 5.109375 C-1.42633929 1.42633929 -1.42633929 1.42633929 0 0 Z " fill="#E20201" transform="translate(62,447)"/>
<path d="M0 0 C6.30549215 0.45858125 12.00442055 2.04652227 18 4 C17.34 6.64 16.68 9.28 16 12 C9.50476013 10.76281145 3.94098468 8.89324549 -2 6 C-1.125 1.125 -1.125 1.125 0 0 Z " fill="#E20102" transform="translate(44,428)"/>
<path d="M0 0 C4.55555556 0.55555556 4.55555556 0.55555556 6 2 C6.07325168 4.86267567 6.09238205 7.700719 6.0625 10.5625 C6.05798828 11.36880859 6.05347656 12.17511719 6.04882812 13.00585938 C6.03700518 15.00393756 6.01906914 17.00197783 6 19 C3.36 19 0.72 19 -2 19 C-2.05380578 16.20807795 -2.09357669 13.4171859 -2.125 10.625 C-2.14175781 9.8309375 -2.15851563 9.036875 -2.17578125 8.21875 C-2.19335473 6.14507985 -2.10335168 4.07116759 -2 2 C-1.34 1.34 -0.68 0.68 0 0 Z " fill="#E10000" transform="translate(70,409)"/>
<path d="M0 0 C0.66 0.66 1.32 1.32 2 2 C1.63318342 4.93453261 1.13562754 5.86437246 -1 8 C-3.14440538 8.77311457 -5.31582595 9.47264713 -7.5 10.125 C-9.24796875 10.65480469 -9.24796875 10.65480469 -11.03125 11.1953125 C-14 12 -14 12 -16 12 C-16.66 9.36 -17.32 6.72 -18 4 C-16.1291122 3.32187886 -14.25305707 2.6580054 -12.375 2 C-11.33085938 1.62875 -10.28671875 1.2575 -9.2109375 0.875 C-5.94019897 -0.01629614 -3.37030067 -0.3090247 0 0 Z " fill="#E20101" transform="translate(100,428)"/>
<path d="M0 0 C2.625 0.375 2.625 0.375 5 1 C5.625 3.375 5.625 3.375 6 6 C5.34 6.66 4.68 7.32 4 8 C1.375 7.625 1.375 7.625 -1 7 C-1.625 4.625 -1.625 4.625 -2 2 C-1.34 1.34 -0.68 0.68 0 0 Z " fill="#FFD644" transform="translate(70,436)"/>
</svg>
