<?xml version="1.0" encoding="UTF-8"?>
<svg version="1.1" xmlns="http://www.w3.org/2000/svg" width="512" height="512">
<path d="M0 0 C4.91942058 2.36860991 7.37480691 5.2652461 10 10 C10.37224313 12.88665041 10.53987812 15.37495063 10.49609375 18.25 C10.49754898 19.02633789 10.49900421 19.80267578 10.50050354 20.60253906 C10.49885091 22.23636648 10.48736106 23.8702105 10.46655273 25.50390625 C10.43758304 27.99286591 10.4459591 30.47969384 10.45898438 32.96875 C10.45274623 34.56251026 10.44435469 36.15626386 10.43359375 37.75 C10.43652939 38.48766602 10.43946503 39.22533203 10.44248962 39.98535156 C10.35705818 44.70629509 9.6113219 48.04508878 7 52 C4.89231873 53.16308594 4.89231873 53.16308594 3 54 C2.80488883 61.5983783 2.68781496 69.19473761 2.66578102 76.79552746 C2.65318812 80.32704905 2.61542821 83.85427699 2.51660156 87.38452148 C1.33717237 103.92246915 1.33717237 103.92246915 7.06274414 118.69921875 C9.88315164 121.5782452 12.93980032 123.88255276 16.37117004 125.98472595 C18.51088961 127.31844513 20.33164549 128.9253032 22.1875 130.625 C23.08275391 131.40037109 23.08275391 131.40037109 23.99609375 132.19140625 C26.64582991 134.58288353 29.20797428 137.05781382 31.75 139.5625 C32.65234375 140.45066406 33.5546875 141.33882812 34.484375 142.25390625 C37.01136402 145.01240513 38.96162825 147.87141803 41 151 C41.12699773 144.27413135 41.21443406 137.54857299 41.2746582 130.82177734 C41.29976942 128.53455043 41.33386516 126.2474035 41.37719727 123.96044922 C41.43799581 120.66874435 41.4662444 117.3781023 41.48828125 114.0859375 C41.51408768 113.06696381 41.5398941 112.04799011 41.56648254 110.99813843 C41.59205273 104.74388318 41.59205273 104.74388318 38.53198242 99.49462891 C37.69642822 98.67140137 36.86087402 97.84817383 36 97 C34.81414637 93.44243912 34.81906729 90.18487196 34.796875 86.48046875 C34.79117493 85.74427811 34.78547485 85.00808746 34.77960205 84.24958801 C34.77016244 82.69204134 34.76362219 81.1344748 34.75976562 79.5769043 C34.75007769 77.20650914 34.71905325 74.83698797 34.6875 72.46679688 C34.68096759 70.95052596 34.67571805 69.43424887 34.671875 67.91796875 C34.6595282 67.21463913 34.6471814 66.51130951 34.63446045 65.78666687 C34.66249727 59.52208397 36.39663556 55.67793953 40.6875 51.1875 C44.60519102 48.60034555 47.33602908 47.70304305 52 48 C56.4120363 48.9144948 59.27604923 50.25748639 62.4375 53.5 C65.19911217 57.91857947 65.18872471 61.90439272 65.23828125 66.95703125 C65.246353 67.73761398 65.25442474 68.51819672 65.26274109 69.32243347 C65.2765632 70.97412914 65.28729373 72.62585315 65.29516602 74.27758789 C65.30668586 75.96224364 65.32713795 77.64686289 65.35668945 79.33129883 C65.39946131 81.76929453 65.41554771 84.20620646 65.42578125 86.64453125 C65.44328934 87.39160843 65.46079742 88.13868561 65.47883606 88.90840149 C65.45312711 95.15302049 63.32849354 98.67150646 59 103 C58.70806254 105.14219882 58.70806254 105.14219882 58.77294922 107.63330078 C58.77310028 108.59414581 58.77325134 109.55499084 58.77340698 110.54495239 C58.78372955 111.58457123 58.79405212 112.62419006 58.8046875 113.6953125 C58.8075174 114.75789276 58.81034729 115.82047302 58.81326294 116.91525269 C58.82448361 120.31861499 58.84959163 123.72171686 58.875 127.125 C58.88502736 129.42838162 58.89415363 131.73176736 58.90234375 134.03515625 C58.92442907 139.69019345 58.95792511 145.34507813 59 151 C59.4651149 150.3931839 59.9302298 149.7863678 60.40943909 149.16116333 C61.33707314 147.95821121 61.33707314 147.95821121 62.28344727 146.73095703 C62.89293716 145.93851593 63.50242706 145.14607483 64.13038635 144.32962036 C66.84646253 140.94527068 69.83770981 137.90518541 72.9375 134.875 C73.54867676 134.27099365 74.15985352 133.6669873 74.78955078 133.04467773 C85.18895363 122.83161938 85.18895363 122.83161938 90.07159424 119.65019226 C93.55311168 117.18125101 95.67226077 115.31176706 96.72839355 111.08462524 C96.9925057 107.47647301 97.00413732 103.94899353 96.921875 100.33203125 C96.92004211 99.01965988 96.91820923 97.70728851 96.9163208 96.35514832 C96.91009016 93.58818777 96.87716611 90.82331909 96.82324219 88.05688477 C96.75507704 84.51566475 96.73999153 80.97672546 96.74302292 77.43492603 C96.7416729 74.04615675 96.70632665 70.65813235 96.671875 67.26953125 C96.66742371 65.99970901 96.66297241 64.72988678 96.65838623 63.42158508 C96.63286682 62.24323593 96.60734741 61.06488678 96.58105469 59.85083008 C96.5658075 58.8149324 96.5505603 57.77903473 96.53485107 56.71174622 C95.86821888 53.33185707 94.5563766 52.22493746 92 50 C89.7618865 45.87748636 89.6932327 41.87665599 89.69921875 37.28515625 C89.69493362 36.5517955 89.6906485 35.81843475 89.68623352 35.06285095 C89.68051034 33.5172529 89.67997509 31.97162792 89.68432617 30.42602539 C89.68748555 28.07325888 89.6640058 25.72175189 89.63867188 23.36914062 C89.63639845 21.86198074 89.63569559 20.3548175 89.63671875 18.84765625 C89.627509 18.15060074 89.61829926 17.45354523 89.60881042 16.73536682 C89.65236728 12.09133326 90.56554535 8.94587096 93 5 C97.92473315 0.55572862 100.95394683 -0.36172836 107.4609375 -0.27734375 C112.46295988 0.269031 115.07540998 2.85878691 118.13305664 6.6328125 C120.34343615 10.61941564 120.5636664 13.81292132 120.49609375 18.25 C120.49754898 19.02633789 120.49900421 19.80267578 120.50050354 20.60253906 C120.49885091 22.23636648 120.48736106 23.8702105 120.46655273 25.50390625 C120.43758304 27.99286591 120.4459591 30.47969384 120.45898438 32.96875 C120.45274623 34.56251026 120.44435469 36.15626386 120.43359375 37.75 C120.43652939 38.48766602 120.43946503 39.22533203 120.44248962 39.98535156 C120.35705818 44.70629509 119.6113219 48.04508878 117 52 C115.68 52.66 114.36 53.32 113 54 C113.33 68.52 113.66 83.04 114 98 C118.95 95.03 118.95 95.03 124 92 C145.88973094 81.16037362 170.01432635 85.05573153 193.55859375 87.02636719 C197.08088621 87.32117782 200.60410773 87.60251171 204.1278038 87.87998009 C206.88044447 88.09806041 209.63251965 88.32270131 212.38446808 88.54933548 C214.30728402 88.70667502 216.23051249 88.85894719 218.15374756 89.01107788 C228.38229797 89.88034614 238.6753411 90.78811111 245.8125 98.99609375 C249.54416516 103.46584581 252.46505886 108.3454721 255.375 113.375 C256.19291016 114.71691406 256.19291016 114.71691406 257.02734375 116.0859375 C260.27561566 121.68696776 262.31885779 126.46150889 261 133 C259.20606332 135.87029869 258.01736724 137.49131638 255 139 C253.2807543 138.90054859 251.56552089 138.72850447 249.85571289 138.52294922 C214.94622837 134.23415169 214.94622837 134.23415169 183.57527161 146.85321045 C178.23971262 151.40515825 173.37468353 156.35210621 168.6875 161.5625 C167.99434629 162.33259525 167.99434629 162.33259525 167.28718948 163.11824799 C161.57102648 169.51972647 156.15670124 176.13948753 151 183 C152.01904922 182.99111755 153.03809845 182.98223511 154.08802795 182.9730835 C163.75179889 182.89154527 173.41549888 182.83181939 183.07953739 182.79275131 C188.04641767 182.77198991 193.01301743 182.74388481 197.97973633 182.69824219 C202.78436935 182.65437184 207.58873472 182.63077713 212.39355278 182.62049103 C214.21494184 182.61317281 216.03631839 182.59888509 217.85759163 182.57707977 C232.27242999 182.41156211 245.33699605 183.86735658 258.3125 190.75 C258.97781738 191.09506592 259.64313477 191.44013184 260.32861328 191.7956543 C275.61408472 199.96905824 285.91809834 212.42975587 293.75683594 227.60009766 C295.15096578 230.2914363 296.58086055 232.96264866 298.0078125 235.63671875 C299.02841168 237.58990926 300.04666243 239.54432879 301.0625 241.5 C301.55226318 242.41950439 302.04202637 243.33900879 302.54663086 244.28637695 C305.37117432 249.84291393 306.71084304 253.75573176 306 260 C304.5625 262.5 304.5625 262.5 302 264 C295.56086932 264.84934419 290.31086822 263.43354437 284.421875 260.97265625 C283.64741028 260.66428329 282.87294556 260.35591034 282.07501221 260.03819275 C279.62725614 259.06068699 277.18855748 258.06270469 274.75 257.0625 C272.29575106 256.06985945 269.83981523 255.08164772 267.38214111 254.09751892 C265.86055013 253.48676087 264.34116875 252.8704597 262.82440186 252.24781799 C247.16853071 245.90197429 228.69106227 249.30076151 212.25756836 250.65405273 C208.78098449 250.94009298 205.30370063 251.21594286 201.82617188 251.49023438 C199.59891146 251.66868675 197.37169609 251.84770246 195.14453125 252.02734375 C194.11326614 252.10967758 193.08200104 252.19201141 192.01948547 252.27684021 C187.30103963 252.66774577 182.65725737 253.11198665 178 254 C178.9178125 254.64066406 179.835625 255.28132812 180.78125 255.94140625 C204.06701273 272.29828118 220.89935489 293.66244457 227 322 C227.72848921 326.3075019 228.31170638 330.63006183 228.8828125 334.9609375 C229.13620392 336.84181816 229.13620392 336.84181816 229.39471436 338.76069641 C231.27324883 352.77271622 233.01465065 366.80263455 234.71972656 380.83666992 C235.16674396 384.51358483 235.62158896 388.18949048 236.07803726 391.86524487 C236.43556184 394.75514543 236.78766199 397.64568859 237.13829803 400.53643227 C237.38273797 402.54079646 237.63271382 404.54448312 237.88287354 406.54814148 C240.09674827 424.99535639 240.09674827 424.99535639 237.96099854 428.89909363 C236.20925949 431.08012438 234.51345923 432.74327039 232 434 C223.66321038 434.90308253 218.50946092 432.25099568 211.3125 428.25 C210.21526611 427.65944824 209.11803223 427.06889648 207.98754883 426.46044922 C204.64833623 424.65805932 201.32348822 422.8311867 198 421 C196.15439978 419.99600864 194.30809173 418.99331689 192.4609375 417.9921875 C188.89729463 416.05726262 185.33963261 414.11186382 181.78515625 412.16015625 C175.85035512 408.90845075 169.8863654 405.71193386 163.91836548 402.52172852 C162.13133418 401.565888 160.34519402 400.60840291 158.55932617 399.65039062 C152.81799006 396.57151962 147.06980727 393.50688497 141.3046875 390.47265625 C130.93268414 384.98545539 120.94866855 379.67028733 112 372 C111.12601562 371.26265625 110.25203125 370.5253125 109.3515625 369.765625 C97.03558744 359.04000107 87.76789423 346.80126323 81.24609375 331.8515625 C80.90617905 331.07902634 80.56626434 330.30649017 80.21604919 329.51054382 C76.09021883 320.04170084 72.32577267 310.42963427 68.5625 300.8125 C67.8161317 298.91272583 67.06946599 297.01306848 66.32250977 295.11352539 C64.86817879 291.41341796 63.41607897 287.71244753 61.96582031 284.01074219 C60.28590499 279.72482254 58.59487177 275.44346953 56.8984375 271.1640625 C56.07804613 269.08857284 55.25772489 267.01305546 54.4375 264.9375 C54.07406494 264.02395752 53.71062988 263.11041504 53.33618164 262.16918945 C51 256.22797164 51 256.22797164 51 254 C50.34 254 49.68 254 49 254 C48.85422516 254.5394223 48.70845032 255.0788446 48.55825806 255.63461304 C46.21630913 263.87741593 43.0645579 271.7762777 39.8984375 279.7265625 C39.29647788 281.24334104 38.69456017 282.76013621 38.09268188 284.27694702 C36.83338586 287.44682304 35.57032813 290.61517202 34.30517578 293.78271484 C32.70466775 297.79207239 31.11855809 301.80695503 29.53598595 305.82341957 C28.2978618 308.95828181 27.04934429 312.08893288 25.79817581 315.21860886 C25.21013778 316.69432974 24.62570794 318.17149487 24.04536057 319.65025711 C20.93838043 327.55521772 17.55902897 335.1660072 13.42041016 342.59130859 C12.88742089 343.55172782 12.88742089 343.55172782 12.34366417 344.53154945 C8.40182426 351.39450233 3.3457037 357.20196753 -2 363 C-2.56976563 363.65097656 -3.13953125 364.30195313 -3.7265625 364.97265625 C-13.83028504 375.93130916 -27.45378775 383.24903751 -40.5625 389.9375 C-42.0712304 390.71965512 -43.57919613 391.50328686 -45.08642578 392.28833008 C-47.3322779 393.45788988 -49.57848879 394.62665899 -51.82720947 395.79069519 C-57.72153754 398.84214785 -63.56103806 401.98545576 -69.375 405.1875 C-78.90446687 410.41837847 -88.47135702 415.57816136 -98.0690918 420.68261719 C-103.00986649 423.31302197 -107.94368924 425.94105052 -112.796875 428.73046875 C-124.13894637 435.21301398 -124.13894637 435.21301398 -130.12890625 434.6015625 C-133.62377479 433.47795132 -135.50215365 431.68518483 -138 429 C-140.22683254 422.31950239 -138.90079932 414.84786794 -138.05371094 407.97045898 C-137.95284683 407.11702408 -137.85198273 406.26358917 -137.74806213 405.3842926 C-137.41581902 402.58751626 -137.07558008 399.79178991 -136.734375 396.99609375 C-136.49715732 395.02948612 -136.26012029 393.0628567 -136.02325439 391.09620667 C-135.52598266 386.9795996 -135.02434531 382.86355127 -134.52001953 378.74780273 C-133.8797124 373.51692373 -133.25355677 368.28446102 -132.63119125 363.05142117 C-132.14571695 358.98806442 -131.65086519 354.92588795 -131.15351105 350.8639698 C-130.91908823 348.9377848 -130.68784773 347.01120935 -130.46007538 345.08422661 C-126.73066743 313.63980761 -117.42691275 284.98574556 -92.375 264.0625 C-87.74654232 260.45296898 -82.94993582 257.14989639 -78 254 C-89.68060753 252.632831 -101.36090179 251.47087971 -113.08666992 250.56738281 C-115.56554518 250.37476338 -118.04345227 250.1718954 -120.52148438 249.96875 C-143.11366908 247.99487281 -143.11366908 247.99487281 -165 253 C-166.15048828 253.44923828 -167.30097656 253.89847656 -168.48632812 254.36132812 C-173.30802094 256.28843211 -178.1060808 258.26763922 -182.890625 260.28515625 C-189.57646788 263.00494541 -194.76470064 264.80309592 -202 264 C-204.5625 262.5 -204.5625 262.5 -206 260 C-206.44876659 254.02924872 -205.71878199 250.43816678 -202.96484375 245.0078125 C-202.64850479 244.37696747 -202.33216583 243.74612244 -202.00624084 243.09616089 C-201.33701901 241.76972745 -200.66008316 240.44716027 -199.97583008 239.12841797 C-198.94794462 237.14515248 -197.94584857 235.15049516 -196.94726562 233.15234375 C-185.7738998 211.04841783 -170.69462336 194.18447191 -146.76316833 185.87628174 C-136.14396754 182.7291194 -126.17882392 182.47745326 -115.16015625 182.609375 C-113.29830032 182.61685581 -111.4364364 182.62254001 -109.5745697 182.62652588 C-104.72642425 182.64163761 -99.87877508 182.68079061 -95.03082275 182.7253418 C-90.06293446 182.76661062 -85.09496424 182.7846037 -80.12695312 182.8046875 C-70.41775334 182.84730224 -60.70891829 182.91537313 -51 183 C-56.57821545 175.57870198 -62.47768427 168.46132015 -68.6875 161.5625 C-69.1467411 161.0520451 -69.60598221 160.54159019 -70.07913971 160.01566696 C-82.47122016 146.41355187 -93.56451849 137.97098545 -112.34797478 136.94898796 C-123.60306297 136.51501393 -135.05469784 137.21693386 -146.23173523 138.50793457 C-154.32245449 139.38415562 -154.32245449 139.38415562 -158.20751953 137.18139648 C-161.01689374 133.76246995 -161.49462048 131.1531354 -161.4375 126.69238281 C-160.53870889 121.16120627 -157.37389836 116.59640445 -154.5 111.875 C-153.89929688 110.82957031 -153.29859375 109.78414063 -152.6796875 108.70703125 C-148.0051339 100.839857 -142.97702077 93.95432555 -134 91 C-132.02040568 90.68141118 -130.02776012 90.43894638 -128.03125 90.25390625 C-126.83870605 90.14022705 -125.64616211 90.02654785 -124.41748047 89.90942383 C-123.12471191 89.79493896 -121.83194336 89.6804541 -120.5 89.5625 C-119.13294603 89.43741211 -117.76592189 89.31199789 -116.39892578 89.1862793 C-112.70914005 88.84998436 -109.01836118 88.5259589 -105.32727051 88.2043457 C-102.97140139 87.9974889 -100.61603861 87.78553812 -98.26074219 87.57226562 C-35.11724503 81.8748661 -35.11724503 81.8748661 -14 98 C-13.90111911 91.80701358 -13.82852514 85.61448668 -13.78027344 79.42089844 C-13.76015874 77.31404618 -13.73286333 75.20724975 -13.69824219 73.10058594 C-13.64971832 70.07212553 -13.62702984 67.04440322 -13.609375 64.015625 C-13.58872986 63.07382385 -13.56808472 62.13202271 -13.54681396 61.16168213 C-13.43866202 55.98689137 -13.43866202 55.98689137 -15.89941406 51.62402344 C-16.59260742 51.0880957 -17.28580078 50.55216797 -18 50 C-20.5504505 46.35360934 -20.306169 42.45646181 -20.30078125 38.1640625 C-20.30506638 37.40709076 -20.3093515 36.65011902 -20.31376648 35.87020874 C-20.31949896 34.27155556 -20.32001801 32.6728763 -20.31567383 31.07421875 C-20.31251965 28.64016709 -20.33596473 26.20733851 -20.36132812 23.7734375 C-20.36360197 22.21614736 -20.36430422 20.65885397 -20.36328125 19.1015625 C-20.372491 18.37949615 -20.38170074 17.65742981 -20.39118958 16.91348267 C-20.34848461 12.20088439 -19.48352736 9.00134138 -17 5 C-11.44369588 -0.01422567 -7.35941428 -0.80387448 0 0 Z " fill="#FECF5B" transform="translate(206,39)"/>
<path d="M0 0 C4.44989252 2.1797414 7.16812904 2.24218036 11.94580078 0.984375 C15.69984663 -0.47926697 19.34895555 -2.14378829 23.00830078 -3.828125 C49.70205917 -15.78670883 73.99775509 -17.15899904 101.63134766 -6.90527344 C136.71408468 6.5801162 136.71408468 6.5801162 149.94580078 17.984375 C150.55939453 18.46519531 151.17298828 18.94601562 151.80517578 19.44140625 C172.69882149 36.07006464 182.45745814 62.38079259 185.82861328 87.9453125 C186.0820047 89.82619316 186.0820047 89.82619316 186.34051514 91.74507141 C188.21904962 105.75709122 189.96045143 119.78700955 191.66552734 133.82104492 C192.11254474 137.49795983 192.56738974 141.17386548 193.02383804 144.84961987 C193.38136262 147.73952043 193.73346277 150.63006359 194.08409882 153.52080727 C194.32853875 155.52517146 194.5785146 157.52885812 194.82867432 159.53251648 C197.04254905 177.97973139 197.04254905 177.97973139 194.90679932 181.88346863 C193.15506027 184.06449938 191.45926001 185.72764539 188.94580078 186.984375 C180.60901117 187.88745753 175.4552617 185.23537068 168.25830078 181.234375 C166.61244995 180.34854736 166.61244995 180.34854736 164.93334961 179.44482422 C161.59413701 177.64243432 158.269289 175.8155617 154.94580078 173.984375 C153.10020056 172.98038364 151.25389251 171.97769189 149.40673828 170.9765625 C145.84309541 169.04163762 142.28543339 167.09623882 138.73095703 165.14453125 C132.79615591 161.89282575 126.83216618 158.69630886 120.86416626 155.50610352 C119.07713496 154.550263 117.2909948 153.59277791 115.50512695 152.63476562 C109.76379085 149.55589462 104.01560805 146.49125997 98.25048828 143.45703125 C87.87848492 137.96983039 77.89446933 132.65466233 68.94580078 124.984375 C68.07181641 124.24703125 67.19783203 123.5096875 66.29736328 122.75 C53.98138822 112.02437607 44.71369501 99.78563823 38.19189453 84.8359375 C37.85197983 84.06340134 37.51206512 83.29086517 37.16184998 82.49491882 C33.03601961 73.02607584 29.27157345 63.41400927 25.50830078 53.796875 C24.76193248 51.89710083 24.01526677 49.99744348 23.26831055 48.09790039 C21.81397957 44.39779296 20.36187975 40.69682253 18.91162109 36.99511719 C17.23170577 32.70919754 15.54067256 28.42784453 13.84423828 24.1484375 C13.02384691 22.07294784 12.20352567 19.99743046 11.38330078 17.921875 C11.01986572 17.00833252 10.65643066 16.09479004 10.28198242 15.15356445 C7.94580078 9.21234664 7.94580078 9.21234664 7.94580078 6.984375 C7.28580078 6.984375 6.62580078 6.984375 5.94580078 6.984375 C5.80002594 7.5237973 5.6542511 8.0632196 5.50405884 8.61898804 C3.16210991 16.86179093 0.01035868 24.7606527 -3.15576172 32.7109375 C-3.75772134 34.22771604 -4.35963905 35.74451121 -4.96151733 37.26132202 C-6.22081336 40.43119804 -7.48387109 43.59954702 -8.74902344 46.76708984 C-10.34953147 50.77644739 -11.93564113 54.79133003 -13.51821327 58.80779457 C-14.75633742 61.94265681 -16.00485492 65.07330788 -17.25602341 68.20298386 C-17.84406144 69.67870474 -18.42849128 71.15586987 -19.00883865 72.63463211 C-22.11581879 80.53959272 -25.49517025 88.1503822 -29.63378906 95.57568359 C-29.98911524 96.21596308 -30.34444141 96.85624256 -30.71053505 97.51592445 C-34.65237496 104.37887733 -39.70849552 110.18634253 -45.05419922 115.984375 C-45.62396484 116.63535156 -46.19373047 117.28632813 -46.78076172 117.95703125 C-56.88448426 128.91568416 -70.50798697 136.23341251 -83.61669922 142.921875 C-85.12542962 143.70403012 -86.63339535 144.48766186 -88.140625 145.27270508 C-90.38647712 146.44226488 -92.63268801 147.61103399 -94.88140869 148.77507019 C-100.77573676 151.82652285 -106.61523728 154.96983076 -112.42919922 158.171875 C-121.95866609 163.40275347 -131.52555624 168.56253636 -141.12329102 173.66699219 C-146.06406571 176.29739697 -150.99788846 178.92542552 -155.85107422 181.71484375 C-167.19314559 188.19738898 -167.19314559 188.19738898 -173.18310547 187.5859375 C-176.67797401 186.46232632 -178.55635287 184.66955983 -181.05419922 181.984375 C-183.28103176 175.30387739 -181.95499854 167.83224294 -181.10791016 160.95483398 C-181.00704605 160.10139908 -180.90618195 159.24796417 -180.80226135 158.3686676 C-180.47001824 155.57189126 -180.12977929 152.77616491 -179.78857422 149.98046875 C-179.55135654 148.01386112 -179.31431951 146.0472317 -179.07745361 144.08058167 C-178.58018188 139.9639746 -178.07854453 135.84792627 -177.57421875 131.73217773 C-176.93391162 126.50129873 -176.30775599 121.26883602 -175.68539047 116.03579617 C-175.19991617 111.97243942 -174.70506441 107.91026295 -174.20771027 103.8483448 C-173.97328745 101.9221598 -173.74204695 99.99558435 -173.5142746 98.06860161 C-169.63500306 65.3606111 -159.58882033 36.38389258 -133.14794922 15.1796875 C-132.12701172 14.45523437 -131.10607422 13.73078125 -130.05419922 12.984375 C-129.34497314 12.47511475 -128.63574707 11.96585449 -127.9050293 11.44116211 C-120.14374664 6.16319268 -111.86501676 2.70978503 -103.18530273 -0.73266602 C-100.75109201 -1.69939472 -98.32528263 -2.68518338 -95.89990234 -3.67382812 C-61.82662411 -17.43419883 -33.26835727 -16.44834398 0 0 Z " fill="#FD636E" transform="translate(249.05419921875,286.015625)"/>
<path d="M0 0 C0.86592773 0.51675293 1.73185547 1.03350586 2.62402344 1.56591797 C5.40941007 4.41942236 5.58946478 6.1742205 5.64199829 10.09011841 C5.62865448 10.88795746 5.61531067 11.68579651 5.6015625 12.5078125 C5.60956879 13.34730438 5.61757507 14.18679626 5.62582397 15.05172729 C5.64888211 17.74330558 5.63948404 20.43338199 5.625 23.125 C5.6007662 39.54642727 5.94884652 55.9973915 12.0625 71.5 C12.36140137 72.28076904 12.66030273 73.06153809 12.96826172 73.8659668 C16.48471526 82.70690374 21.15594541 90.83402123 26 99 C26.99016351 100.68976433 27.97972827 102.37987963 28.96875 104.0703125 C33.36382241 111.5552832 37.79868165 119.01592955 42.28482056 126.44667053 C43.78511007 128.93431475 45.27930487 131.42559187 46.77288818 133.91726685 C47.50574184 135.13595009 48.24161135 136.35282499 48.98052979 137.56784058 C50.01243335 139.26483755 51.03381713 140.96821795 52.0546875 142.671875 C52.64749512 143.6525293 53.24030273 144.63318359 53.85107422 145.64355469 C54.23021973 146.42118164 54.60936523 147.19880859 55 148 C54.67 148.66 54.34 149.32 54 150 C52.53240234 149.40251953 52.53240234 149.40251953 51.03515625 148.79296875 C16.22937109 134.68744294 -8.93721286 138.92410515 -42.94921875 152.703125 C-45.58306136 153.82276104 -48.10313903 155.05585743 -50.65625 156.34375 C-58.7942616 159.96606875 -68.99519526 157.87664634 -77.6328125 157.125 C-79.84374015 156.9425889 -82.05467798 156.76030116 -84.265625 156.578125 C-87.68803502 156.29080674 -91.11023638 156.00126098 -94.53222656 155.70898438 C-121.15824835 152.75104114 -121.15824835 152.75104114 -147 158 C-148.15048828 158.44923828 -149.30097656 158.89847656 -150.48632812 159.36132812 C-155.30802094 161.28843211 -160.1060808 163.26763922 -164.890625 165.28515625 C-171.57646788 168.00494541 -176.76470064 169.80309592 -184 169 C-186.5625 167.5 -186.5625 167.5 -188 165 C-188.44876659 159.02924872 -187.71878199 155.43816678 -184.96484375 150.0078125 C-184.64850479 149.37696747 -184.33216583 148.74612244 -184.00624084 148.09616089 C-183.33701901 146.76972745 -182.66008316 145.44716027 -181.97583008 144.12841797 C-180.94794462 142.14515248 -179.94584857 140.15049516 -178.94726562 138.15234375 C-167.7738998 116.04841783 -152.69462336 99.18447191 -128.76316833 90.87628174 C-118.14396754 87.7291194 -108.17882392 87.47745326 -97.16015625 87.609375 C-95.29830032 87.61685581 -93.4364364 87.62254001 -91.5745697 87.62652588 C-86.72642425 87.64163761 -81.87877508 87.68079061 -77.03082275 87.7253418 C-72.06293446 87.76661062 -67.09496424 87.7846037 -62.12695312 87.8046875 C-52.41775334 87.84730224 -42.70891829 87.91537313 -33 88 C-38.57821545 80.57870198 -44.47768427 73.46132015 -50.6875 66.5625 C-51.1467411 66.0520451 -51.60598221 65.54159019 -52.07913971 65.01566696 C-64.47122016 51.41355187 -75.56451849 42.97098545 -94.34797478 41.94898796 C-105.60306297 41.51501393 -117.05469784 42.21693386 -128.23173523 43.50793457 C-136.32245449 44.38415562 -136.32245449 44.38415562 -140.20751953 42.18139648 C-143.01689374 38.76246995 -143.49462048 36.1531354 -143.4375 31.69238281 C-142.53870889 26.16120627 -139.37389836 21.59640445 -136.5 16.875 C-135.89929688 15.82957031 -135.29859375 14.78414062 -134.6796875 13.70703125 C-130.0051339 5.839857 -124.97702077 -1.04567445 -116 -4 C-114.02040568 -4.31858882 -112.02776012 -4.56105362 -110.03125 -4.74609375 C-108.83870605 -4.85977295 -107.64616211 -4.97345215 -106.41748047 -5.09057617 C-105.12471191 -5.20506104 -103.83194336 -5.3195459 -102.5 -5.4375 C-101.13294603 -5.56258789 -99.76592189 -5.68800211 -98.39892578 -5.8137207 C-94.70914005 -6.15001564 -91.01836118 -6.4740411 -87.32727051 -6.7956543 C-84.97140139 -7.0025111 -82.61603861 -7.21446188 -80.26074219 -7.42773438 C-21.12379927 -12.76362493 -21.12379927 -12.76362493 0 0 Z " fill="#FD646E" transform="translate(188,134)"/>
<path d="M0 0 C0.89267578 0.34740234 1.78535156 0.69480469 2.70507812 1.05273438 C3.56166016 1.39498047 4.41824219 1.73722656 5.30078125 2.08984375 C6.07204346 2.39656006 6.84330566 2.70327637 7.63793945 3.01928711 C9.77162922 4.10532122 11.10401533 5.2841152 12.6875 7.0625 C11.718125 7.34222656 10.74875 7.62195313 9.75 7.91015625 C-3.51059635 11.83352825 -15.84314481 16.97277683 -27.9375 23.6875 C-28.58847656 24.0474707 -29.23945313 24.40744141 -29.91015625 24.77832031 C-34.10236815 27.17293615 -37.8117935 29.72140018 -41.3125 33.0625 C-41.92726744 37.51956394 -41.8224972 39.29750419 -39.3125 43.0625 C-32.74717076 44.4251155 -29.12021087 42.05542309 -23.65942383 38.48022461 C-11.44993115 30.49649282 2.08981608 23.65525577 16.6875 22.0625 C10.68002752 38.26345021 4.44279373 54.36799864 -2.00442505 70.39898682 C-2.74541103 72.24290557 -3.48411828 74.08774185 -4.22042847 75.93353271 C-17.09421538 108.17038588 -34.74903777 129.77436147 -65.3125 146.0625 C-67.42344881 147.1974114 -69.53410352 148.33286993 -71.64453125 149.46875 C-76.42603343 152.0381369 -81.21138838 154.60014181 -86 157.15625 C-92.90284853 160.84114567 -99.79763794 164.5408697 -106.6875 168.25 C-107.74437012 168.81895996 -108.80124023 169.38791992 -109.89013672 169.97412109 C-118.15473629 174.42840998 -126.40141433 178.91512585 -134.63818359 183.4206543 C-135.91556396 184.11928589 -135.91556396 184.11928589 -137.21875 184.83203125 C-137.96447266 185.24042236 -138.71019531 185.64881348 -139.47851562 186.06958008 C-140.74513459 186.75532813 -142.02422239 187.4183612 -143.3125 188.0625 C-145.53933254 181.38200239 -144.21329932 173.91036794 -143.36621094 167.03295898 C-143.26534683 166.17952408 -143.16448273 165.32608917 -143.06056213 164.4467926 C-142.72831902 161.65001626 -142.38808008 158.85428991 -142.046875 156.05859375 C-141.80965732 154.09198612 -141.57262029 152.1253567 -141.33575439 150.15870667 C-140.83848266 146.0420996 -140.33684531 141.92605127 -139.83251953 137.81030273 C-139.1922124 132.57942373 -138.56605677 127.34696102 -137.94369125 122.11392117 C-137.45821695 118.05056442 -136.96336519 113.98838795 -136.46601105 109.9264698 C-136.23158823 108.0002848 -136.00034773 106.07370935 -135.77257538 104.14672661 C-131.89330384 71.4387361 -121.84712111 42.46201758 -95.40625 21.2578125 C-94.3853125 20.53335937 -93.364375 19.80890625 -92.3125 19.0625 C-91.60327393 18.55323975 -90.89404785 18.04397949 -90.16333008 17.51928711 C-82.40204742 12.24131768 -74.12331754 8.78791003 -65.44360352 5.34545898 C-63.00939279 4.37873028 -60.58358341 3.39294162 -58.15820312 2.40429688 C-36.89438817 -6.18578203 -21.79026111 -8.76434856 0 0 Z " fill="#FD636E" transform="translate(211.3125,279.9375)"/>
<path d="M0 0 C0.76667496 -0.0065712 1.53334991 -0.0131424 2.32325745 -0.01991272 C4.85368976 -0.03957344 7.38406266 -0.05129746 9.91455078 -0.0612793 C10.78488071 -0.06535482 11.65521065 -0.06943035 12.55191422 -0.07362938 C17.1662802 -0.09446792 21.78061672 -0.10877442 26.39501953 -0.11816406 C31.12312411 -0.12917257 35.8507508 -0.16351391 40.57868767 -0.20333576 C44.24568452 -0.22970158 47.91257143 -0.23787384 51.57965469 -0.24144554 C53.32009197 -0.24626686 55.06052585 -0.25775071 56.80086899 -0.27648354 C70.93341763 -0.41904576 83.83704453 1.18502167 96.54736328 7.92700195 C97.21268066 8.27206787 97.87799805 8.61713379 98.56347656 8.97265625 C113.848948 17.1460602 124.15296162 29.60675782 131.99169922 44.77709961 C133.38582907 47.46843826 134.81572383 50.13965061 136.24267578 52.8137207 C137.26327496 54.76691122 138.28152571 56.72133074 139.29736328 58.67700195 C139.78712646 59.59650635 140.27688965 60.51601074 140.78149414 61.46337891 C143.6060376 67.01991588 144.94570632 70.93273372 144.23486328 77.17700195 C142.79736328 79.67700195 142.79736328 79.67700195 140.23486328 81.17700195 C133.7957326 82.02634614 128.5457315 80.61054633 122.65673828 78.1496582 C121.88227356 77.84128525 121.10780884 77.53291229 120.30987549 77.2151947 C117.86211942 76.23768894 115.42342076 75.23970664 112.98486328 74.23950195 C110.53061434 73.2468614 108.07467851 72.25864968 105.61700439 71.27452087 C104.09541341 70.66376282 102.57603204 70.04746165 101.05926514 69.42481995 C84.53180978 62.72569426 64.67435705 66.69814866 47.35986328 68.17700195 C43.94970582 68.46553884 40.53941549 68.75191945 37.12863159 69.03295898 C35.02565073 69.20646401 32.92301311 69.3842066 30.8208313 69.56713867 C19.77680636 70.48331679 11.18652194 70.90791715 1.04736328 66.05200195 C-0.78736454 65.22120032 -2.62331648 64.39309702 -4.46044922 63.56762695 C-5.35666992 63.15963867 -6.25289063 62.75165039 -7.17626953 62.33129883 C-34.28869864 50.24269407 -60.44003216 47.35741108 -88.35668945 57.96191406 C-91.84474108 59.32425653 -95.30817201 60.7376108 -98.76513672 62.17700195 C-96.61883875 56.39850742 -94.35432511 52.29575864 -89.39013672 48.55200195 C-85.33930547 45.42288158 -81.39977356 42.19628894 -77.51513672 38.86450195 C-71.27028042 33.54340259 -64.88538361 28.42238696 -58.38037109 23.4230957 C-56.91134863 22.28979905 -55.4547048 21.14050213 -53.99951172 19.98950195 C-38.77566896 8.32092786 -19.34748178 0.07267197 0 0 Z " fill="#FC8A95" transform="translate(367.76513671875,221.822998046875)"/>
<path d="M0 0 C2.82608731 0.23360637 5.65300495 0.45614136 8.47997665 0.67874718 C11.23261732 0.8968275 13.9846925 1.1214684 16.73664093 1.34810257 C18.65945687 1.50544211 20.58268534 1.65771428 22.50592041 1.80984497 C32.73447082 2.67911323 43.02751395 3.5868782 50.16467285 11.79486084 C53.89633801 16.2646129 56.81723171 21.14423919 59.72717285 26.17376709 C60.27244629 27.06837646 60.81771973 27.96298584 61.3795166 28.88470459 C64.62778851 34.48573485 66.67103064 39.26027598 65.35217285 45.79876709 C63.55823617 48.66906578 62.36954009 50.29008347 59.35217285 51.79876709 C57.64308629 51.68910596 55.9384971 51.50638666 54.23962402 51.28997803 C20.41420425 46.87971492 20.41420425 46.87971492 -10.26348591 58.45828819 C-18.353696 65.26997397 -25.28513238 73.1632038 -31.9810791 81.31536865 C-33.65168859 83.34569784 -35.32313556 85.37533826 -36.9954834 87.40423584 C-37.79024582 88.37556961 -38.58500824 89.34690338 -39.40385437 90.34767151 C-46.66573546 98.76257971 -53.71710414 101.49917429 -64.45834351 103.30758667 C-76.27794133 105.95915022 -86.63683711 115.20268322 -95.64782715 122.79876709 C-96.21275879 123.27281982 -96.77769043 123.74687256 -97.35974121 124.23529053 C-100.12012736 126.55540854 -102.86956759 128.8879429 -105.6126709 131.22845459 C-112.4320074 137.00338821 -119.45666203 142.49578499 -126.64782715 147.79876709 C-125.31948879 143.31979705 -123.54621402 139.69969154 -121.08532715 135.73626709 C-120.28167353 134.42212193 -119.47975471 133.10691511 -118.67907715 131.79095459 C-118.21372559 131.02750732 -117.74837402 130.26406006 -117.2689209 129.47747803 C-98.08652872 99.1628182 -98.08652872 99.1628182 -85.64782715 65.79876709 C-85.45873779 65.00583252 -85.26964844 64.21289795 -85.0748291 63.39593506 C-83.73555728 56.78133211 -83.52333589 50.3693332 -83.5501709 43.65032959 C-83.55069458 42.74266846 -83.55121826 41.83500732 -83.55175781 40.89984131 C-83.55755436 37.11122001 -83.56697139 33.32449422 -83.64416504 29.53656006 C-83.93723082 13.53107908 -83.93723082 13.53107908 -80.76647949 9.2711792 C-78.42729941 7.68441674 -76.31639682 6.70521291 -73.64782715 5.79876709 C-72.7145459 5.2792749 -71.78126465 4.75978271 -70.81970215 4.22454834 C-48.43343046 -6.06591526 -23.79768974 -1.99183117 0 0 Z " fill="#FD646E" transform="translate(401.6478271484375,126.20123291015625)"/>
<path d="M0 0 C3.675184 0.02896529 7.34892032 0.02057245 11.02416992 0.00756836 C27.16706027 0.02047049 42.22316949 0.72557575 57.3112793 7.02905273 C58.14997559 7.37419922 58.98867187 7.7193457 59.8527832 8.07495117 C73.18468292 13.78753437 83.86328618 22.52587593 94.6394043 32.05883789 C101.35857151 37.93607062 108.424098 43.42978855 115.44799805 48.93530273 C116.04225586 49.44061523 116.63651367 49.94592773 117.2487793 50.46655273 C117.2487793 50.79655273 117.2487793 51.12655273 117.2487793 51.46655273 C116.58048096 51.44560547 115.91218262 51.4246582 115.22363281 51.40307617 C88.58797752 50.68103216 66.40527534 56.79818928 42.5925293 68.81030273 C34.4545177 72.43262148 24.25358404 70.34319907 15.6159668 69.59155273 C13.40503915 69.40914163 11.19410132 69.22685389 8.9831543 69.04467773 C5.56074428 68.75735947 2.13854291 68.46781371 -1.28344727 68.17553711 C-27.90946905 65.21759387 -27.90946905 65.21759387 -53.7512207 70.46655273 C-54.90170898 70.91579102 -56.05219727 71.3650293 -57.23754883 71.82788086 C-62.05924165 73.75498484 -66.8573015 75.73419195 -71.6418457 77.75170898 C-78.32768859 80.47149814 -83.51592134 82.26964866 -90.7512207 81.46655273 C-93.3137207 79.96655273 -93.3137207 79.96655273 -94.7512207 77.46655273 C-95.19998729 71.49580145 -94.47000269 67.90471951 -91.71606445 62.47436523 C-91.39972549 61.8435202 -91.08338654 61.21267517 -90.75746155 60.56271362 C-90.08823971 59.23628018 -89.41130386 57.913713 -88.72705078 56.5949707 C-87.69916532 54.61170522 -86.69706927 52.6170479 -85.69848633 50.61889648 C-74.43151062 28.32978503 -59.51910219 12.31341095 -35.78149414 3.34448242 C-24.01875695 -0.36090413 -12.23973977 -0.10522669 0 0 Z " fill="#FC8A95" transform="translate(94.751220703125,221.533447265625)"/>
<path d="M0 0 C23.09092961 -0.67766859 41.17829668 4.52222965 62.18164062 13.98266602 C66.68851315 16.00992756 69.14246092 16.25626011 74 15 C76.17354201 13.97316122 78.30063493 12.91663296 80.3984375 11.7421875 C87.53752993 9.70550948 95.70446701 12.76110329 102.625 14.6875 C103.59139404 14.9558667 104.55778809 15.2242334 105.5534668 15.50073242 C142.30855615 25.96069089 172.15537089 48.33247808 192.5 80.8125 C194.13584631 84.28867341 194.67218919 86.21893578 194 90 C192.4375 92.375 192.4375 92.375 190 94 C186.5 94.5 186.5 94.5 183 94 C179.79020357 91.279196 177.71672614 88.17370632 175.5 84.625 C157.60459309 57.38273558 129.66215315 37.9323771 98 30 C89.06388578 28.25434623 80.03879865 27.07113644 71 26 C70.67 24.35 70.34 22.7 70 21 C69.34 21 68.68 21 68 21 C67.85422516 21.5394223 67.70845032 22.0788446 67.55825806 22.63461304 C65.21630913 30.87741593 62.0645579 38.7762777 58.8984375 46.7265625 C58.29647788 48.24334104 57.69456017 49.76013621 57.09268188 51.27694702 C55.83338586 54.44682304 54.57032813 57.61517202 53.30517578 60.78271484 C51.70466775 64.79207239 50.11855809 68.80695503 48.53598595 72.82341957 C47.2978618 75.95828181 46.04934429 79.08893288 44.79817581 82.21860886 C44.21013778 83.69432974 43.62570794 85.17149487 43.04536057 86.65025711 C39.93838043 94.55521772 36.55902897 102.1660072 32.42041016 109.59130859 C32.06508398 110.23158808 31.7097578 110.87186756 31.34366417 111.53154945 C27.40182426 118.39450233 22.3457037 124.20196753 17 130 C16.43023437 130.65097656 15.86046875 131.30195313 15.2734375 131.97265625 C5.16971496 142.93130916 -8.45378775 150.24903751 -21.5625 156.9375 C-23.0712304 157.71965512 -24.57919613 158.50328686 -26.08642578 159.28833008 C-28.3322779 160.45788988 -30.57848879 161.62665899 -32.82720947 162.79069519 C-38.72153754 165.84214785 -44.56103806 168.98545576 -50.375 172.1875 C-59.90446687 177.41837847 -69.47135702 182.57816136 -79.0690918 187.68261719 C-84.00986649 190.31302197 -88.94368924 192.94105052 -93.796875 195.73046875 C-105.54503399 202.44289665 -105.54503399 202.44289665 -113 201 C-116.0625 199 -116.0625 199 -118 197 C-116.66111922 192.98335765 -114.24284365 192.22675546 -110.67578125 190.41015625 C-109.70245094 189.89960442 -109.70245094 189.89960442 -108.7094574 189.3787384 C-106.58153696 188.26466386 -104.44704206 187.16382593 -102.3125 186.0625 C-100.83501487 185.29101877 -99.3581298 184.5183873 -97.88183594 183.74462891 C-95.66120853 182.58075045 -93.44032957 181.41740689 -91.21762085 180.25750732 C-85.3571115 177.19822652 -79.54183941 174.06247755 -73.75 170.875 C-67.8304575 167.62063298 -61.89375357 164.40350702 -55.921875 161.24609375 C-19.75737814 142.11006576 3.68740207 122.5154373 19 84 C19.27924316 83.29915283 19.55848633 82.59830566 19.84619141 81.8762207 C23.71142545 72.17380005 27.54209482 62.45806046 31.35246277 52.73397827 C34.19966785 45.47510436 37.09268586 38.2349955 40 31 C32.85483971 32.15815981 26.50158911 34.10793194 19.875 37 C18.96919189 37.38792725 18.06338379 37.77585449 17.13012695 38.17553711 C10.431774 41.13719339 4.27461827 44.62552018 -1.67431641 48.90039062 C-6.3014699 52.08908364 -9.37994621 52.57335299 -15 52 C-17.83319314 49.78656786 -17.97118945 48.15557696 -18.625 44.625 C-17.92343029 40.5558957 -16.81468317 39.11562299 -13.55078125 36.65625 C1.73879051 26.72856482 18.37002342 18.73455202 36 14 C32.93781474 12.70758628 29.87519622 11.41620235 26.8125 10.125 C25.51602539 9.57779297 25.51602539 9.57779297 24.19335938 9.01953125 C22.5196578 8.31413978 20.84496244 7.61110078 19.16918945 6.91064453 C17.53433415 6.2243181 15.90609424 5.52220208 14.28125 4.8125 C11.44310373 3.80165339 8.66310689 3.33278568 5.6875 2.875 C4.61886719 2.70742188 3.55023438 2.53984375 2.44921875 2.3671875 C1.64097656 2.24601562 0.83273438 2.12484375 0 2 C0 1.34 0 0.68 0 0 Z " fill="#FD4755" transform="translate(187,272)"/>
<path d="M0 0 C32.25014761 -1.33451719 68.18145408 9.60919032 93 31 C93.61359375 31.48082031 94.2271875 31.96164062 94.859375 32.45703125 C115.75302071 49.08568964 125.51165735 75.39641759 128.8828125 100.9609375 C129.13620392 102.84181816 129.13620392 102.84181816 129.39471436 104.76069641 C131.27324883 118.77271622 133.01465065 132.80263455 134.71972656 146.83666992 C135.16674396 150.51358483 135.62158896 154.18949048 136.07803726 157.86524487 C136.43556184 160.75514543 136.78766199 163.64568859 137.13829803 166.53643227 C137.38273797 168.54079646 137.63271382 170.54448312 137.88287354 172.54814148 C140.09674827 190.99535639 140.09674827 190.99535639 137.96099854 194.89909363 C135.72879284 197.67833708 133.74283376 199.74207534 130.15234375 200.2734375 C123.52865287 200.57716936 119.48956727 198.5203549 114 195 C114.01318771 194.26340652 114.02637543 193.52681305 114.03996277 192.76789856 C114.11159792 185.69381321 113.71398185 178.8426658 112.86328125 171.82421875 C112.74373077 170.79214294 112.6241803 169.76006714 112.50100708 168.69671631 C112.11223421 165.35939289 111.71307154 162.0234263 111.3125 158.6875 C111.03697602 156.36273703 110.76166903 154.03794833 110.48657227 151.71313477 C109.93078314 147.03273161 109.36936978 142.35304831 108.80371094 137.67382812 C108.183836 132.54371442 107.57861708 127.41207267 106.98085022 122.27934265 C106.5730108 118.80173617 106.15309635 115.32567584 105.72909546 111.8500061 C105.5390985 110.27807205 105.3532035 108.70563506 105.17202759 107.13265991 C104.18138814 98.57987836 102.74452605 90.28793625 100.58984375 81.9453125 C100.3934581 81.17807358 100.19707245 80.41083466 99.99473572 79.62034607 C93.81376774 56.84846487 76.87949989 35.063166 56.75 23 C39.95760475 13.67194671 19.21869134 3.4907424 0 1 C0 0.67 0 0.34 0 0 Z " fill="#FD4755" transform="translate(306,273)"/>
<path d="M0 0 C15.93181039 -0.40820191 31.69585191 0.69853534 47.55859375 2.02636719 C51.08088621 2.32117782 54.60410773 2.60251171 58.1278038 2.87998009 C60.88044447 3.09806041 63.63251965 3.32270131 66.38446808 3.54933548 C68.30728402 3.70667502 70.23051249 3.85894719 72.15374756 4.01107788 C82.38229797 4.88034614 92.6753411 5.78811111 99.8125 13.99609375 C103.54416516 18.46584581 106.46505886 23.3454721 109.375 28.375 C109.92027344 29.26960938 110.46554687 30.16421875 111.02734375 31.0859375 C114.27561566 36.68696776 116.31885779 41.46150889 115 48 C113.20606332 50.87029869 112.01736724 52.49131638 109 54 C107.29091344 53.89033887 105.58632425 53.70761957 103.88745117 53.49121094 C70.0620314 49.08094783 70.0620314 49.08094783 39.38434124 60.6595211 C31.29413397 67.4712045 24.36268299 75.36443036 17.66674805 83.51660156 C15.99615903 85.5469476 14.32471248 87.57658839 12.65234375 89.60546875 C11.45952034 91.06301323 11.45952034 91.06301323 10.24259949 92.55000305 C2.97220117 100.97361487 -4.0257127 103.6330454 -14.75863647 105.4672699 C-18.64308531 106.39053058 -22.03033172 108.25684273 -25.5 110.1875 C-26.10166489 110.5198616 -26.70332977 110.85222321 -27.32322693 111.19465637 C-30.37868279 112.93579972 -33.24308759 114.81744434 -36 117 C-36.66 116.67 -37.32 116.34 -38 116 C-37.21920956 115.22750569 -37.21920956 115.22750569 -36.42264557 114.43940544 C-23.76248713 101.91170987 -11.11893957 89.36747287 1.50629425 76.80457878 C7.61215455 70.72966627 13.72352402 64.66049533 19.84814453 58.60449219 C25.18589192 53.3265181 30.51303471 48.03810771 35.82767153 42.73685944 C38.64256293 39.92979523 41.4625077 37.12826586 44.29521179 34.33916855 C46.96102533 31.71406295 49.612437 29.07523554 52.25345421 26.42519188 C53.22541065 25.45488687 54.20252549 24.48971765 55.18508339 23.53014946 C56.52573018 22.21935082 57.8462608 20.88807158 59.16564941 19.55587769 C60.28286251 18.44696073 60.28286251 18.44696073 61.42264557 17.3156414 C63.45848508 14.32691917 63.53292549 12.54361853 63 9 C59.54224233 6.69482822 56.73727959 6.39197312 52.72265625 5.9765625 C51.98104752 5.89483795 51.23943878 5.8131134 50.47535706 5.72891235 C40.48534688 4.67253994 30.45959566 4.03792381 20.4375 3.375 C18.44333334 3.23996731 16.44919249 3.10455283 14.45507812 2.96875 C9.63700395 2.64144678 4.81861371 2.31925755 0 2 C0 1.34 0 0.68 0 0 Z " fill="#FD4855" transform="translate(352,124)"/>
<path d="M0 0 C1.26290106 0.92500301 2.52270908 1.85422962 3.78125 2.78515625 C4.8340918 3.56064819 4.8340918 3.56064819 5.90820312 4.35180664 C8.57275592 6.45129262 10.87973587 8.796281 13.234375 11.23046875 C15.00381842 13.00382687 16.84317885 14.6261015 18.75 16.25 C22.16289498 19.21050345 25.45645807 22.28043479 28.6875 25.4375 C29.57824219 26.30246094 30.46898437 27.16742188 31.38671875 28.05859375 C32.24910156 29.02925781 33.11148438 29.99992187 34 31 C34.65923462 31.73598167 34.65923462 31.73598167 35.33178711 32.48683167 C40.38809251 39.16557396 39.6333725 46.68776871 39.48828125 54.65625 C39.47894155 56.16938095 39.47183091 57.68252715 39.46684265 59.19567871 C39.44786329 63.15473068 39.39884359 67.11284758 39.34332275 71.0715332 C39.29193247 75.12047684 39.26928669 79.16957338 39.24414062 83.21875 C39.19071352 91.14625973 39.10551387 99.07301315 39 107 C36.36073365 103.74543482 34.02961237 100.56015122 31.93359375 96.9296875 C31.3708374 95.95990967 30.80808105 94.99013184 30.22827148 93.9909668 C29.63731689 92.96269775 29.0463623 91.93442871 28.4375 90.875 C27.51529663 89.27942261 27.51529663 89.27942261 26.57446289 87.65161133 C25.31782972 85.47733841 24.06253665 83.3022904 22.80859375 81.12646484 C21.15637636 78.27032339 19.48893139 75.42400687 17.8125 72.58203125 C8.54540294 56.84243166 -0.18069592 40.83727728 -0.09765625 22.0703125 C-0.09443359 20.78125 -0.09121094 19.4921875 -0.08789062 18.1640625 C-0.07953733 16.81770764 -0.07107241 15.47135348 -0.0625 14.125 C-0.0574783 12.75520996 -0.05291657 11.38541815 -0.04882812 10.015625 C-0.03707254 6.6770381 -0.02063964 3.33854185 0 0 Z " fill="#FD4755" transform="translate(209,153)"/>
<path d="M0 0 C0.05883232 4.27077392 0.09387308 8.54144139 0.125 12.8125 C0.14175781 14.00810547 0.15851563 15.20371094 0.17578125 16.43554688 C0.33464338 45.58674824 -14.52456819 67.85845606 -29.16503906 91.93994141 C-31.7150792 96.19249636 -34.17694362 100.4945786 -36.63037109 104.8034668 C-37.08234863 105.52832275 -37.53432617 106.25317871 -38 107 C-38.33 107 -38.66 107 -39 107 C-39.13950297 98.28949996 -39.24587338 89.57938903 -39.31087303 80.86801243 C-39.34208244 76.8221678 -39.38436075 72.7770918 -39.45263672 68.73168945 C-39.51820658 64.82180758 -39.55378405 60.91266124 -39.56926346 57.00227165 C-39.58028308 55.51636118 -39.60180181 54.03048742 -39.63438034 52.54489326 C-39.82489898 43.49059956 -39.30478357 36.94178253 -33 30 C-32.33242676 29.2147998 -31.66485352 28.42959961 -30.97705078 27.62060547 C-30.38907715 27.04197754 -29.80110352 26.46334961 -29.1953125 25.8671875 C-28.19564453 24.87525391 -28.19564453 24.87525391 -27.17578125 23.86328125 C-26.49902344 23.20714844 -25.82226562 22.55101562 -25.125 21.875 C-24.12146484 20.87919922 -24.12146484 20.87919922 -23.09765625 19.86328125 C-18.55318993 15.38886451 -13.82928039 11.1628981 -9 7 C-8.17628906 6.26910156 -7.35257812 5.53820312 -6.50390625 4.78515625 C-5.54291016 3.93244141 -5.54291016 3.93244141 -4.5625 3.0625 C-3.90378906 2.47597656 -3.24507813 1.88945312 -2.56640625 1.28515625 C-1 0 -1 0 0 0 Z " fill="#FE646E" transform="translate(303,153)"/>
<path d="M0 0 C4.70981949 -0.10049676 9.41898615 -0.1722162 14.12963867 -0.21972656 C15.72480162 -0.23957606 17.31989451 -0.26666504 18.91479492 -0.30175781 C32.99095938 -0.60323157 45.65456335 1.03580495 58.3125 7.75 C58.97781738 8.09506592 59.64313477 8.44013184 60.32861328 8.7956543 C75.61408472 16.96905824 85.91809834 29.42975587 93.75683594 44.60009766 C95.15096578 47.2914363 96.58086055 49.96264866 98.0078125 52.63671875 C99.02841168 54.58990926 100.04666243 56.54432879 101.0625 58.5 C101.79714478 59.87925659 101.79714478 59.87925659 102.54663086 61.28637695 C105.37117432 66.84291393 106.71084304 70.75573176 106 77 C104.5625 79.5 104.5625 79.5 102 81 C95.65874073 82.38139465 90.14904451 80.27367569 84.28515625 77.97265625 C81.41786856 75.49747628 81.37384408 73.51725366 80.74536133 69.89624023 C79.22396946 63.98458884 76.15012861 58.56757612 73.39770508 53.14355469 C72.31843539 51.0117239 71.26087462 48.87009719 70.20507812 46.7265625 C66.4435067 39.18434931 62.52162547 32.42685393 57 26 C56.319375 25.0821875 55.63875 24.164375 54.9375 23.21875 C48.0369689 15.31652891 37.71820048 10.4138294 28 7 C27.00625366 6.63442993 27.00625366 6.63442993 25.99243164 6.26147461 C20.36535271 4.26464956 14.83974028 3.15044412 8.9375 2.3125 C8.07189453 2.18294922 7.20628906 2.05339844 6.31445312 1.91992188 C4.21069392 1.60610144 2.10548743 1.30200786 0 1 C0 0.67 0 0.34 0 0 Z " fill="#FD6570" transform="translate(406,222)"/>
<path d="M0 0 C4.82013663 4.01353144 9.3441508 8.21791338 13.74609375 12.68359375 C14.36090103 13.30218765 14.97570831 13.92078156 15.60914612 14.55812073 C18.20692186 17.17204823 20.79864894 19.79194184 23.39086914 22.41137695 C25.29881563 24.337579 27.20897448 26.26153414 29.12109375 28.18359375 C29.7294809 28.79520355 30.33786804 29.40681335 30.96469116 30.03695679 C34.69322777 33.76139533 38.49306286 37.33765523 42.56665039 40.68774414 C44 42 44 42 46 45 C38.13303506 45.09278582 30.26619891 45.16380813 22.39882374 45.20724869 C18.74542185 45.22810093 15.09239503 45.25637408 11.43920898 45.30175781 C7.91193151 45.34530186 4.3850142 45.36915489 0.85748863 45.37950897 C-1.13949599 45.39046874 -3.13633624 45.42168148 -5.13310242 45.45318604 C-6.35399063 45.45348816 -7.57487885 45.45379028 -8.83276367 45.45410156 C-10.44159676 45.46742523 -10.44159676 45.46742523 -12.08293152 45.48101807 C-15.7169374 44.88177863 -17.37406684 43.52892042 -20 41 C-21.79661437 37.40677127 -21.63266081 33.8609786 -21 30 C-19.20498205 25.69268512 -16.8653746 21.79008179 -14.4375 17.8125 C-13.82841797 16.75869141 -13.21933594 15.70488281 -12.59179688 14.61914062 C-9.01692118 8.61561922 -5.61155003 4.18157975 0 0 Z " fill="#FE9738" transform="translate(66,133)"/>
<path d="M0 0 C8.10154978 4.46072048 12.25935622 12.66741488 16.875 20.4375 C17.37257813 21.23220703 17.87015625 22.02691406 18.3828125 22.84570312 C21.551356 28.19479649 23.1796263 32.74750496 22 39 C20.20606332 41.87029869 19.01736724 43.49131638 16 45 C14.09018054 45.09119671 12.17712814 45.11752537 10.26513672 45.11352539 C9.06404266 45.11344986 7.86294861 45.11337433 6.62545776 45.11329651 C5.32335358 45.10813522 4.02124939 45.10297394 2.6796875 45.09765625 C1.33733167 45.09579138 -0.00502484 45.0943678 -1.34738159 45.09336853 C-4.88195675 45.08954878 -8.41649087 45.07972312 -11.9510498 45.06866455 C-15.55720464 45.05843878 -19.1633661 45.05386841 -22.76953125 45.04882812 C-29.84637096 45.03810038 -36.9231828 45.02103045 -44 45 C-39.31179066 39.36431339 -34.30014592 34.16896034 -29.1015625 29.00390625 C-28.26660248 28.17036118 -27.43164246 27.3368161 -26.57138062 26.47801208 C-23.92494152 23.83713476 -21.27503241 21.19977104 -18.625 18.5625 C-16.82138357 16.76390351 -15.01799575 14.96507773 -13.21484375 13.16601562 C-8.81253739 8.77468752 -4.40738286 4.38623271 0 0 Z " fill="#FE9739" transform="translate(445,133)"/>
<path d="M0 0 C2.94117635 4.71218374 3.45522018 8.81571897 3.43359375 14.25 C3.4388356 15.02633789 3.44407745 15.80267578 3.44947815 16.60253906 C3.45587292 18.23631601 3.45459445 19.87013916 3.44604492 21.50390625 C3.43752387 23.99302586 3.46634591 26.47985599 3.49804688 28.96875 C3.49965897 30.56249932 3.4990812 32.15625267 3.49609375 33.75 C3.50732773 34.48766602 3.51856171 35.22533203 3.53013611 35.98535156 C3.46131302 41.1276888 2.24745675 44.04521691 -1 48 C-6.01137588 51.46023573 -9.89591805 52.62635169 -16 52 C-20.69994029 50.28271412 -23.20959499 48.13393334 -26 44 C-27.18585363 40.44243912 -27.18093271 37.18487196 -27.203125 33.48046875 C-27.20882507 32.74427811 -27.21452515 32.00808746 -27.22039795 31.24958801 C-27.22983756 29.69204134 -27.23637781 28.1344748 -27.24023438 26.5769043 C-27.24992231 24.20650914 -27.28094675 21.83698797 -27.3125 19.46679688 C-27.31903241 17.95052596 -27.32428195 16.43424887 -27.328125 14.91796875 C-27.3404718 14.21463913 -27.3528186 13.51130951 -27.36553955 12.78666687 C-27.34160527 7.43876008 -26.12327495 3.38373001 -22.53515625 -0.64453125 C-15.11517342 -6.52934522 -7.29148686 -6.27407009 0 0 Z " fill="#FEA95B" transform="translate(268,92)"/>
<path d="M0 0 C4.91942058 2.36860991 7.37480691 5.2652461 10 10 C10.37224313 12.88665041 10.53987812 15.37495063 10.49609375 18.25 C10.49754898 19.02633789 10.49900421 19.80267578 10.50050354 20.60253906 C10.49885091 22.23636648 10.48736106 23.8702105 10.46655273 25.50390625 C10.43758304 27.99286591 10.4459591 30.47969384 10.45898438 32.96875 C10.45274623 34.56251026 10.44435469 36.15626386 10.43359375 37.75 C10.43652939 38.48766602 10.43946503 39.22533203 10.44248962 39.98535156 C10.35693322 44.71320068 9.51427015 47.99103336 7 52 C1.62442244 55.89729373 -3.5114269 56.76526361 -10 56 C-13.88379915 54.69796006 -16.45017313 52.87110834 -18.67041016 49.35351562 C-20.21015052 45.46995455 -20.43331863 42.08021125 -20.3984375 37.96875 C-20.40130768 37.21460815 -20.40417786 36.46046631 -20.40713501 35.68347168 C-20.40916695 34.09675338 -20.40369821 32.51000953 -20.39111328 30.92333984 C-20.37504596 28.5069124 -20.39099036 26.09215722 -20.41015625 23.67578125 C-20.40817366 22.12760051 -20.40432966 20.5794208 -20.3984375 19.03125 C-20.40451019 18.31545776 -20.41058289 17.59966553 -20.4168396 16.86218262 C-20.35177474 12.17723537 -19.4631241 8.98042031 -17 5 C-11.44369588 -0.01422567 -7.35941428 -0.80387448 0 0 Z " fill="#FEA95B" transform="translate(206,39)"/>
<path d="M0 0 C4.91942058 2.36860991 7.37480691 5.2652461 10 10 C10.37224313 12.88665041 10.53987812 15.37495063 10.49609375 18.25 C10.49754898 19.02633789 10.49900421 19.80267578 10.50050354 20.60253906 C10.49885091 22.23636648 10.48736106 23.8702105 10.46655273 25.50390625 C10.43758304 27.99286591 10.4459591 30.47969384 10.45898438 32.96875 C10.45274623 34.56251026 10.44435469 36.15626386 10.43359375 37.75 C10.43652939 38.48766602 10.43946503 39.22533203 10.44248962 39.98535156 C10.35693322 44.71320068 9.51427015 47.99103336 7 52 C1.55333385 55.94883296 -3.45623439 56.58266406 -10 56 C-14.1952156 54.73351982 -15.62343395 53.5373625 -18.140625 49.9453125 C-21.08284155 43.78119837 -20.55785037 36.87929668 -20.46655273 30.19970703 C-20.43747878 27.87330238 -20.44599122 25.54916659 -20.45898438 23.22265625 C-20.45274869 21.7291557 -20.44435908 20.23566227 -20.43359375 18.7421875 C-20.43652939 18.05454315 -20.43946503 17.3668988 -20.44248962 16.65841675 C-20.35337996 12.06086753 -19.40065699 8.91125129 -17 5 C-11.44369588 -0.01422567 -7.35941428 -0.80387448 0 0 Z " fill="#FEA95B" transform="translate(316,39)"/>
<path d="M0 0 C2.85009448 1.29527192 4.90891819 2.65978568 7.11621094 4.87329102 C7.98666046 5.7391256 7.98666046 5.7391256 8.87469482 6.62245178 C9.48838928 7.24333176 10.10208374 7.86421173 10.734375 8.50390625 C11.37240051 9.14238998 12.01042603 9.78087372 12.66778564 10.43870544 C14.01153063 11.78546576 15.35285011 13.13464994 16.69189453 14.48608398 C18.75108423 16.56359387 20.818228 18.63292661 22.88671875 20.70117188 C24.19057836 22.00994442 25.49398001 23.31917341 26.796875 24.62890625 C27.41866638 25.25181046 28.04045776 25.87471466 28.68109131 26.51649475 C33 30.88394041 33 30.88394041 33 32 C27.8222407 32.09908128 22.64503653 32.17156806 17.46655273 32.21972656 C15.70603825 32.23980786 13.94559018 32.26707879 12.18530273 32.30175781 C9.65071198 32.35043112 7.11700505 32.37300305 4.58203125 32.390625 C3.79850784 32.41127014 3.01498444 32.43191528 2.2077179 32.45318604 C-1.58067862 32.45473193 -3.7490078 32.16030862 -6.97387695 30.10058594 C-10.27672751 26.67635094 -10.39934067 24.11076812 -10.34765625 19.50439453 C-9.72855312 15.04459122 -7.41377272 11.65927658 -5 7.9375 C-4.52304687 7.16728516 -4.04609375 6.39707031 -3.5546875 5.60351562 C-2.38713408 3.72375461 -1.20266482 1.85741346 0 0 Z " fill="#FEA85B" transform="translate(55,146)"/>
<path d="M0 0 C5.53797937 5.28674565 11.41863456 14.27709323 11.8125 22.0625 C11.47743271 25.39455805 10.86064401 26.18078615 8.6875 29 C4.29948518 32.2654994 0.51990323 32.13486821 -4.73046875 32.09765625 C-5.48088943 32.0962413 -6.23131012 32.09482635 -7.00447083 32.09336853 C-9.3988546 32.0877756 -11.79314453 32.07522444 -14.1875 32.0625 C-15.81184761 32.05748408 -17.43619668 32.05292134 -19.06054688 32.04882812 C-23.04040069 32.03780848 -27.02018444 32.02054873 -31 32 C-25.19316781 24.88094773 -18.63714556 18.52625188 -12.125 12.0625 C-10.94768362 10.89020796 -9.77059826 9.71768386 -8.59375 8.54492188 C-5.73182511 5.69393018 -2.86678543 2.84610385 0 0 Z " fill="#FEA85B" transform="translate(432,146)"/>
<path d="M0 0 C17.61565064 -0.66176408 32.4910197 0.62901493 48 10 C48.92941406 10.48984375 49.85882813 10.9796875 50.81640625 11.484375 C54.36952301 15.57776891 53.52764416 20.03358166 53.3125 25.25 C53.28994141 26.28125 53.26738281 27.3125 53.24414062 28.375 C53.18527163 30.91814065 53.10310065 33.45833113 53 36 C48.66406923 32.3335821 44.44805303 28.58080306 40.3125 24.6875 C27.73207428 13.08917452 15.68913514 6.04087327 -1 2 C-0.67 1.34 -0.34 0.68 0 0 Z " fill="#FD4855" transform="translate(140,124)"/>
<path d="M0 0 C13.57055195 10.80105155 21.66874459 25.8079531 24 43 C24.38968096 48.67137462 24.25281939 54.32560923 24 60 C10.77681543 42.8589239 0.71258465 21.76946115 0 0 Z " fill="#FD646E" transform="translate(209,175)"/>
<path d="M0 0 C3.63124475 0.94728124 5.39727478 1.90790342 7.875 4.75 C8.58971317 10.09085661 7.60639296 12.89560867 4.515625 17.04882812 C4.05671875 17.63083984 3.5978125 18.21285156 3.125 18.8125 C2.23356972 19.99027635 1.3429363 21.16865628 0.453125 22.34765625 C0.01806641 22.91242676 -0.41699219 23.47719727 -0.86523438 24.05908203 C-2.09320831 25.70732766 -3.21676407 27.39271101 -4.328125 29.12109375 C-6.125 31.75 -6.125 31.75 -8.125 32.75 C-11.99924565 33.10872645 -14.27433906 33.31710729 -17.5625 31.125 C-19.61739513 28.00155941 -19.52237601 26.45884272 -19.125 22.75 C-17.85817593 20.2738042 -16.62174822 18.14589548 -15.0625 15.875 C-14.65346436 15.2651123 -14.24442871 14.65522461 -13.82299805 14.02685547 C-5.10438169 1.22505161 -5.10438169 1.22505161 0 0 Z " fill="#FD4755" transform="translate(150.125,333.25)"/>
</svg>
