<?xml version="1.0" encoding="UTF-8"?>
<svg version="1.1" xmlns="http://www.w3.org/2000/svg" width="512" height="512">
<path d="M0 0 C0.71165817 -0.0065712 1.42331635 -0.0131424 2.15653992 -0.01991272 C4.49091737 -0.03947713 6.82523094 -0.05127174 9.15966797 -0.0612793 C9.96446468 -0.06535482 10.7692614 -0.06943035 11.59844589 -0.07362938 C15.86038702 -0.09442073 20.12229663 -0.10875095 24.38427734 -0.11816406 C28.75157476 -0.12920052 33.11835882 -0.16358825 37.48547554 -0.20333576 C40.87444913 -0.22967186 44.26330357 -0.23787093 47.65237045 -0.24144554 C49.26049126 -0.24626948 50.86860829 -0.25776124 52.47662735 -0.27648354 C66.09359335 -0.42514838 77.86089029 1.62317776 89.52685547 9.17700195 C90.17912109 9.57145508 90.83138672 9.9659082 91.50341797 10.37231445 C99.87260526 15.94065819 106.34013263 25.1802901 110.52685547 34.17700195 C112.33089844 34.21567383 112.33089844 34.21567383 114.17138672 34.25512695 C149.94973277 35.32169978 184.92669786 43.15005449 216.52685547 60.17700195 C217.12304688 60.4925 217.71923828 60.80799805 218.33349609 61.13305664 C232.75622892 68.80556887 245.36766628 78.42474963 257.07177734 89.77758789 C258.40566821 91.06045072 259.76962163 92.31186327 261.13623047 93.55981445 C271.66430077 103.45083591 280.31201052 116.15966197 286.52685547 129.17700195 C286.80867676 129.76271973 287.09049805 130.3484375 287.38085938 130.9519043 C295.76378298 148.57169199 300.00502311 166.57212867 299.52685547 186.17700195 C291.93685547 186.17700195 284.34685547 186.17700195 276.52685547 186.17700195 C275.82560547 182.52637695 275.12435547 178.87575195 274.40185547 175.11450195 C268.4304189 145.76729281 253.34759882 121.97219008 228.40185547 105.11450195 C191.05149254 80.76626688 149.36444474 74.30200377 105.58935547 72.98950195 C103.14075375 72.90783319 100.69218545 72.82515585 98.24365234 72.74145508 C92.3383862 72.541731 86.43283691 72.35424787 80.52685547 72.17700195 C80.6882753 72.73037735 80.84969513 73.28375275 81.01600647 73.85389709 C81.57860062 76.41231494 81.67290412 78.72729542 81.70043945 81.34667969 C81.71392929 82.3797374 81.72741913 83.4127951 81.74131775 84.47715759 C81.75697533 86.15195946 81.75697533 86.15195946 81.77294922 87.8605957 C81.80594893 90.25838497 81.83915933 92.65617134 81.87255859 95.05395508 C81.91947195 98.80726649 81.96378246 102.56057194 82.00366211 106.31396484 C82.41217133 143.00396356 85.85746278 178.53366358 101.52685547 212.17700195 C101.8167334 212.81959961 102.10661133 213.46219727 102.40527344 214.12426758 C110.19534518 231.35064922 122.40470083 246.5456244 135.97216797 259.6262207 C137.65113731 261.30097153 139.17722837 263.05892922 140.71435547 264.86450195 C143.27929003 267.86172885 145.99301756 270.62246104 148.83911133 273.35375977 C174.60436001 298.26164273 186.79210538 338.12097532 189.64746094 373.13598633 C189.73125944 374.16224876 189.81505795 375.1885112 189.9013958 376.2458725 C190.84518618 388.93446003 190.77669624 401.6173064 190.72216797 414.33325195 C190.7184257 416.94453827 190.71558449 419.55582602 190.71359253 422.16711426 C190.70745905 428.26498021 190.69116268 434.36277156 190.67089355 440.46060514 C190.64604308 448.10824375 190.63533165 455.75589534 190.62451172 463.40356445 C190.60522249 476.99476791 190.56512854 490.58580936 190.52685547 504.17700195 C171.71685547 504.17700195 152.90685547 504.17700195 133.52685547 504.17700195 C133.52685547 454.01700195 133.52685547 403.85700195 133.52685547 352.17700195 C110.42685547 352.17700195 87.32685547 352.17700195 63.52685547 352.17700195 C63.52685547 402.33700195 63.52685547 452.49700195 63.52685547 504.17700195 C-2.47314453 504.17700195 -68.47314453 504.17700195 -136.47314453 504.17700195 C-136.59413858 411.33871766 -136.59413858 411.33871766 -136.61962891 372.51489258 C-136.62550205 363.6292316 -136.63156337 354.74357079 -136.63793945 345.85791016 C-136.6387307 344.74431863 -136.63952195 343.63072711 -136.64033717 342.48339039 C-136.65336628 324.53207418 -136.67700732 306.58078695 -136.70460292 288.62948789 C-136.73270995 270.19098561 -136.74933197 251.75249845 -136.75541002 233.31397563 C-136.75951548 221.9468865 -136.7724574 210.57987928 -136.79689393 199.21281538 C-136.81281659 191.40593326 -136.81753019 183.59909316 -136.81364866 175.792196 C-136.81173723 171.29571945 -136.81455704 166.7993855 -136.83076096 162.30293465 C-136.90913725 139.38948386 -136.45075171 117.97534664 -128.47314453 96.17700195 C-128.22580566 95.49428223 -127.9784668 94.8115625 -127.72363281 94.1081543 C-121.8617223 78.22984679 -113.79233103 63.82339625 -102.47314453 51.17700195 C-101.21050781 49.71713867 -101.21050781 49.71713867 -99.92236328 48.2277832 C-75.33755211 20.17975169 -37.80206136 0.29127102 0 0 Z " fill="#0C80E3" transform="translate(174.47314453125,-0.177001953125)"/>
<path d="M0 0 C7.33762614 -0.09340751 14.67512043 -0.16411846 22.0132246 -0.20724869 C25.42203727 -0.22796765 28.83043799 -0.2559899 32.23901367 -0.30175781 C36.1736121 -0.35424748 40.10805409 -0.3730748 44.04296875 -0.390625 C45.84534248 -0.42159271 45.84534248 -0.42159271 47.68412781 -0.45318604 C59.53150543 -0.45627112 70.04529433 2.55423273 80 9 C80.97839844 9.59167969 80.97839844 9.59167969 81.9765625 10.1953125 C90.34574979 15.76365624 96.81327716 25.00328814 101 34 C102.80404297 34.03867188 102.80404297 34.03867188 104.64453125 34.078125 C140.4228773 35.14469783 175.39984239 42.97305254 207 60 C207.59619141 60.31549805 208.19238281 60.63099609 208.80664062 60.95605469 C223.22937346 68.62856692 235.84081081 78.24774768 247.54492188 89.60058594 C248.87881274 90.88344877 250.24276616 92.13486131 251.609375 93.3828125 C262.1374453 103.27383396 270.78515505 115.98266001 277 129 C277.28182129 129.58571777 277.56364258 130.17143555 277.85400391 130.77490234 C286.23692751 148.39469004 290.47816764 166.39512672 290 186 C282.41 186 274.82 186 267 186 C266.29875 182.349375 265.5975 178.69875 264.875 174.9375 C258.90356343 145.59029086 243.82074335 121.79518813 218.875 104.9375 C181.52463707 80.58926493 139.83758927 74.12500182 96.0625 72.8125 C93.61389828 72.73083123 91.16532998 72.6481539 88.71679688 72.56445312 C82.81153073 72.36472905 76.90598144 72.17724592 71 72 C71.16141983 72.5533754 71.32283966 73.10675079 71.489151 73.67689514 C72.05174515 76.23531299 72.14604865 78.55029346 72.17358398 81.16967773 C72.18707382 82.20273544 72.20056366 83.23579315 72.21446228 84.30015564 C72.23011986 85.9749575 72.23011986 85.9749575 72.24609375 87.68359375 C72.27909346 90.08138302 72.31230386 92.47916939 72.34570312 94.87695312 C72.39261648 98.63026454 72.436927 102.38356999 72.47680664 106.13696289 C72.88531586 142.82696161 76.33060731 178.35666163 92 212 C92.28987793 212.64259766 92.57975586 213.28519531 92.87841797 213.94726562 C100.66848971 231.17364727 112.87784536 246.36862244 126.4453125 259.44921875 C128.12428184 261.12396958 129.65037291 262.88192726 131.1875 264.6875 C133.75243456 267.6847269 136.46616209 270.44545909 139.31225586 273.17675781 C165.07750454 298.08464077 177.26524991 337.94397336 180.12060547 372.95898438 C180.20440397 373.98524681 180.28820248 375.01150925 180.37454033 376.06887054 C181.31833071 388.75745808 181.24984077 401.44030445 181.1953125 414.15625 C181.19157023 416.76753632 181.18872902 419.37882407 181.18673706 421.9901123 C181.18060358 428.08797826 181.16430721 434.1857696 181.14403808 440.28360319 C181.11918761 447.9312418 181.10847618 455.57889339 181.09765625 463.2265625 C181.07836702 476.81776596 181.03827307 490.4088074 181 504 C162.19 504 143.38 504 124 504 C124 453.84 124 403.68 124 352 C100.9 352 77.8 352 54 352 C52.23464603 350.23464603 52.82802467 347.68434217 52.7890625 345.2890625 C52.76279785 344.07677979 52.7365332 342.86449707 52.70947266 341.61547852 C52.68159668 340.29862061 52.6537207 338.9817627 52.625 337.625 C52.11475116 317.93300967 50.55872638 298.20861406 46 279 C45.71382812 277.71609375 45.42765625 276.4321875 45.1328125 275.109375 C40.4406179 254.63163423 31.2657132 236.01579552 21.65625 217.4375 C17.21678602 208.84803464 13.66947261 200.22960604 10.67114258 191.03173828 C10.21626954 189.65470903 9.74414849 188.28327968 9.2565918 186.91748047 C7.07245618 180.71316806 5.69054501 174.45100773 4.4375 168 C4.22931641 167.01 4.02113281 166.02 3.80664062 165 C-0.34529584 143.7587451 -0.29396289 121.97069114 -0.20278788 100.41629863 C-0.19001259 96.8676746 -0.18908949 93.31904448 -0.18673706 89.770401 C-0.18059898 83.09529123 -0.16429587 76.42024947 -0.14403808 69.74516922 C-0.12143535 62.12684808 -0.11062534 54.50852314 -0.10064721 46.89017665 C-0.07991972 31.26007882 -0.04489862 15.63004828 0 0 Z " fill="#4EC053" transform="translate(184,0)"/>
<path d="M0 0 C66 0 132 0 200 0 C200 22.44 200 44.88 200 68 C134 68 68 68 0 68 C0 45.56 0 23.12 0 0 Z " fill="#FECB33" transform="translate(38,436)"/>
<path d="M0 0 C2.82148781 2.62360066 5.03957124 5.37753692 7.19506836 8.56689453 C12.81290959 16.87799836 19.36502773 24.01914456 26.31005859 31.22900391 C28.8390676 33.87931181 31.29311868 36.59551462 33.75 39.3125 C37.09649197 42.99265979 40.53184659 46.49912858 44.125 49.9375 C68.23569149 74.04819149 79.41693455 113.80407075 82.12060547 146.95898438 C82.20440397 147.98524681 82.28820248 149.01150925 82.37454033 150.06887054 C83.31833071 162.75745808 83.24984077 175.44030445 83.1953125 188.15625 C83.19157023 190.76753632 83.18872902 193.37882407 83.18673706 195.9901123 C83.18060358 202.08797826 83.16430721 208.1857696 83.14403808 214.28360319 C83.11918761 221.9312418 83.10847618 229.57889339 83.09765625 237.2265625 C83.07836702 250.81776596 83.03827307 264.4088074 83 278 C64.19 278 45.38 278 26 278 C25.97812622 269.86694214 25.97812622 269.86694214 25.95581055 261.56958008 C25.90523491 243.55656093 25.83874604 225.54362566 25.76428509 207.53069019 C25.7195676 196.62081184 25.68009955 185.71096438 25.65356445 174.80102539 C25.63038743 165.27750053 25.59677567 155.75407547 25.55129844 146.2306301 C25.52762798 141.2011462 25.50872985 136.17175952 25.50238609 131.14222145 C25.4389609 86.84154392 22.55458249 44.92982101 1.46875 4.95703125 C0 2 0 2 0 0 Z " fill="#0962AD" transform="translate(282,226)"/>
<path d="M0 0 C37.38820333 -1.00371016 74.02228674 7.23079144 107 25 C107.59619141 25.31549805 108.19238281 25.63099609 108.80664062 25.95605469 C123.22937346 33.62856692 135.84081081 43.24774768 147.54492188 54.60058594 C148.87881274 55.88344877 150.24276616 57.13486131 151.609375 58.3828125 C162.1374453 68.27383396 170.78515505 80.98266001 177 94 C177.28182129 94.58571777 177.56364258 95.17143555 177.85400391 95.77490234 C186.23692751 113.39469004 190.47816764 131.39512672 190 151 C182.41 151 174.82 151 167 151 C166.29875 147.349375 165.5975 143.69875 164.875 139.9375 C158.90356343 110.59029086 143.82074335 86.79518813 118.875 69.9375 C86.11911192 48.5843457 48.36068008 39.51564779 9.56030273 38.29003906 C8.33162476 38.25088379 8.33162476 38.25088379 7.078125 38.2109375 C6.00159668 38.18459229 6.00159668 38.18459229 4.90332031 38.15771484 C3 38 3 38 0 37 C0 24.79 0 12.58 0 0 Z " fill="#4C4C4C" transform="translate(284,35)"/>
<path d="M0 0 C66 0 132 0 200 0 C200 11.22 200 22.44 200 34 C134 34 68 34 0 34 C0 22.78 0 11.56 0 0 Z " fill="#FB9828" transform="translate(38,436)"/>
<path d="M0 0 C20.12809062 12.47706202 33.02225489 34.04114076 38.875 56.5 C39.91267986 61.63651532 40.47496961 66.78066193 40.875 72 C40.93671387 72.71865234 40.99842773 73.43730469 41.06201172 74.17773438 C41.3195445 78.71287595 40.84811314 81.43001486 38 85 C34.2794164 87.48038907 32.40203429 87.46337203 28 87 C24.347567 84.11650027 23.14202594 82.07772624 22.53515625 77.47265625 C22.3749646 76.00288946 22.21756931 74.53281605 22.0625 73.0625 C21.31520052 66.3132283 20.35191381 59.6588946 19 53 C11.34867838 56.39847784 6.38468728 60.04598488 3 68 C2.12963773 70.90215208 1.8752659 73.4844898 1.87542725 76.50950623 C1.87286423 77.40809357 1.87030121 78.30668091 1.86766052 79.23249817 C1.86976028 80.21079086 1.87186005 81.18908356 1.87402344 82.19702148 C1.8721553 83.23320618 1.87028717 84.26939087 1.86836243 85.3369751 C1.86435973 87.58666676 1.86228371 89.83636248 1.86190033 92.08605766 C1.85848578 96.86584651 1.83712772 101.64549921 1.81666946 106.42524052 C1.77862725 115.32591131 1.74738878 124.22643589 1.74951172 133.12719727 C1.7502976 139.3176391 1.72698978 145.50758162 1.6876297 151.69789314 C1.67715131 154.05778828 1.6756591 156.41774092 1.68328094 158.77764702 C1.69287541 162.07684507 1.67177135 165.3745233 1.64355469 168.67358398 C1.65375137 169.64985245 1.66394806 170.62612091 1.67445374 171.63197327 C1.6030378 176.28255629 1.51934996 178.33039828 -1.40911865 182.10609436 C-5.39828886 185.02213371 -7.15592268 184.69201105 -12 184 C-14.96858157 181.79259319 -15.82865791 180.51402627 -17 177 C-17.0943246 175.59745582 -17.13483656 174.19090324 -17.14044189 172.78520203 C-17.14900711 171.49675636 -17.14900711 171.49675636 -17.15774536 170.18228149 C-17.15886322 169.24258514 -17.15998108 168.30288879 -17.16113281 167.3347168 C-17.16609772 166.34239548 -17.17106262 165.35007416 -17.17617798 164.3276825 C-17.19081517 161.03485422 -17.19760727 157.74207426 -17.203125 154.44921875 C-17.20887898 152.15533955 -17.21463668 149.86146036 -17.22039795 147.56758118 C-17.23091497 142.74809546 -17.2367518 137.92862644 -17.24023438 133.10913086 C-17.24569425 126.9640396 -17.26966546 120.81917271 -17.29820633 114.67415142 C-17.31693578 109.92889285 -17.32204396 105.18368694 -17.32357025 100.43839455 C-17.32657847 98.17521767 -17.33454436 95.91204131 -17.34775543 93.64890099 C-17.53492728 59.09375446 -17.53492728 59.09375446 -5.01171875 45.90625 C4.70590572 37 4.70590572 37 10 37 C4.58656665 28.6108595 -1.71182112 22.25696653 -9.12109375 15.65234375 C-12.86647632 12.20171313 -12.86647632 12.20171313 -13.3125 8.1875 C-12.92653707 4.25067812 -11.76603321 2.76603321 -9 0 C-5.2409023 -1.25303257 -3.82141868 -1.1322722 0 0 Z " fill="#FECB32" transform="translate(423,328)"/>
<path d="M0 0 C18.81 0 37.62 0 57 0 C57 22.44 57 44.88 57 68 C38.19 68 19.38 68 0 68 C0 45.56 0 23.12 0 0 Z " fill="#FFB32C" transform="translate(308,436)"/>
<path d="M0 0 C2.5762833 2.33207459 4.12129164 4.74405414 5.77734375 7.7890625 C6.29103516 8.73136719 6.80472656 9.67367188 7.33398438 10.64453125 C8.12772461 12.11986328 8.12772461 12.11986328 8.9375 13.625 C9.46279297 14.58535156 9.98808594 15.54570312 10.52929688 16.53515625 C21.11828946 36.06979338 26.25882931 57.1853746 30 79 C30.19899902 80.14855469 30.39799805 81.29710937 30.60302734 82.48046875 C35.65437126 113.35944582 34.38534593 144.82106794 34 176 C26.41 176 18.82 176 11 176 C10.98541748 172.6378833 10.97083496 169.2757666 10.95581055 165.81176758 C10.90500834 154.58408773 10.83848125 143.35653549 10.76428509 132.12898731 C10.71976069 125.33543789 10.68025338 118.54193588 10.65356445 111.74829102 C10.62716119 105.16692757 10.58651171 98.58578009 10.53681374 92.00455284 C10.52039097 89.51936256 10.50872645 87.03413515 10.50238609 84.5488987 C10.43872788 61.84647319 9.68363782 38.56698588 3.875 16.5 C3.35146767 14.38544014 2.82802635 12.27085775 2.3046875 10.15625 C2.07765137 9.27775391 1.85061523 8.39925781 1.61669922 7.49414062 C1.00182598 5.0073849 0.48332454 2.51531792 0 0 Z " fill="#0C7FE2" transform="translate(297,260)"/>
<path d="M0 0 C18.81 0 37.62 0 57 0 C57 11.22 57 22.44 57 34 C38.19 34 19.38 34 0 34 C0 22.78 0 11.56 0 0 Z " fill="#FA7A25" transform="translate(308,436)"/>
<path d="M0 0 C20.12809062 12.47706202 33.02225489 34.04114076 38.875 56.5 C39.91267986 61.63651532 40.47496961 66.78066193 40.875 72 C40.93671387 72.71865234 40.99842773 73.43730469 41.06201172 74.17773438 C41.3195445 78.71287595 40.84811314 81.43001486 38 85 C34.2794164 87.48038907 32.40203429 87.46337203 28 87 C25.63502561 85.13291495 24.33969285 83.67938569 23 81 C22.78820736 79.18193846 22.58126828 77.36311149 22.4050293 75.54125977 C21.21358925 63.33401372 18.98482769 51.70163292 12.953125 40.85546875 C12 39 12 39 12 37 C11.34 37 10.68 37 10 37 C8.86361175 35.47565125 7.79312188 33.90212703 6.75 32.3125 C2.22170944 25.8674284 -3.26345649 20.8752699 -9.12109375 15.65234375 C-12.86647632 12.20171313 -12.86647632 12.20171313 -13.3125 8.1875 C-12.92653707 4.25067812 -11.76603321 2.76603321 -9 0 C-5.2409023 -1.25303257 -3.82141868 -1.1322722 0 0 Z " fill="#FF9926" transform="translate(423,328)"/>
<path d="M0 0 C3.3825 -0.04125 6.765 -0.0825 10.25 -0.125 C11.80895996 -0.15231201 11.80895996 -0.15231201 13.39941406 -0.18017578 C20.69544564 -0.22238873 26.57430305 0.76238384 34 2 C34 14.21 34 26.42 34 39 C28.946875 38.855625 23.89375 38.71125 18.6875 38.5625 C17.09639404 38.51939697 15.50528809 38.47629395 13.8659668 38.43188477 C12.61468994 38.39377686 11.36341309 38.35566895 10.07421875 38.31640625 C8.79119873 38.27974854 7.50817871 38.24309082 6.1862793 38.20532227 C3 38 3 38 0 37 C0 24.79 0 12.58 0 0 Z " fill="#262726" transform="translate(284,35)"/>
<path d="M0 0 C7.59 0 15.18 0 23 0 C23 11.22 23 22.44 23 34 C15.41 34 7.82 34 0 34 C0 22.78 0 11.56 0 0 Z " fill="#FDCB32" transform="translate(308,470)"/>
<path d="M0 0 C7.59 0 15.18 0 23 0 C23 10.89 23 21.78 23 33 C15.41 33 7.82 33 0 33 C0 22.11 0 11.22 0 0 Z " fill="#FF9825" transform="translate(308,437)"/>
<path d="M0 0 C3.74225404 1.1566967 5.28964665 1.79776291 7.4375 5.0625 C8 8.5 8 8.5 7.4375 12.0625 C4.99151113 15.44371991 3.54453441 16.83186783 -0.5625 17.6875 C-4.66953441 16.83186783 -6.11651113 15.44371991 -8.5625 12.0625 C-9.36035988 7.59448469 -9.07984028 5.81499495 -6.5 2.0625 C-3.5625 0.0625 -3.5625 0.0625 0 0 Z " fill="#030703" transform="translate(255.5625,29.9375)"/>
</svg>
