<?xml version="1.0" encoding="UTF-8"?>
<svg version="1.1" xmlns="http://www.w3.org/2000/svg" width="512" height="512">
<path d="M0 0 C3.3178566 2.80579839 5.58615823 6.42386547 8 10 C8.94303718 11.36265322 9.88711799 12.72458455 10.83203125 14.0859375 C13.01443354 17.24649242 15.17628869 20.42012906 17.328125 23.6015625 C22.10739433 30.65454155 26.99794288 37.63004476 31.8828125 44.61010742 C32.53507813 45.54443604 33.18734375 46.47876465 33.859375 47.44140625 C34.73287598 48.68966187 34.73287598 48.68966187 35.62402344 49.96313477 C38.21592857 53.79994536 38.15984499 56.36449523 38 61 C37.74992188 61.59554687 37.49984375 62.19109375 37.2421875 62.8046875 C36.84186102 66.4334533 39.02077386 68.8911178 41 71.75 C41.56267578 72.65298828 41.56267578 72.65298828 42.13671875 73.57421875 C43.42555815 75.57508632 43.42555815 75.57508632 46 78 C49.5 78.1875 49.5 78.1875 53 78 C58.61166406 81.04809382 61.75478567 87.17622957 65.1875 92.375 C66.52629417 94.36919462 67.86613817 96.36268483 69.20703125 98.35546875 C69.85623535 99.32403809 70.50543945 100.29260742 71.17431641 101.29052734 C93.17306172 133.93857167 117.84967485 156.2220219 157.1875 164.25 C164.43984204 165.65302127 171.60577979 166.74863841 179 167 C179.97195313 167.0515625 180.94390625 167.103125 181.9453125 167.15625 C200.17100121 167.70439101 218.87151275 164.1695982 233 152 C238.43551986 146.39755439 241.5279462 140.3547439 244 133 C237.54549933 132.51169527 232.47233376 134.26733811 226.4375 136.4375 C209.98858968 142.258593 194.87781972 142.58242779 178.7109375 135.57421875 C173.85067577 133.0392844 169.19676518 130.51956457 166 126 C165.50495831 122.47282797 165.41743727 120.17867343 167.0078125 116.9609375 C169.9956502 114.01996784 173.40936679 113.33133057 177.375 112.1875 C189.33447306 108.46116233 199.37145598 103.10624457 209 95 C209.59039062 94.55398437 210.18078125 94.10796875 210.7890625 93.6484375 C218.56465692 87.57708295 223.81713956 78.87002374 229.125 70.6875 C235.88597363 60.54603955 244.11929076 54.03915251 255.9152832 50.41088867 C258.21153039 49.95830827 260.22496525 49.95126769 262.5625 50.04296875 C272.96337737 50.32777979 281.24053185 49.97187657 291 46 C305.05626932 42.98794229 320.35353909 45.21521988 333 52 C333.80953125 52.42023437 334.6190625 52.84046875 335.453125 53.2734375 C342.06382539 56.94379569 349.52979352 62.05958704 353 69 C353.375 71.8125 353.375 71.8125 353 75 C349.09504514 79.89668943 344.79592912 81.57069373 339.125 83.6875 C329.98921699 87.29102936 320.05790699 91.94209301 313 99 C310.36790833 113.59958763 311.97785232 128.23399315 314.5769043 142.71411133 C315.79713595 149.68166124 317.03505182 156.93827551 316 164 C314.66796875 165.83789062 314.66796875 165.83789062 313 167 C312.01 167 311.02 167 310 167 C310.165 168.093125 310.33 169.18625 310.5 170.3125 C311.16622112 175.53905159 311.08701543 180.7404008 311 186 C311.78375 186.268125 312.5675 186.53625 313.375 186.8125 C316 188 316 188 318 191 C322.60517096 224.91080437 303.45994155 265.69068409 283.6796875 292.09765625 C281.50889371 294.78656632 279.28186115 297.40494222 277 300 C276.32839844 300.78117187 275.65679687 301.56234375 274.96484375 302.3671875 C272.69081947 304.96000024 270.36174191 307.48668361 268 310 C267.21544434 310.8355542 267.21544434 310.8355542 266.41503906 311.68798828 C257.04568181 321.58141236 247.0959685 330.10095235 236 338 C235.360625 338.45745605 234.72125 338.91491211 234.0625 339.38623047 C209.20514057 357 209.20514057 357 202 357 C202.144375 358.13953125 202.28875 359.2790625 202.4375 360.453125 C205.38732066 384.98776669 204.62982864 409.30600834 197 433 C196.79536133 433.63566895 196.59072266 434.27133789 196.37988281 434.92626953 C191.49922686 449.7469759 184.35655203 463.26386974 174 475 C173.24074219 475.90234375 172.48148437 476.8046875 171.69921875 477.734375 C154.98877895 497.03000245 131.19905367 508.78787414 106 512 C100.96140203 512.26238928 95.91979536 512.2947722 90.875 512.3125 C90.16501862 512.31511841 89.45503723 512.31773682 88.72354126 512.32043457 C73.92962282 512.32626641 55.09126212 511.90415826 42 504 C40.05352934 501.10996582 39.99779027 500.04198484 40.1875 496.4375 C41.20653442 492.12620052 41.20653442 492.12620052 44 490 C46.55784662 488.93304507 49.0740627 487.96724367 51.6875 487.0625 C57.36581829 485.07321191 62.65595425 482.77698449 68 480 C67.15518066 480.01571045 66.31036133 480.0314209 65.43994141 480.04760742 C33.41524194 480.56399426 33.41524194 480.56399426 19 477 C18.31405762 476.83902832 17.62811523 476.67805664 16.92138672 476.51220703 C-10.92147135 469.8137057 -39.09946962 452.51682652 -55.96484375 428.98046875 C-57.84174334 425.38957029 -57.66474826 422.98848953 -57 419 C-55.4453125 416.75390625 -55.4453125 416.75390625 -53 415 C-50.240596 414.83893347 -47.96278333 414.89439959 -45.25 415.1875 C-43.7187591 415.31521327 -42.18750887 415.44281478 -40.65625 415.5703125 C-39.88023438 415.64282227 -39.10421875 415.71533203 -38.3046875 415.79003906 C-34.79031617 416.11020425 -31.27177888 416.34120485 -27.75 416.5625 C-26.45578125 416.645 -25.1615625 416.7275 -23.828125 416.8125 C-18.21617817 417.08737087 -12.61682534 417.08656066 -7 417 C-7.47308594 416.67128906 -7.94617188 416.34257812 -8.43359375 416.00390625 C-23.92384631 404.86179476 -34.56365349 389.49088588 -38.4921875 370.68359375 C-39.09998886 366.27469622 -39.35976563 361.9470352 -39.4375 357.5 C-39.45981689 356.73421631 -39.48213379 355.96843262 -39.50512695 355.17944336 C-39.49063123 351.63190801 -39.07398461 349.1468339 -37.47265625 345.96875 C-34.63574493 343.70997701 -32.68397168 343.30643276 -29.06982422 343.546875 C-25.523598 344.32321327 -22.88528949 346.34114371 -20.0625 348.5 C6.3825645 367.33808538 40.95968724 374.99225713 73.00756836 370.18017578 C76.37261655 369.57808922 79.68672934 368.83978443 83 368 C83.64662598 367.83902832 84.29325195 367.67805664 84.95947266 367.51220703 C103.79179073 362.64395694 126.13234069 353.11593613 139 338 C139.97444077 335.58895513 140.76284668 333.33207497 141.47265625 330.84765625 C141.68184189 330.15167831 141.89102753 329.45570038 142.10655212 328.7386322 C142.54683607 327.26527668 142.981004 325.79008139 143.40942383 324.31323242 C144.05238631 322.09735536 144.71276425 319.88733033 145.37695312 317.67773438 C150.54851092 301.12412392 150.54851092 301.12412392 152.375 284 C152.38273438 282.783125 152.39046875 281.56625 152.3984375 280.3125 C151.96424747 276.70276325 151.28222746 274.81560197 149 272 C146.99411525 270.99065319 146.99411525 270.99065319 144.8125 270.6875 C142.9253125 270.3471875 142.9253125 270.3471875 141 270 C140.835 271.155 140.67 272.31 140.5 273.5 C137.84354009 285.3418248 130.93457033 296.0359944 123 305 C122.2265625 305.969375 121.453125 306.93875 120.65625 307.9375 C105.4251953 326.21476564 79.03020462 335.78830129 56 338 C40.04669458 339.03729558 26.72132534 337.08465578 11.875 331.125 C11.04403809 330.79757812 10.21307617 330.47015625 9.35693359 330.1328125 C5.71738138 328.59372455 3.44803881 327.55856072 0.94140625 324.43359375 C-0.32797972 321.15215201 -0.06449979 319.33543269 1 316 C4.54452192 311.63247563 9.48378815 309.08738549 14.25 306.25 C15.09046875 305.74339844 15.9309375 305.23679687 16.796875 304.71484375 C18.86153293 303.47135659 20.92924133 302.23329143 23 301 C22.32646484 300.8548999 21.65292969 300.7097998 20.95898438 300.56030273 C7.32317809 297.57776058 -5.57071547 294.43935056 -18 288 C-18.59280762 287.70399902 -19.18561523 287.40799805 -19.79638672 287.10302734 C-34.75494355 279.56469663 -46.01426175 268.4245783 -57 256 C-57.57621094 255.45214844 -58.15242188 254.90429688 -58.74609375 254.33984375 C-60.84806023 252.09381727 -60.88014292 249.9964269 -61 247 C-59.34263835 243.16189933 -57.82275737 241.54940077 -54 240 C-51.4921875 239.62109375 -51.4921875 239.62109375 -48.875 239.4375 C-45.30201227 239.21950935 -45.30201227 239.21950935 -42 238 C-42.93005859 237.46826172 -42.93005859 237.46826172 -43.87890625 236.92578125 C-69.79289116 221.34721391 -85.73372791 197.86823375 -94.9375 169.4375 C-95.39769531 168.02730591 -95.39769531 168.02730591 -95.8671875 166.58862305 C-99.29678358 155.59356717 -99.29678358 155.59356717 -96.5625 150.125 C-93.47804347 147.567158 -91.55404212 147.64389891 -87.64086914 147.73779297 C-82.75510847 148.22289114 -78.13468765 149.61975426 -73.4375 151 C-72.42880859 151.28617188 -71.42011719 151.57234375 -70.38085938 151.8671875 C-67.917374 152.56770467 -65.45748534 153.27877105 -63 154 C-63.77923828 152.63681641 -63.77923828 152.63681641 -64.57421875 151.24609375 C-69.52721894 142.39966676 -73.30531001 133.81928699 -76 124 C-76.3196875 122.86304687 -76.639375 121.72609375 -76.96875 120.5546875 C-81.14626932 102.64550747 -79.94426718 82.99308463 -77.75 64.875 C-77.64091309 63.92810303 -77.53182617 62.98120605 -77.41943359 62.00561523 C-76.8899171 58.25562522 -76.38230193 55.5984633 -74.328125 52.3828125 C-70.89343036 50.34274219 -68.94892193 50.38362301 -65 51 C-62.07216644 52.48576628 -59.54068837 54.3844505 -56.9375 56.375 C-56.20668213 56.91286133 -55.47586426 57.45072266 -54.72290039 58.00488281 C-53.21697767 59.11332544 -51.71558838 60.22795303 -50.21875 61.34863281 C-46.83043697 63.87048023 -43.38291688 66.30712273 -39.9375 68.75 C-38.77946802 69.57745379 -37.62186582 70.40550965 -36.46484375 71.234375 C-35.24474609 72.10835937 -35.24474609 72.10835937 -34 73 C-33.85751831 71.98969727 -33.85751831 71.98969727 -33.7121582 70.95898438 C-30.18254718 46.37529596 -23.91602504 22.03372966 -10 1 C-6.58999149 -0.70500426 -3.61531104 -1.03110475 0 0 Z " fill="#020100" transform="translate(159,0)"/>
<path d="M0 0 C5.75656312 4.47611087 9.89376068 10.51990693 11.7421875 17.59765625 C12.66391563 25.02441165 12.22135066 32.57468918 11.9921875 40.03515625 C11.89862593 43.99197753 11.82233743 47.94885269 11.7578125 51.90625 C11.74144745 52.85108749 11.7250824 53.79592499 11.70822144 54.76939392 C11.63295221 61.93670987 12.30629274 68.56320262 13.7421875 75.59765625 C13.98607792 77.13954767 14.22373505 78.68244724 14.453125 80.2265625 C14.67226563 81.52464844 14.89140625 82.82273437 15.1171875 84.16015625 C15.21773437 84.83111328 15.31828125 85.50207031 15.421875 86.19335938 C16.17811428 90.52884481 17.24700108 92.88587368 20.7421875 95.59765625 C22.8803841 96.38492405 22.8803841 96.38492405 24.7421875 96.59765625 C25.70423838 102.97124336 25.84874328 109.15695154 25.7421875 115.59765625 C24.7934375 116.01015625 23.8446875 116.42265625 22.8671875 116.84765625 C19.46311648 118.75393602 18.99151439 119.07682593 17.7421875 122.59765625 C17.37807666 125.44118855 17.09601187 128.2437079 16.8671875 131.09765625 C12.48645367 176.10365987 -10.2321139 215.41978635 -44.62890625 244.50390625 C-64.13103127 260.45349426 -86.25322313 273.76542386 -110.2578125 281.59765625 C-111.25039063 281.92378906 -112.24296875 282.24992187 -113.265625 282.5859375 C-119.87093131 284.5712931 -126.38331472 285.24973228 -133.2578125 285.59765625 C-133.46905648 280.45518571 -132.80668627 276.14960673 -131.2578125 271.28515625 C-131.04141113 270.57584961 -130.82500977 269.86654297 -130.60205078 269.13574219 C-129.83153869 266.61954689 -129.0455174 264.10852174 -128.2578125 261.59765625 C-127.23295967 258.31699647 -126.21017103 255.03572982 -125.19140625 251.75317383 C-124.50398487 249.54172528 -123.81156152 247.33182311 -123.11328125 245.1237793 C-119.87654782 234.75231947 -116.66121159 224.36450261 -116.8203125 213.41015625 C-116.82933594 212.64405029 -116.83835937 211.87794434 -116.84765625 211.08862305 C-117.10238167 202.7437122 -118.83556528 196.54080124 -125.0078125 190.66015625 C-130.53831894 186.32130589 -135.75858607 184.79066898 -142.6328125 183.78515625 C-152.39556331 182.12197294 -159.60059374 176.56919177 -165.2578125 168.59765625 C-166.8999884 166.01785088 -168.14573447 163.44478194 -169.2578125 160.59765625 C-169.556875 159.83324219 -169.8559375 159.06882813 -170.1640625 158.28125 C-173.75211054 147.40082655 -174.22043802 133.72822523 -169.5859375 123.12109375 C-160.66481469 106.17096041 -160.66481469 106.17096041 -154.2578125 103.59765625 C-151.74132655 103.81058968 -149.75476869 104.54630202 -147.3984375 105.45703125 C-143.39406793 106.91135453 -139.35223442 107.81465091 -135.1953125 108.72265625 C-134.45176514 108.89265137 -133.70821777 109.06264648 -132.94213867 109.23779297 C-106.8930198 115.02011855 -75.64639186 114.06343986 -52.0703125 100.84765625 C-40.21304519 93.25669906 -30.55062012 82.61791666 -26.66015625 68.78515625 C-25.62241245 63.14305406 -25.44080188 58.46997226 -27.7578125 53.16015625 C-32.95757991 47.83039466 -38.39785391 47.34599744 -45.5703125 46.97265625 C-53.14563242 46.89580388 -59.165598 49.20710184 -66.07666016 52.09155273 C-74.18862741 55.31524154 -81.65933275 55.29125961 -90.2578125 54.59765625 C-90.5878125 53.93765625 -90.9178125 53.27765625 -91.2578125 52.59765625 C-89.80761719 51.870625 -89.80761719 51.870625 -88.328125 51.12890625 C-80.23564459 46.9930737 -73.14213027 42.59774972 -66.2578125 36.59765625 C-65.64808594 36.11941406 -65.03835938 35.64117187 -64.41015625 35.1484375 C-56.60452031 28.94304583 -50.93224385 20.83199712 -45.7578125 12.41015625 C-41.03432362 4.8096239 -35.2897774 -2.30973854 -26.41015625 -5 C-16.86545278 -6.78421862 -8.25184064 -5.12527818 0 0 Z " fill="#FD989F" transform="translate(444.2578125,70.40234375)"/>
<path d="M0 0 C0.99 0.495 0.99 0.495 2 1 C0.0297852 2.76101609 -1.94837601 4.5104832 -3.9375 6.25 C-4.55197998 6.78778076 -5.16645996 7.32556152 -5.79956055 7.87963867 C-9.29973571 10.88059922 -12.85192511 13.64947025 -16.6796875 16.22265625 C-17.83609741 17.00044434 -17.83609741 17.00044434 -19.01586914 17.79394531 C-20.52320566 18.7906109 -22.0430845 19.76861294 -23.57592773 20.72558594 C-27.33435833 23.20935754 -28.76907842 24.18788254 -30.04296875 28.66796875 C-30.16883202 32.00011826 -30.16883202 32.00011826 -29 35 C-24.93311851 36.1510042 -22.43454373 36.63732476 -18.51171875 34.89453125 C-15.56265684 33.05519041 -12.78431658 31.08109816 -10 29 C-9.45537109 28.59668457 -8.91074219 28.19336914 -8.34960938 27.77783203 C-0.88439485 22.21304783 6.12095092 16.258066 12.82568359 9.79614258 C15.21881914 7.51185536 16.81645517 6.06118161 20 5 C22.70123106 5.16011121 25.31875231 5.60440608 28 6 C26.69442904 12.9279491 24.57747949 18.92206813 21.625 25.3125 C21.18583252 26.26600342 20.74666504 27.21950684 20.29418945 28.2019043 C12.8069975 44.09429333 3.51334776 58.59399854 -7.56152344 72.21533203 C-8.82562181 73.78365503 -10.04551786 75.38739135 -11.2578125 76.99609375 C-22.29560161 90.78283795 -42.55673897 96.16048539 -59.35766602 98.60742188 C-65.32396759 99.25048193 -71.26258264 99.33435094 -77.25585938 99.31567383 C-79.36641171 99.31251286 -81.4755567 99.33608785 -83.5859375 99.36132812 C-109.28012679 99.48258353 -132.94957985 89.79730072 -153 74 C-153.99386719 73.21882813 -153.99386719 73.21882813 -155.0078125 72.421875 C-156.37021679 71.31927804 -157.69198753 70.16660571 -159 69 C-159 68.67 -159 68.34 -159 68 C-157.98800537 67.97494385 -156.97601074 67.9498877 -155.93334961 67.92407227 C-152.10318777 67.82840499 -148.27314201 67.72860407 -144.44311523 67.62768555 C-142.79958857 67.58492791 -141.15603405 67.54322494 -139.51245117 67.50268555 C-124.39579018 67.12857936 -109.51961721 66.61696184 -94.625 63.75 C-93.45743164 63.52820068 -92.28986328 63.30640137 -91.08691406 63.07788086 C-78.8060702 60.67484872 -67.1514408 57.35611741 -55.5 52.8125 C-54.85772461 52.56250244 -54.21544922 52.31250488 -53.55371094 52.05493164 C-50.12069212 50.8011093 -50.12069212 50.8011093 -48 48 C-47.63724048 43.88917391 -47.63724048 43.88917391 -49.0625 40.125 C-52.08186809 38.37181853 -54.54612375 38.78391491 -58 39 C-60.7049996 39.8331621 -63.25258824 40.71686338 -65.875 41.75 C-74.44919002 44.9365583 -83.01575222 47.29204531 -92 49 C-93.13179688 49.22300781 -94.26359375 49.44601562 -95.4296875 49.67578125 C-108.09709403 51.45665136 -119.20498893 45.26625784 -129.28125 38.12890625 C-140.75020599 29.1481864 -148.03082592 18.07970707 -152 4 C-151.67 3.01 -151.34 2.02 -151 1 C-150.09121094 1.50789063 -149.18242187 2.01578125 -148.24609375 2.5390625 C-114.05850332 21.38453495 -75.99484021 27.44049437 -37.92480469 17.17041016 C-17.54675364 11.31938801 -17.54675364 11.31938801 0 0 Z " fill="#FB7F86" transform="translate(288,365)"/>
<path d="M0 0 C5.3044522 1.64109799 9.32032553 5.0114403 13.6875 8.3125 C15.39914821 9.59063608 17.11140197 10.86796157 18.82421875 12.14453125 C20.12238525 13.11447021 20.12238525 13.11447021 21.44677734 14.10400391 C25.26930188 16.94257013 29.13280324 19.72277044 33 22.5 C40.00274519 27.53924391 46.95614394 32.64214226 53.89453125 37.76953125 C59.23857676 41.71415404 64.60910781 45.61969056 70 49.5 C77.00215242 54.54007819 83.95613256 59.64213385 90.89453125 64.76953125 C96.23857676 68.71415404 101.60910781 72.61969056 107 76.5 C113.19654324 80.96020888 119.35981232 85.46252661 125.5 90 C133.96180835 96.25249068 142.48111121 102.42216512 151.01855469 108.57080078 C155.35615226 111.69947207 159.67842467 114.84924794 164 118 C163.34 121.3 162.68 124.6 162 128 C155.22026033 126.95872353 148.67934844 125.14994114 142.0625 123.375 C141.39561157 123.19703888 140.72872314 123.01907776 140.04162598 122.83572388 C130.46072736 120.2751831 120.95310878 117.52648861 111.48461914 114.57568359 C103.27898946 112.03613736 95.00045118 109.8217247 86.69702148 107.62695312 C78.56873147 105.46279818 70.52904932 103.07819256 62.50561523 100.5546875 C57.6110343 99.0333124 52.72230956 97.65648198 47.734375 96.47265625 C46.70143311 96.22394775 45.66849121 95.97523926 44.60424805 95.71899414 C42.64442028 95.25573924 40.6798369 94.8119534 38.71020508 94.39233398 C31.90333727 92.77673911 27.8443759 89.99675934 23 85 C22.23429687 84.24074219 21.46859375 83.48148437 20.6796875 82.69921875 C8.62852289 69.26556123 3.18180682 53.51138284 0 36 C-0.26018921 34.82425415 -0.26018921 34.82425415 -0.52563477 33.62475586 C-0.99517551 31.02669486 -1.12926401 28.6526606 -1.1328125 26.015625 C-1.13410156 25.07976562 -1.13539062 24.14390625 -1.13671875 23.1796875 C-1.13285156 22.21289062 -1.12898438 21.24609375 -1.125 20.25 C-1.12886719 19.29867187 -1.13273437 18.34734375 -1.13671875 17.3671875 C-1.12867919 11.49831115 -0.75450635 5.82047757 0 0 Z " fill="#FB7F86" transform="translate(96,73)"/>
<path d="M0 0 C1.61863381 2.38535509 2.05554313 3.84694877 2.1875 6.75 C1.57580251 8.34721012 0.94441689 9.93951996 0.21875 11.48828125 C-6.00101918 25.12936592 -7.86245453 36.37245475 -4.94702148 51.02612305 C-1.74059734 67.93563287 -3.12349767 85.15153484 -12.0625 100.19140625 C-20.51488214 112.54924175 -31.26132645 118.64675592 -44.4375 125.0625 C-45.32018555 125.495625 -46.20287109 125.92875 -47.11230469 126.375 C-52.45633397 128.90627722 -57.85773822 131.23717545 -63.8125 131.75 C-66.89199398 130.57061933 -68.21798712 129.53367606 -70.1875 126.9375 C-71.09504169 123.76110407 -70.73271449 121.94007689 -69.8125 118.75 C-69.07615748 117.49986624 -68.30137206 116.27197821 -67.5 115.0625 C-58.27673394 101.13403154 -58.59714802 84.8565274 -61.3125 69 C-63.88494244 53.74296283 -63.47452404 38.37151708 -54.57421875 25.0546875 C-42.87448332 9.74904692 -29.86517447 1.71118186 -11 -2 C-6.91746948 -2.32019847 -3.45813208 -2.38491868 0 0 Z " fill="#010000" transform="translate(451.8125,337.25)"/>
<path d="M0 0 C7.10283941 1.51991866 14.11234388 3.2965883 21.125 5.1875 C22.26445068 5.49429688 23.40390137 5.80109375 24.57788086 6.1171875 C32.89968798 8.37989707 41.1511406 10.82766987 49.38989258 13.3737793 C63.77391408 17.80466533 78.2953581 21.75479384 92.83886719 25.625 C103.08173936 28.35237399 113.24856357 31.23519475 123.37402344 34.37060547 C131.55508775 36.89449067 139.78652405 39.21236424 148.03564453 41.50244141 C154.3476546 43.25550007 160.65093876 45.03259915 166.9375 46.875 C167.63536621 47.07818848 168.33323242 47.28137695 169.05224609 47.49072266 C173.75459416 48.87729708 173.75459416 48.87729708 176 50 C176.4140625 52.06640625 176.4140625 52.06640625 176.625 54.5625 C176.73714844 55.80193359 176.73714844 55.80193359 176.8515625 57.06640625 C176.90054688 57.70449219 176.94953125 58.34257812 177 59 C155.90948029 61.57336681 134.78187207 63.79732459 113.63922119 65.89398193 C110.84607332 66.17119626 108.05344993 66.45301447 105.26116943 66.73883057 C101.27807411 67.14609831 97.29350361 67.53666442 93.30859375 67.92578125 C92.11492691 68.04950607 90.92126007 68.1732309 89.69142151 68.30070496 C67.97211333 70.36784008 49.12167289 62.89997844 32.04296875 49.56640625 C16.47903436 36.43995581 3.70488208 20.54525516 0 0 Z " fill="#FDDB3F" transform="translate(81,167)"/>
<path d="M0 0 C2.28674054 2.10204227 4.34811527 4.36053397 6.4609375 6.63671875 C12.90757665 12.63705211 21.25531941 15.88607564 29.96484375 16.359375 C47.40594514 17.46446663 61.29066153 20.13111831 74.09765625 33.12890625 C81.19775962 41.55556822 84.11988874 51.79177495 84.1328125 62.703125 C84.13410156 63.76660156 84.13539062 64.83007812 84.13671875 65.92578125 C84.13285156 67.02277344 84.12898438 68.11976563 84.125 69.25 C84.12886719 70.33152344 84.13273437 71.41304688 84.13671875 72.52734375 C84.11398647 91.37240325 84.11398647 91.37240325 80 96 C77.33540916 97.12046602 74.86693796 97.31728958 72 97 C69.5 95.0625 69.5 95.0625 67 92 C56.92605509 80.4327409 44.65837988 76.29282309 29.75 75.125 C28.96109375 75.07214844 28.1721875 75.01929688 27.359375 74.96484375 C23.60866118 74.62905349 21.54063558 74.40547669 18.46875 72.1015625 C16.68050269 69.54284693 16.66019843 68.05821414 17 65 C16.195625 64.95875 15.39125 64.9175 14.5625 64.875 C10.28995256 63.82560238 7.51113459 61.89223128 3.953125 59.375 C1.05339358 57.33358908 0.36667799 56.97232619 -3.3125 57.25 C-7 57 -7 57 -9.6875 55.1875 C-16.87917002 45.27465754 -17.88030211 32.87820975 -17 21 C-13.99133176 3.32659137 -13.99133176 3.32659137 -9.3125 -0.3125 C-5.61149514 -1.41279874 -3.7364842 -1.16382295 0 0 Z " fill="#020101" transform="translate(17,301)"/>
<path d="M0 0 C0.66 0 1.32 0 2 0 C3.41357422 1.74975586 3.41357422 1.74975586 5.0546875 4.21484375 C5.96891479 5.57464355 5.96891479 5.57464355 6.90161133 6.96191406 C7.55282959 7.94385742 8.20404785 8.92580078 8.875 9.9375 C10.22935686 11.95257068 11.58484039 13.96688453 12.94140625 15.98046875 C13.62090332 16.99157715 14.30040039 18.00268555 15.00048828 19.04443359 C17.88913409 23.3142683 20.8390532 27.5389289 23.8125 31.75 C24.30927246 32.45761475 24.80604492 33.16522949 25.31787109 33.89428711 C27.10132612 36.4171394 28.81092994 38.81092994 31 41 C32.3387294 40.78072536 33.67163123 40.5251621 35 40.25 C37.76495738 40.14625772 39.34569481 40.41266566 41.43115234 42.28466797 C42.96398647 44.02112581 44.33669785 45.80609362 45.6875 47.6875 C46.14576172 48.31237305 46.60402344 48.93724609 47.07617188 49.58105469 C48.32421875 51.44921875 48.32421875 51.44921875 50 55 C49.26953125 57.58203125 49.26953125 57.58203125 48 60 C47.52418014 64.68499555 48.25096985 67.13046245 50.875 71 C51.51824219 71.95648438 52.16148437 72.91296875 52.82421875 73.8984375 C55.94643453 78.34913647 59.07982347 82.78892023 62.26953125 87.19140625 C64.18235694 89.83966728 66.04672813 92.51549318 67.88671875 95.21484375 C74.26537122 104.53046748 80.98954844 113.03450362 89 121 C89.80824219 121.80824219 90.61648437 122.61648437 91.44921875 123.44921875 C97.8029888 129.46692162 104.92099603 134.16859942 112.25976562 138.87744141 C114.86019301 140.55487759 117.42949794 142.27713282 120 144 C119.06558465 145.27310312 118.12732889 146.543388 117.1875 147.8125 C116.40439453 148.87404297 116.40439453 148.87404297 115.60546875 149.95703125 C114.16646895 151.78816725 112.65942135 153.37299713 111 155 C110.51869629 154.64397705 110.03739258 154.2879541 109.54150391 153.92114258 C100.72570719 147.40362344 91.89819628 140.90471843 83 134.5 C72.80641499 127.15999335 62.70598332 119.69545364 52.60449219 112.22949219 C44.09906224 105.94498234 35.58189593 99.67982899 27 93.5 C22.34420096 90.14718909 17.69637124 86.78439897 13.0703125 83.390625 C12.25022705 82.78951904 11.4301416 82.18841309 10.58520508 81.5690918 C8.95714654 80.36529462 7.33699695 79.15072004 5.7253418 77.92504883 C2.29458588 75.32727628 -0.99502234 72.8993298 -4.86328125 70.99609375 C-8.64526265 68.938447 -10.63926759 67.62557357 -13 64 C-17.64576767 42.61707999 -9.75723649 18.83822886 0 0 Z " fill="#FBC538" transform="translate(155,23)"/>
<path d="M0 0 C4.83224399 20.56587337 1.47446594 45.31489267 -5 65 C-5.36037354 66.11906738 -5.36037354 66.11906738 -5.72802734 67.26074219 C-13.68857276 91.20435011 -30.23191705 111.6333609 -52.625 123.3125 C-61.30505608 127.62105923 -70.56527355 129.95724573 -80 132 C-80.78850342 132.18030762 -81.57700684 132.36061523 -82.3894043 132.54638672 C-87.41956995 133.42042093 -92.53277581 133.18461325 -97.625 133.1875 C-98.7696875 133.19974609 -99.914375 133.21199219 -101.09375 133.22460938 C-102.73730469 133.22750977 -102.73730469 133.22750977 -104.4140625 133.23046875 C-105.91380615 133.23663208 -105.91380615 133.23663208 -107.44384766 133.24291992 C-110 133 -110 133 -113 131 C-111.38544922 130.09121094 -111.38544922 130.09121094 -109.73828125 129.1640625 C-96.20665595 121.44348825 -84.31967189 112.75201873 -73 102 C-72.47825195 101.51080078 -71.95650391 101.02160156 -71.41894531 100.51757812 C-45.78744799 76.35031521 -24.85450587 43.56157496 -15.30883789 9.53637695 C-13.50522184 3.3656578 -13.50522184 3.3656578 -10.87890625 1.46484375 C-10.11449219 1.29082031 -9.35007812 1.11679687 -8.5625 0.9375 C-7.80066406 0.74027344 -7.03882813 0.54304688 -6.25390625 0.33984375 C-4 0 -4 0 0 0 Z " fill="#FCDA3F" transform="translate(346,364)"/>
<path d="M0 0 C3.23146263 2.51097013 6.61963748 4.18421049 10.34765625 5.82421875 C16.13337054 8.60993304 16.13337054 8.60993304 18.34765625 10.82421875 C18.99778343 14.9416909 19.14190584 17.39705151 17.09765625 21.0703125 C8.37992697 32.71413147 -3.17311941 41.19101634 -17.65234375 43.82421875 C-34.51084301 45.63835085 -46.27759881 40.72187427 -59.65234375 30.82421875 C-64.82497137 27.1525408 -69.7868532 24.10476074 -75.70703125 21.78125 C-77.87708754 20.71365203 -79.14904799 19.71708811 -80.65234375 17.82421875 C-81.37734897 13.61918846 -81.47670914 11.28059761 -79.36328125 7.546875 C-77.57896827 5.16371725 -75.69360107 2.9908508 -73.65234375 0.82421875 C-72.78416016 -0.10583984 -72.78416016 -0.10583984 -71.8984375 -1.0546875 C-50.36384294 -21.84510601 -21.53792227 -17.91982439 0 0 Z " fill="#010000" transform="translate(347.65234375,52.17578125)"/>
<path d="M0 0 C1.86785156 0.01353516 1.86785156 0.01353516 3.7734375 0.02734375 C5.18496094 0.04474609 5.18496094 0.04474609 6.625 0.0625 C8.605 4.0225 8.605 4.0225 10.625 8.0625 C-1.22731297 15.60228463 -13.14554409 23.0284542 -25.12451172 30.36523438 C-26.16623535 31.00396484 -27.20795898 31.64269531 -28.28125 32.30078125 C-29.29574219 32.92162598 -30.31023437 33.5424707 -31.35546875 34.18212891 C-35.2603033 36.61381032 -39.09659088 39.14615334 -42.91992188 41.70385742 C-53.67771157 47.65722851 -72.93750607 44.7215895 -84.375 42.0625 C-85.27089844 41.90265625 -86.16679687 41.7428125 -87.08984375 41.578125 C-101.30562829 38.69206723 -115.28429833 31.27977233 -126.375 22.0625 C-127.179375 21.40765625 -127.98375 20.7528125 -128.8125 20.078125 C-132.82161682 16.70935323 -132.82161682 16.70935323 -134.375 15.0625 C-134.375 14.4025 -134.375 13.7425 -134.375 13.0625 C-123.71005964 11.65319777 -113.04223526 10.50748353 -102.32821655 9.54458618 C-97.71167354 9.1290137 -93.09610703 8.70282875 -88.48046875 8.27734375 C-87.47335342 8.18462692 -86.4662381 8.0919101 -85.42860413 7.99638367 C-72.37310298 6.79080092 -59.32205003 5.53872157 -46.27154541 4.28039551 C-43.47212705 4.01052736 -40.67260601 3.74176539 -37.87298584 3.47399902 C-33.91899438 3.09577604 -29.96534112 2.71409418 -26.01171875 2.33203125 C-24.22849968 2.16194298 -24.22849968 2.16194298 -22.40925598 1.98841858 C-20.75394112 1.82749977 -20.75394112 1.82749977 -19.06518555 1.66333008 C-18.10678268 1.57102615 -17.14837982 1.47872223 -16.16093445 1.38362122 C-14.18247203 1.1555734 -12.21080925 0.86467885 -10.24739075 0.53105164 C-6.79488821 -0.0321293 -3.49593344 -0.0329805 0 0 Z " fill="#FA626D" transform="translate(257.375,240.9375)"/>
<path d="M0 0 C9.69480487 6.52607487 18.70076143 20.03943318 21.4921875 31.3125 C21.72844647 34.84325906 21.04736455 36.64073019 18.8828125 39.4140625 C13.82293831 41.83858555 9.52474456 40.38892208 4.4453125 38.7265625 C-4.58076245 36.50963181 -11.95252509 40.13931711 -20.1171875 43.8515625 C-29.51348446 48.06192507 -38.63831084 49.54754174 -48.6796875 46.4140625 C-58.62444125 42.33671346 -64.54058562 35.34493925 -68.9609375 25.74609375 C-70.85883437 20.99493976 -72.40569432 16.82259638 -72.4296875 11.6640625 C-72.44644531 10.82488281 -72.46320313 9.98570312 -72.48046875 9.12109375 C-72.1171875 6.8515625 -72.1171875 6.8515625 -70.875 5.06640625 C-68.64960114 3.52840837 -67.36388442 3.51103309 -64.6796875 3.6015625 C-63.91785156 3.61703125 -63.15601563 3.6325 -62.37109375 3.6484375 C-60.18254881 3.84567205 -58.23739831 4.29182685 -56.1171875 4.8515625 C-48.92671673 5.79457506 -44.00358224 3.77442687 -37.69799805 0.51757812 C-25.80981616 -5.56967722 -11.95818218 -6.48654162 0 0 Z " fill="#010000" transform="translate(73.1171875,420.1484375)"/>
<path d="M0 0 C2 0.625 2 0.625 5 2 C5.69738281 2.28746094 6.39476563 2.57492188 7.11328125 2.87109375 C9.81933002 4.33707043 11.25481813 5.43783348 13 8 C13.46892891 12.25192274 13.29913356 16.29325274 13.1015625 20.5546875 C12.3301836 39.48188973 22.30213686 62.0807665 34.75 76.16796875 C42.02706601 82.09321868 51.04637333 83.81839992 59.9375 86.0625 C75.40472894 90.01826969 75.40472894 90.01826969 82.15844727 92.36303711 C84.74550305 93.25785728 87.36567534 94.00734464 90 94.75 C91.20398438 95.0903125 92.40796875 95.430625 93.6484375 95.78125 C96.92394663 96.69982006 100.20029819 97.61537755 103.4765625 98.53125 C104.47075195 98.80928467 105.46494141 99.08731934 106.48925781 99.3737793 C108.59508992 99.96221214 110.70121437 100.54959972 112.80761719 101.13598633 C118.77005229 102.79976681 124.72217956 104.49476697 130.6640625 106.23046875 C131.92911621 106.59817383 133.19416992 106.96587891 134.49755859 107.34472656 C136.95783512 108.06120007 139.41656236 108.78302002 141.87353516 109.51074219 C142.9929248 109.8359082 144.11231445 110.16107422 145.265625 110.49609375 C146.25336914 110.78669678 147.24111328 111.0772998 148.25878906 111.37670898 C150.94520232 111.98754021 153.26069853 112.01436338 156 112 C158.93816635 113.72290383 161.34519353 115.84015745 164 118 C163.34 121.3 162.68 124.6 162 128 C155.22026033 126.95872353 148.67934844 125.14994114 142.0625 123.375 C141.39561157 123.19703888 140.72872314 123.01907776 140.04162598 122.83572388 C130.46072736 120.2751831 120.95310878 117.52648861 111.48461914 114.57568359 C103.27898946 112.03613736 95.00045118 109.8217247 86.69702148 107.62695312 C78.56873147 105.46279818 70.52904932 103.07819256 62.50561523 100.5546875 C57.6110343 99.0333124 52.72230956 97.65648198 47.734375 96.47265625 C46.70143311 96.22394775 45.66849121 95.97523926 44.60424805 95.71899414 C42.64442028 95.25573924 40.6798369 94.8119534 38.71020508 94.39233398 C31.90333727 92.77673911 27.8443759 89.99675934 23 85 C22.23429687 84.24074219 21.46859375 83.48148437 20.6796875 82.69921875 C8.62852289 69.26556123 3.18180682 53.51138284 0 36 C-0.26018921 34.82425415 -0.26018921 34.82425415 -0.52563477 33.62475586 C-0.99517551 31.02669486 -1.12926401 28.6526606 -1.1328125 26.015625 C-1.13410156 25.07976562 -1.13539062 24.14390625 -1.13671875 23.1796875 C-1.13285156 22.21289062 -1.12898438 21.24609375 -1.125 20.25 C-1.12886719 19.29867187 -1.13273437 18.34734375 -1.13671875 17.3671875 C-1.12867919 11.49831115 -0.75450635 5.82047757 0 0 Z " fill="#FA626D" transform="translate(96,73)"/>
<path d="M0 0 C0.99 0.495 0.99 0.495 2 1 C0.0297852 2.76101609 -1.94837601 4.5104832 -3.9375 6.25 C-4.55197998 6.78778076 -5.16645996 7.32556152 -5.79956055 7.87963867 C-9.29973571 10.88059922 -12.85192511 13.64947025 -16.6796875 16.22265625 C-17.83609741 17.00044434 -17.83609741 17.00044434 -19.01586914 17.79394531 C-20.52320566 18.7906109 -22.0430845 19.76861294 -23.57592773 20.72558594 C-28.07961956 23.69934437 -28.07961956 23.69934437 -29.98046875 28.73046875 C-29.99096153 30.48695989 -30 32.24347752 -30 34 C-32.57426284 35.39489126 -35.15703057 36.76570979 -37.75 38.125 C-38.47960937 38.52332031 -39.20921875 38.92164063 -39.9609375 39.33203125 C-40.66992188 39.69941406 -41.37890625 40.06679688 -42.109375 40.4453125 C-42.75874023 40.79094238 -43.40810547 41.13657227 -44.07714844 41.49267578 C-46 42 -46 42 -48.18066406 41.15966797 C-50 40 -50 40 -51 39 C-56.52982002 38.57787633 -60.80288133 39.75176631 -65.875 41.75 C-74.44919002 44.9365583 -83.01575222 47.29204531 -92 49 C-93.13179687 49.22300781 -94.26359375 49.44601562 -95.4296875 49.67578125 C-108.09709403 51.45665136 -119.20498893 45.26625784 -129.28125 38.12890625 C-140.75020599 29.1481864 -148.03082592 18.07970707 -152 4 C-151.67 3.01 -151.34 2.02 -151 1 C-150.09121094 1.50789063 -149.18242187 2.01578125 -148.24609375 2.5390625 C-114.05850332 21.38453495 -75.99484021 27.44049437 -37.92480469 17.17041016 C-17.54675364 11.31938801 -17.54675364 11.31938801 0 0 Z " fill="#FAC438" transform="translate(288,365)"/>
<path d="M0 0 C1.33804688 0.19335938 1.33804688 0.19335938 2.703125 0.390625 C3.71632813 0.56851562 3.71632813 0.56851562 4.75 0.75 C3.44442904 7.6779491 1.32747949 13.67206813 -1.625 20.0625 C-2.06416748 21.01600342 -2.50333496 21.96950684 -2.95581055 22.9519043 C-10.4430025 38.84429333 -19.73665224 53.34399854 -30.81152344 66.96533203 C-32.07562181 68.53365503 -33.29551786 70.13739135 -34.5078125 71.74609375 C-45.54560161 85.53283795 -65.80673897 90.91048539 -82.60766602 93.35742188 C-88.57396759 94.00048193 -94.51258264 94.08435094 -100.50585938 94.06567383 C-102.61641171 94.06251286 -104.7255567 94.08608785 -106.8359375 94.11132812 C-132.53012679 94.23258353 -156.19957985 84.54730072 -176.25 68.75 C-177.24386719 67.96882813 -177.24386719 67.96882813 -178.2578125 67.171875 C-179.62021679 66.06927804 -180.94198753 64.91660571 -182.25 63.75 C-182.25 63.42 -182.25 63.09 -182.25 62.75 C-155.71827368 61.20521244 -155.71827368 61.20521244 -146.19140625 68.515625 C-142.79929214 71.09237038 -139.36440175 72.81412574 -135.5 74.5625 C-134.86151123 74.85350586 -134.22302246 75.14451172 -133.56518555 75.44433594 C-122.57038886 80.36536519 -112.01274971 83.1305552 -99.9375 83 C-99.01179199 82.99178223 -98.08608398 82.98356445 -97.13232422 82.97509766 C-75.8845576 82.62860593 -58.27223461 74.97922039 -42.73828125 60.38671875 C-29.20398172 46.04503558 -19.20736201 27.59222217 -11.83520508 9.43432617 C-9.23839559 3.15705691 -7.32174513 -1.15606502 0 0 Z " fill="#FB636D" transform="translate(311.25,370.25)"/>
<path d="M0 0 C4.15790865 3.87270914 7.23643166 8.02938005 10.375 12.75 C11.34780403 14.17266499 12.32175794 15.5945444 13.296875 17.015625 C14.88449535 19.34106062 16.4331573 21.67572539 17.953125 24.046875 C19.51606481 26.34016052 20.83288371 28.26337182 23 30 C25.11036219 30.10502616 25.11036219 30.10502616 27.3125 29.6875 C29.5703125 29.40625 29.5703125 29.40625 32 30 C34.23437035 31.98817154 35.94777888 34.26430615 37.6875 36.6875 C38.14616455 37.31293701 38.6048291 37.93837402 39.07739258 38.58276367 C40.32421875 40.44921875 40.32421875 40.44921875 42 44 C41.26953125 46.58203125 41.26953125 46.58203125 40 49 C39.52418014 53.68499555 40.25096985 56.13046245 42.875 60 C43.51824219 60.95648438 44.16148437 61.91296875 44.82421875 62.8984375 C47.94431737 67.34611848 51.07567566 71.78299818 54.26171875 76.18359375 C56.19520682 78.861001 58.086587 81.56334579 59.95703125 84.28515625 C65.80311537 92.76230734 71.79737198 100.62208679 79 108 C78.67 108.66 78.34 109.32 78 110 C69.36780006 103.88845877 60.81840651 97.67329333 52.31323242 91.38623047 C46.90028302 87.38912466 41.46140029 83.43059874 36 79.5 C27.32522384 73.25335848 18.71027266 66.9281862 10.12109375 60.56445312 C8.19226793 59.14181087 6.25477913 57.73231135 4.3125 56.328125 C1.49504528 54.27027817 -1.27051469 52.17263379 -4 50 C-4.60585937 49.53078125 -5.21171875 49.0615625 -5.8359375 48.578125 C-9.09303603 45.51897168 -9.35331268 42.41523805 -9.5 38.1875 C-9.05093956 27.26036267 -8.02636777 8.02636777 0 0 Z " fill="#FDDB3F" transform="translate(163,34)"/>
<path d="M0 0 C1.33496612 0.26266695 2.66788705 0.53572653 4 0.8125 C5.11375 1.03873047 5.11375 1.03873047 6.25 1.26953125 C7.61125 1.63111328 7.61125 1.63111328 9 2 C9.64219482 2.15404297 10.28438965 2.30808594 10.94604492 2.46679688 C15.01169893 3.6596538 17.29011192 4.77112951 19.36328125 8.5546875 C20.03301169 9.98560422 20.68189936 11.42641298 21.3125 12.875 C29.91336694 30.67341313 44.66734849 44.67278897 62 54 C78.72596292 59.57532097 102.63435609 53.64760794 119.94683838 51.87164307 C123.21087182 51.54009544 126.47609067 51.22117907 129.74138451 50.90232277 C132.91098445 50.59160782 136.07990426 50.27436893 139.24864578 49.95502853 C140.74987642 49.8042542 142.25127618 49.65515317 143.75284958 49.50783157 C145.84294221 49.30150997 147.93199826 49.08672168 150.02099609 48.86962891 C151.20341888 48.74971588 152.38584167 48.62980286 153.60409546 48.5062561 C157.09182136 48.06592884 157.09182136 48.06592884 160.72940063 46.90316772 C164.73029095 45.79833201 166.60442173 46.41067796 170.4375 47.875 C171.48808594 48.26429688 172.53867188 48.65359375 173.62109375 49.0546875 C174.40613281 49.36664063 175.19117188 49.67859375 176 50 C176.33 52.97 176.66 55.94 177 59 C155.90948029 61.57336681 134.78187207 63.79732459 113.63922119 65.89398193 C110.84607332 66.17119626 108.05344993 66.45301447 105.26116943 66.73883057 C101.27807411 67.14609831 97.29350361 67.53666442 93.30859375 67.92578125 C92.11492691 68.04950607 90.92126007 68.1732309 89.69142151 68.30070496 C67.97211333 70.36784008 49.12167289 62.89997844 32.04296875 49.56640625 C16.47903436 36.43995581 3.70488208 20.54525516 0 0 Z " fill="#FBC538" transform="translate(81,167)"/>
<path d="M0 0 C2.3125 2.0625 2.3125 2.0625 4 4 C-3.10762625 25.21518745 -14.72649777 41.64313658 -35 52 C-43.99382405 56.26960088 -53.20168531 59.16693709 -63 61 C-63.95519531 61.18433594 -64.91039062 61.36867188 -65.89453125 61.55859375 C-76.1245645 63.01267395 -87.28898945 62.82821031 -97 59 C-97.33 58.34 -97.66 57.68 -98 57 C-97.31188232 56.5781543 -96.62376465 56.15630859 -95.91479492 55.72167969 C-83.98756778 48.40596969 -72.07003137 41.08034905 -60.25976562 33.57666016 C-52.5145582 28.667749 -44.69679004 23.87796687 -36.87036133 19.09985352 C-31.40318621 15.75191995 -25.9798321 12.35735108 -20.625 8.83203125 C-19.62315674 8.17638184 -18.62131348 7.52073242 -17.58911133 6.84521484 C-15.69774345 5.60170213 -13.81428684 4.3460461 -11.94018555 3.07666016 C-11.0975415 2.52413574 -10.25489746 1.97161133 -9.38671875 1.40234375 C-8.29170044 0.66745728 -8.29170044 0.66745728 -7.17456055 -0.08227539 C-4.35565585 -1.27193103 -2.87389356 -0.94454571 0 0 Z " fill="#FAC438" transform="translate(282,261)"/>
<path d="M0 0 C1.0209375 0.433125 1.0209375 0.433125 2.0625 0.875 C1.45792969 1.41253906 0.85335938 1.95007813 0.23046875 2.50390625 C-2.19664364 5.15842376 -3.29388051 7.48260171 -4.625 10.8125 C-5.24955078 12.34197266 -5.24955078 12.34197266 -5.88671875 13.90234375 C-10.80882096 27.82695261 -8.3038821 44.17866412 -2.125 57.25 C3.62784166 67.96607761 10.90058451 74.44755023 22.625 78.125 C26.23175572 79.15069743 29.8406095 80.06180211 33.5 80.875 C37.97758929 82.13186717 41.46433147 83.55951316 44.1862793 87.50317383 C47.14786141 93.03303081 47.72710868 97.71616399 47.625 103.9375 C47.61073975 105.36944702 47.61073975 105.36944702 47.59619141 106.83032227 C47.14399415 122.8362754 42.29095476 138.25423702 38.16699219 153.62109375 C35.95639075 161.96517257 34.36748107 170.34683425 33.0625 178.875 C33.7225 179.205 34.3825 179.535 35.0625 179.875 C23.54085991 182.17112756 23.54085991 182.17112756 18.0625 181.875 C17.85125602 176.73252946 18.51362623 172.42695048 20.0625 167.5625 C20.27890137 166.85319336 20.49530273 166.14388672 20.71826172 165.41308594 C21.48877381 162.89689064 22.2747951 160.38586549 23.0625 157.875 C24.08735283 154.59434022 25.11014147 151.31307357 26.12890625 148.03051758 C26.81632763 145.81906903 27.50875098 143.60916686 28.20703125 141.40112305 C31.44376468 131.02966322 34.65910091 120.64184636 34.5 109.6875 C34.49097656 108.92139404 34.48195313 108.15528809 34.47265625 107.3659668 C34.21793083 99.02105595 32.48474722 92.81814499 26.3125 86.9375 C20.78199356 82.59864964 15.56172643 81.06801273 8.6875 80.0625 C-1.07525081 78.39931669 -8.28028124 72.84653552 -13.9375 64.875 C-15.5796759 62.29519463 -16.82542197 59.72212569 -17.9375 56.875 C-18.2365625 56.11058594 -18.535625 55.34617188 -18.84375 54.55859375 C-22.43179804 43.6781703 -22.90012552 30.00556898 -18.265625 19.3984375 C-7.87944962 -0.33529573 -7.87944962 -0.33529573 0 0 Z " fill="#F97E85" transform="translate(292.9375,174.125)"/>
<path d="M0 0 C0.33 0 0.66 0 1 0 C5.83224399 20.56587337 2.47446594 45.31489267 -4 65 C-4.36037354 66.11906738 -4.36037354 66.11906738 -4.72802734 67.26074219 C-12.68857276 91.20435011 -29.23191705 111.6333609 -51.625 123.3125 C-60.30505608 127.62105923 -69.56527355 129.95724573 -79 132 C-79.78850342 132.18030762 -80.57700684 132.36061523 -81.3894043 132.54638672 C-86.41956995 133.42042093 -91.53277581 133.18461325 -96.625 133.1875 C-97.7696875 133.19974609 -98.914375 133.21199219 -100.09375 133.22460938 C-101.73730469 133.22750977 -101.73730469 133.22750977 -103.4140625 133.23046875 C-104.91380615 133.23663208 -104.91380615 133.23663208 -106.44384766 133.24291992 C-109 133 -109 133 -112 131 C-111.51120361 130.71801758 -111.02240723 130.43603516 -110.51879883 130.14550781 C-108.28087949 128.85125109 -106.04668717 127.55068787 -103.8125 126.25 C-103.04357422 125.8065625 -102.27464844 125.363125 -101.48242188 124.90625 C-98.15864732 122.96619275 -95.20609068 121.18412773 -92.32421875 118.609375 C-90 117 -90 117 -87.1796875 117.37109375 C-86.13039063 117.57863281 -85.08109375 117.78617187 -84 118 C-81.25621283 117.47587364 -78.77479848 116.88309065 -76.125 116.0625 C-75.01668823 115.72460449 -75.01668823 115.72460449 -73.88598633 115.37988281 C-48.38777646 107.21394894 -28.22665967 89.78114174 -15.78271484 66.09741211 C-5.08133654 45.01089009 -1.38667545 23.35453385 0 0 Z " fill="#FAC538" transform="translate(345,364)"/>
<path d="M0 0 C1.11117188 0.55429687 2.22234375 1.10859375 3.3671875 1.6796875 C13.49538919 6.65140272 21.86384269 9.7973661 33.18969727 10.27636719 C44.50768481 10.7729966 54.63468711 12.67262504 63 21 C67.78982221 27.29485363 69.15211621 32.29438031 69.0625 40.1875 C69.05798828 40.93708984 69.05347656 41.68667969 69.04882812 42.45898438 C69.03706354 44.30602383 69.01912865 46.15302213 69 48 C66.43135544 46.99205087 63.89408152 45.95217094 61.37890625 44.81640625 C49.090883 39.34559423 36.44036706 36.6883292 23 38 C19.75150023 39.72226496 19.75150023 39.72226496 19 43 C12.51813243 42.72417585 7.90890586 40.23472137 3 36 C2.505 34.515 2.505 34.515 2 33 C2.66 32.01 3.32 31.02 4 30 C3.76789163 26.0541577 3.05240364 23.11738414 1.4375 19.5 C-1.05108492 13.41142329 -0.22712077 6.46032424 0 0 Z " fill="#F97E85" transform="translate(16,323)"/>
<path d="M0 0 C-0.144375 0.66902344 -0.28875 1.33804687 -0.4375 2.02734375 C-2.63468816 13.39474083 -3.20015789 24.81249016 -0.5 36.125 C2.80985896 50.04868555 1.72186904 63.29226588 -5.609375 75.73046875 C-10.40904887 82.30249926 -16.83135065 87.20483269 -24 91 C-24.66 91 -25.32 91 -26 91 C-25.92998779 90.34515625 -25.85997559 89.6903125 -25.7878418 89.015625 C-25.08694898 81.99554208 -24.81703264 75.05279468 -24.8125 68 C-24.80025391 66.99710937 -24.78800781 65.99421875 -24.77539062 64.9609375 C-24.76374852 58.95361317 -25.35004633 53.40894665 -26.53051758 47.52294922 C-28.5117402 36.87606699 -27.76338453 26.33797808 -22 17 C-17.27233309 10.63229289 -8.83128718 0 0 0 Z " fill="#F77D84" transform="translate(432,354)"/>
<path d="M0 0 C-2.40016884 2.62240669 -5.00159748 4.38585703 -8.015625 6.2578125 C-9.01271484 6.87946289 -10.00980469 7.50111328 -11.03710938 8.14160156 C-12.09736328 8.79612305 -13.15761719 9.45064453 -14.25 10.125 C-15.33087891 10.79499023 -16.41175781 11.46498047 -17.52539062 12.15527344 C-19.68802369 13.49352369 -21.85206425 14.82950235 -24.01757812 16.16308594 C-26.56232703 17.73043129 -29.10200203 19.30558179 -31.640625 20.8828125 C-32.92648914 21.67284294 -34.21289294 22.46199613 -35.5 23.25 C-36.5828125 23.91515625 -37.665625 24.5803125 -38.78125 25.265625 C-45.07093169 28.65472533 -50.63910865 30.56832024 -57.875 30.5 C-58.60259521 30.49427979 -59.33019043 30.48855957 -60.07983398 30.48266602 C-76.53126069 29.9602589 -95.86363076 22.85227693 -109 13 C-109 12.01 -109 11.02 -109 10 C-97.86400542 8.84238688 -86.72787452 7.68609465 -75.59157181 6.53144932 C-70.41954246 5.99515667 -65.24755963 5.45842357 -60.07568359 4.9206543 C-55.07668616 4.40087773 -50.07756597 3.8822968 -45.07836151 3.3645153 C-43.17913216 3.16760021 -41.27994606 2.97026751 -39.38080597 2.77249336 C-10.7035082 -0.21312295 -10.7035082 -0.21312295 0 0 Z " fill="#FB7F86" transform="translate(254,242)"/>
<path d="M0 0 C-1.48449762 10.3358147 -9.94599754 18.82623519 -17 26 C-18.03060547 27.04994141 -18.03060547 27.04994141 -19.08203125 28.12109375 C-25.30310891 34.04208232 -32.45125459 38.04710967 -40 42 C-40.9178125 42.48597656 -41.835625 42.97195313 -42.78125 43.47265625 C-53.37806273 48.69126734 -66.55105749 52.22228301 -78.375 52.0625 C-79.68597656 52.04896484 -79.68597656 52.04896484 -81.0234375 52.03515625 C-81.67570313 52.02355469 -82.32796875 52.01195312 -83 52 C-83 51.34 -83 50.68 -83 50 C-81.20947266 48.64990234 -81.20947266 48.64990234 -78.6640625 47.0859375 C-77.71490967 46.4978833 -76.76575684 45.9098291 -75.7878418 45.30395508 C-74.744104 44.6673999 -73.70036621 44.03084473 -72.625 43.375 C-71.01395386 42.38052856 -71.01395386 42.38052856 -69.37036133 41.3659668 C-66.49836679 39.59489311 -63.62272129 37.83008926 -60.74481201 36.06866455 C-57.92251562 34.34006108 -55.10398488 32.60534451 -52.28515625 30.87109375 C-48.99025565 28.84400462 -45.69517914 26.81721602 -42.39868164 24.79272461 C-35.76154301 20.71345675 -29.14700232 16.60120012 -22.5625 12.4375 C-21.79639404 11.9535376 -21.03028809 11.4695752 -20.2409668 10.97094727 C-16.97796337 8.90479977 -13.7243461 6.82711941 -10.49609375 4.70703125 C-9.50738281 4.06121094 -8.51867187 3.41539062 -7.5 2.75 C-6.6853125 2.20859375 -5.870625 1.6671875 -5.03125 1.109375 C-3 0 -3 0 0 0 Z " fill="#FCDA3F" transform="translate(280,260)"/>
<path d="M0 0 C8.50310573 4.03309363 17.24588692 10.10773518 23.71484375 16.96875 C14.97832433 23.7534938 6.83154478 27.82941366 -4.44140625 27.43359375 C-15.75266336 25.58463826 -27.52748215 16.20960104 -35.28515625 7.96875 C-33.93629643 7.02363054 -32.58072887 6.0880828 -31.22265625 5.15625 C-30.46855469 4.63417969 -29.71445312 4.11210938 -28.9375 3.57421875 C-19.98690205 -1.84359533 -9.99645702 -3.13800791 0 0 Z " fill="#F9969D" transform="translate(322.28515625,54.03125)"/>
<path d="M0 0 C3.02039057 0.45763494 5.38452723 1.17341424 8.1875 2.4375 C14.6530468 5.26359189 21.22024188 6.01679348 28.21166992 6.28735352 C39.54815704 6.73375023 49.60761609 8.72153986 58 17 C61.853707 21.69964268 63.28018223 24.83599084 63 31 C62.04222656 30.65066406 61.08445313 30.30132812 60.09765625 29.94140625 C52.7782882 27.39691289 46.02205896 25.62539872 38.25 25.375 C25.96122436 24.95715656 15.89975915 22.86010537 6.9609375 13.97265625 C2.87760704 9.46082815 0 6.27297783 0 0 Z " fill="#FB979E" transform="translate(21,327)"/>
<path d="M0 0 C3.70595284 0.3901003 6.79987148 1.27866572 10.1875 2.75 C15.09466417 4.77494425 20.06959489 6.24735911 25.1875 7.625 C25.92830811 7.83092773 26.66911621 8.03685547 27.43237305 8.24902344 C40.53030667 11.68317835 53.4980796 12.28797661 66.9375 12.125 C68.41080107 12.11493003 69.88410896 12.10581142 71.35742188 12.09765625 C74.90509384 12.07600687 78.45250022 12.04170887 82 12 C82 12.66 82 13.32 82 14 C63.49523097 22.32298457 45.10927282 29.05026298 25 22 C14.52460942 17.51670527 4.91185776 10.4935143 0 0 Z " fill="#FCDA3F" transform="translate(151,375)"/>
<path d="M0 0 C0.03738281 1.28132813 0.07476562 2.56265625 0.11328125 3.8828125 C0.5322672 15.69175373 0.5322672 15.69175373 2.5625 27.3125 C5.62673329 40.33168024 4.58584364 51.92960025 -1 64 C-3.09375094 67.25742656 -5.34859595 70.1804954 -8 73 C-9.07159888 69.57088359 -9.00391245 66.57517193 -8.875 63 C-8.81056941 56.82110641 -9.49550317 51.02815839 -10.5 44.9375 C-12.9695301 29.53288591 -13.07374862 15.92071447 -4.1484375 2.390625 C-2.95588972 0.94658755 -1.97609453 0 0 0 Z " fill="#F9959C" transform="translate(429,363)"/>
<path d="M0 0 C3.35181507 1.74602919 5.87963019 3.93579041 7.7421875 7.22265625 C7.7421875 7.88265625 7.7421875 8.54265625 7.7421875 9.22265625 C6.5046875 9.42568359 6.5046875 9.42568359 5.2421875 9.6328125 C-1.9103587 10.96593216 -7.90593488 12.79721187 -14.4453125 15.91015625 C-20.6848417 18.80302888 -26.30340181 21.02606907 -33.2578125 19.22265625 C-38.54131634 16.58524218 -41.33583902 13.83558378 -43.2578125 8.22265625 C-42.49339844 8.15949219 -41.72898437 8.09632813 -40.94140625 8.03125 C-34.12049877 7.2514832 -28.78075844 5.73237386 -22.7578125 2.59765625 C-15.36893064 -1.15920849 -8.13484226 -2.80075019 0 0 Z " fill="#F7959B" transform="translate(63.2578125,432.77734375)"/>
<path d="M0 0 C12.75423368 -0.45915241 22.37073309 0.48825551 33 8 C29.42395593 10.38402938 25.73337384 12.49923553 22 14.625 C20.91332031 15.25535156 20.91332031 15.25535156 19.8046875 15.8984375 C19.10601562 16.29546875 18.40734375 16.6925 17.6875 17.1015625 C17.05199219 17.46588379 16.41648437 17.83020508 15.76171875 18.20556641 C14 19 14 19 11 19 C10.62488281 18.19175781 10.24976563 17.38351563 9.86328125 16.55078125 C7.11391775 10.80966704 4.77662251 6.21466692 0 2 C0 1.34 0 0.68 0 0 Z " fill="#F9C337" transform="translate(457,61)"/>
<path d="M0 0 C4.93278407 -0.340192 7.94803545 0.60308695 12.3125 2.875 C13.88451172 3.67550781 13.88451172 3.67550781 15.48828125 4.4921875 C18 6 18 6 19 8 C15.04 9.65 11.08 11.3 7 13 C5.83072457 11.02237345 4.66464427 9.04285742 3.5 7.0625 C2.8503125 5.96035156 2.200625 4.85820313 1.53125 3.72265625 C0 1 0 1 0 0 Z " fill="#F6D53D" transform="translate(471,62)"/>
</svg>
